<svg width="500" height="500" viewBox="0 0 500 500" fill="none" xmlns="http://www.w3.org/2000/svg">
<path d="M115.939 218.696L113.223 232.901L140.292 221.293C138.563 217.656 137.175 213.893 136.17 210.03L115.939 218.696Z" fill="white"/>
<path d="M338.592 275.555L316.338 254.186C325.087 248.198 332.491 241.173 338.192 233.352C338.27 233.249 338.342 233.126 338.418 233.017L392.546 176.817L394.154 175.086L401.219 167.732L335.118 104.272L271.663 170.36L271.676 170.374L269.853 172.27L275.993 178.149L304.476 205.921C298.24 211.82 290.321 216.876 281.379 220.597C281.377 220.599 281.368 220.599 281.364 220.601L244.112 184.832L231.555 172.931L333.362 66.893L440.497 169.433L338.592 275.555ZM352.401 185.471C352.885 182.301 353.159 179.162 353.159 176.148C353.159 158.383 345.114 139.655 331.598 125.688L335.118 122.02L389.874 174.597L344.536 221.806C349.35 210.612 352.464 196.803 352.464 186.898C352.464 186.479 352.44 185.992 352.401 185.471ZM306.883 203.516L281.036 178.345L302.927 155.541C310.715 162.035 316.477 169.791 319.523 178.317C319.334 179.707 319.097 181.108 318.754 182.512C316.911 190.059 312.905 197.116 306.883 203.516ZM302.588 241.147C298.594 243.178 294.36 245.02 289.993 246.632C274.996 252.17 258.823 254.979 241.929 254.979C217.98 254.979 195.308 249.284 176.374 238.508C165.908 232.549 157.116 225.327 150.246 217.036C147.617 213.858 145.296 210.553 143.342 207.205C139.305 200.323 136.644 193.068 135.43 185.651C134.881 182.342 134.616 179.231 134.616 176.148C134.616 164.677 137.906 153.634 144.401 143.288L161.82 160.918C160.636 164.964 160.038 169.074 160.038 173.161C160.038 176.557 160.462 180.015 161.294 183.437C162.479 188.276 164.523 193.01 167.357 197.514C169.602 201.077 172.335 204.477 175.479 207.61C184.123 216.243 195.851 223.037 209.4 227.259C219.677 230.463 230.625 232.088 241.929 232.088C251.056 232.088 260.077 231.006 268.741 228.857C273.675 227.627 278.435 226.061 282.884 224.215C293.137 219.946 302.16 214.001 308.984 207.014C315.912 199.906 320.477 191.973 322.558 183.437C323.399 179.992 323.827 176.535 323.827 173.161C323.827 163.458 320.17 152.478 314.213 144.081L329.035 128.645C341.72 141.867 349.237 159.48 349.237 176.148C349.237 179.209 348.966 182.41 348.431 185.651C346.142 199.63 338.724 212.945 326.977 224.157C320.094 230.734 311.888 236.45 302.588 241.147ZM131.562 186.288C131.583 186.412 131.62 186.531 131.641 186.661C131.596 187.155 131.561 187.617 131.561 187.987C131.561 193.22 134.77 205.648 136.067 210.606C136.067 210.612 136.071 210.616 136.071 210.623L119.053 217.899L135.282 133.316L141.948 139.907C134.503 151.255 130.701 163.436 130.701 176.148C130.701 179.444 130.984 182.762 131.562 186.288ZM171.283 196.282C171.092 195.993 170.854 195.719 170.671 195.426C168.057 191.28 166.186 186.929 165.1 182.512C164.985 182.045 164.939 181.578 164.845 181.11C166.106 176.659 168.106 172.401 170.739 168.392L191.43 188.86L171.283 196.282ZM267.568 225.108C259.281 227.136 250.658 228.171 241.929 228.171C231.02 228.171 220.466 226.605 210.563 223.519C209.241 223.107 207.953 222.653 206.669 222.192L246.074 204.47L267.568 225.108ZM76.0798 278.489L114.277 65.7003L198.942 145.938L229.932 175.483V188.96L243.104 201.615L201.953 220.349C192.656 216.411 184.564 211.142 178.248 204.835C178.103 204.692 177.987 204.531 177.844 204.39L209.422 189.64L135.159 120.487L133.695 119.013L131.921 128.59L111.668 234.204L116.319 232.211L116.337 232.099L140.191 221.877C143.921 229.737 149.265 237.044 155.926 243.575L76.0798 278.489ZM261.211 137.326L229.347 170.515L201.357 143.985C213.381 138.76 227.499 135.729 242.618 135.729C249.025 135.729 255.245 136.299 261.211 137.326ZM238.264 94.0874C255.547 94.0874 278.657 98.5238 293.328 103.875L276.377 121.521L276.323 121.579C266.082 118.153 254.669 116.226 242.618 116.226C221.583 116.226 202.48 122.07 188.277 131.584L188.065 131.384L169.458 113.751C188.133 102.478 212.358 94.0874 238.264 94.0874ZM442.943 166.926V166.882L442.922 166.908L333.362 62.1785L296.509 100.564C281.283 94.6739 257.341 89.9377 239.141 89.9377C212.668 89.9377 185.375 98.9778 166.314 110.777L114.927 62.0786L114.935 62.0242L114.876 62.0286L114.842 61.996L114.833 62.0351L96.4563 63.96L56.7852 281.184L75.2514 283.107L75.2616 283.045L158.973 246.429C159.108 246.547 159.233 246.672 159.369 246.795C179.285 264.365 209.181 275.555 242.618 275.555C265.819 275.555 287.297 270.155 304.938 260.987L338.592 293.305L442.943 184.628V166.952L442.954 166.939L442.943 166.926Z" fill="white"/>
<path d="M29.0169 309.756H115.249L107.129 342.962H65.798L61.7118 360.41H104.828L97.321 391.176H54.7636L44.5466 434.886H0L29.0169 309.756Z" fill="white"/>
<path d="M126.973 309.756H171.519L142.502 434.886H97.9549L126.973 309.756Z" fill="white"/>
<path d="M216.072 369.415C230.377 369.415 240.388 360.971 240.388 348.967C240.388 342.586 235.689 339.398 226.493 339.398C223.838 339.398 222.408 339.586 219.547 340.149L212.803 369.037C214.234 369.227 214.438 369.415 216.072 369.415ZM183.173 310.507L186.034 310.132C200.337 308.443 218.117 307.318 227.924 307.318C244.271 307.318 256.941 309.194 266.546 313.132C278.806 318.199 286.163 329.268 286.163 342.586C286.163 354.029 282.28 364.911 274.922 373.355C268.587 380.669 262.868 384.233 251.015 387.798L248.153 388.736C249.381 389.675 249.789 390.05 250.402 390.613C253.876 394.553 264.298 414.814 273.086 434.886H224.042C217.707 417.064 215.868 412.374 207.49 392.113L197.681 434.886H154.361L183.173 310.507Z" fill="white"/>
<path d="M391.914 309.756H500L492.448 345.98H460.37L439.118 434.886H394.571L415.823 345.98H381.051L391.914 309.756Z" fill="white"/>
<path d="M459.672 423.033C460.637 423.033 461.185 422.57 461.185 421.688C461.185 420.847 460.678 420.384 459.714 420.384C459.503 420.384 459.462 420.384 459.251 420.428V422.989C459.418 423.033 459.503 423.033 459.672 423.033ZM455.766 417.823C456.314 417.782 456.396 417.74 457.489 417.656C458.58 417.571 459.042 417.529 459.503 417.529C463.075 417.529 464.837 418.915 464.837 421.562C464.837 423.156 464.168 424.124 462.738 424.671L462.571 424.712C462.694 424.797 462.738 424.838 462.779 424.921C463.157 425.257 464.417 427.147 465.469 428.87H461.395C460.554 427.315 460.302 426.895 459.251 425.134V428.87H455.766V417.823ZM459.966 432.903C465.258 432.903 469.501 428.66 469.501 423.411C469.501 418.118 465.258 413.875 459.966 413.875C454.715 413.875 450.474 418.118 450.474 423.367C450.474 428.701 454.675 432.903 459.966 432.903ZM459.966 412.531C465.971 412.531 470.844 417.362 470.844 423.367C470.844 429.416 466.014 434.247 459.966 434.247C453.876 434.247 449.129 429.498 449.129 423.367C449.129 417.321 453.917 412.531 459.966 412.531Z" fill="white"/>
<path d="M277.468 431.706C289.993 435.427 303.689 437.513 316.483 437.513C333.853 437.513 347.137 433.574 358.577 425.319C371.246 416.313 379.421 402.433 379.421 389.864C379.421 381.419 375.745 373.728 369.206 368.285C364.096 364.162 358.784 360.971 347.953 355.906L339.167 351.781C336.304 350.277 334.874 348.778 334.874 347.09C334.874 342.586 340.597 339.212 348.362 339.212C354.171 339.212 361.095 340.9 374.324 345.226L383.456 311.353C373.562 308.666 363.92 307.318 354.287 307.318C317.915 307.318 289.919 327.202 289.919 352.904C289.919 366.411 298.909 375.979 321.387 386.485C332.013 391.362 333.853 392.677 333.853 396.053C333.853 401.118 328.335 404.309 319.345 404.309C311.376 404.309 301.16 401.87 287.262 396.803L287.245 396.808L277.468 431.706Z" fill="white"/>
</svg>
