<svg width="256" height="256" viewBox="0 0 256 256" fill="none" xmlns="http://www.w3.org/2000/svg">
<path fill-rule="evenodd" clip-rule="evenodd" d="M233.796 123.565C236.204 114.64 238.264 107 238.264 107C238.264 107 230.204 115.683 222.884 123.565C222.884 123.565 151.505 123.536 151.158 123.536C150.708 123.549 150.741 123.765 151.125 123.765C151.389 123.751 221.582 124.971 221.582 124.971C215.943 131.043 212.83 134.407 212.751 134.488C212.53 134.707 212.716 134.897 212.99 134.623C212.99 134.623 217.106 130.758 222.923 124.996L231.884 125.145C231.297 127.701 230.791 130.16 230.164 132.898C219.129 138.872 201.346 148.447 201.346 148.447C201.094 148.576 201.171 148.747 201.388 148.649C201.502 148.649 218.142 140.171 229.856 134.297C227.861 143.015 226.621 149.053 226.621 149.053C226.613 149.283 226.797 149.296 226.797 149.122C226.85 149.048 228.564 142.963 231.059 133.712C241.529 128.465 251.877 123.565 251.877 123.565H233.796ZM224.42 123.565C229.856 118.18 234.329 113.967 234.329 113.967C234.329 113.967 233.586 117.644 232.231 123.565H224.42L233.359 125.17L244.163 125.328C244.163 125.328 238.733 128.329 231.447 132.271C232.11 129.813 232.701 127.609 233.359 125.17L224.42 123.565Z" fill="white"/>
<path fill-rule="evenodd" clip-rule="evenodd" d="M6.71443 128.904H9.90464L8.65104 134.797H11.5881L11.1268 136.963H5L6.71443 128.904Z" fill="white"/>
<path fill-rule="evenodd" clip-rule="evenodd" d="M22.5886 128.692C19.8109 128.692 18.0577 130.423 17.5257 132.932C16.9917 135.445 18.0073 137.173 20.7871 137.173C23.5655 137.173 25.3175 135.445 25.8505 132.932C26.3835 130.423 25.3691 128.692 22.5886 128.692ZM22.548 132.932C22.151 134.797 21.7232 135.076 21.233 135.076C20.7422 135.076 20.4329 134.797 20.8268 132.932C21.2149 131.115 21.6299 130.791 22.1423 130.791C22.6578 130.791 22.9341 131.115 22.548 132.932Z" fill="white"/>
<path fill-rule="evenodd" clip-rule="evenodd" d="M39.2367 133.983C38.7654 136.204 36.7846 137.173 34.7856 137.173C31.9639 137.173 31.0222 135.457 31.567 132.898C32.0222 130.389 33.8789 128.692 36.6016 128.692C38.632 128.692 40.1753 129.518 39.6845 131.884H36.7593C36.9088 130.97 36.6124 130.791 36.2222 130.791C35.3969 130.791 35.136 131.64 34.8618 132.932C34.6011 134.161 34.4737 135.076 35.2768 135.076C35.6907 135.076 36.0211 134.831 36.2458 133.983H39.2367Z" fill="white"/>
<path fill-rule="evenodd" clip-rule="evenodd" d="M47.2072 128.904H50.3324L49.5974 132.364H49.619L51.9959 128.904H55.367L52.4036 132.698L53.9536 136.963H50.4933L49.4092 133.348H49.3871L48.6212 136.963H45.4943L47.2072 128.904Z" fill="white"/>
<path fill-rule="evenodd" clip-rule="evenodd" d="M65.3814 133.995H64.0222L63.3887 136.963H60.1979L61.9109 128.904H65.1031L64.5237 131.626H65.8861L66.464 128.904H69.6562L67.9438 136.963H64.7516L65.3814 133.995Z" fill="white"/>
<path fill-rule="evenodd" clip-rule="evenodd" d="M76.8377 128.904H82.964L82.5181 131.002H79.4506L79.2675 131.862H82.102L81.6557 133.96H78.8217L78.6294 134.864H81.7985L81.3526 136.963H75.1252L76.8377 128.904Z" fill="white"/>
<path fill-rule="evenodd" clip-rule="evenodd" d="M90.3572 128.904H96.486L96.0402 131.002H92.9701L92.7871 131.862H95.6232L95.1778 133.96H92.3412L92.15 134.864H95.3195L94.8717 136.963H88.6448L90.3572 128.904Z" fill="white"/>
<path fill-rule="evenodd" clip-rule="evenodd" d="M107.663 128.904H103.879L102.167 136.963H106.14C108.616 136.963 110.521 135.457 111.038 133.022C111.546 130.635 110.887 128.904 107.663 128.904ZM107.755 132.932C107.589 133.712 107.403 134.284 107.119 134.618C106.847 134.942 106.505 135.132 105.993 135.132H105.681L106.615 130.735H106.927C107.44 130.735 107.701 130.923 107.834 131.247C107.975 131.581 107.921 132.153 107.755 132.932Z" fill="white"/>
<path fill-rule="evenodd" clip-rule="evenodd" d="M131.918 131.205H131.896L129.534 136.963H126.61L126.694 131.205H126.675L125.448 136.963H122.748L124.461 128.904H128.889L128.754 133.705H128.776L130.677 128.904H135.108L133.396 136.963H130.693L131.918 131.205Z" fill="white"/>
<path fill-rule="evenodd" clip-rule="evenodd" d="M148.002 128.904H143.861L139.571 136.963H142.628L143.229 135.666H145.538L145.576 136.963H148.879L148.002 128.904ZM145.485 133.705H144.127L145.473 130.669H145.498L145.485 133.705Z" fill="white"/>
<path fill-rule="evenodd" clip-rule="evenodd" d="M162.203 128.904H157.439L155.728 136.963H158.85L159.46 134.095H159.828C160.341 134.095 160.493 134.25 160.455 134.653C160.455 135.345 160.341 136.359 160.402 136.963H163.528C163.417 135.747 163.651 134.607 163.623 133.917C163.623 133.302 163.273 132.956 162.507 132.889L162.511 132.865C163.777 132.576 164.317 131.875 164.516 130.946C164.84 129.429 163.933 128.904 162.203 128.904ZM161.351 131.452C161.221 132.053 160.733 132.265 160.117 132.265H159.849L160.175 130.735H160.465C161.089 130.735 161.477 130.857 161.351 131.452Z" fill="white"/>
<path fill-rule="evenodd" clip-rule="evenodd" d="M173.377 131.069H171.391L171.851 128.904H179.016L178.557 131.069H176.569L175.317 136.963H172.125L173.377 131.069Z" fill="white"/>
<path fill-rule="evenodd" clip-rule="evenodd" d="M186.109 128.904H189.302L187.588 136.963H184.396L186.109 128.904Z" fill="white"/>
<path fill-rule="evenodd" clip-rule="evenodd" d="M196.932 128.904H200.756L201.428 133.781H201.452L202.489 128.904H205.076L203.362 136.963H199.538L198.872 132.053H198.851L197.808 136.963H195.217L196.932 128.904Z" fill="white"/>
</svg>
