<svg width="397" height="387" viewBox="0 0 397 387" fill="none" xmlns="http://www.w3.org/2000/svg">
<path fill-rule="evenodd" clip-rule="evenodd" d="M250.524 54.822C247.395 59.297 240.842 65.942 236.258 69.285C234.686 70.432 232.811 71.947 232.091 72.653C230.142 74.562 227.408 74.706 223.733 73.094C222.23 72.434 219.74 71.687 218.2 71.433C216.66 71.179 214.23 70.712 212.8 70.394C209.261 69.608 200.229 69.63 196.6 70.434C195.06 70.775 192.161 71.295 190.158 71.589C188.155 71.884 185.815 72.481 184.958 72.916C184.101 73.351 182.32 73.93 181 74.202C179.68 74.474 178.24 74.949 177.8 75.258C177.36 75.567 176.28 76.013 175.4 76.248C173.536 76.747 166.26 80.699 164.8 82.005C164.25 82.497 162.252 84.056 160.36 85.469C154.414 89.912 144.845 102.008 148.3 100.713C148.685 100.568 150.359 99.517 152.021 98.378C156.05 95.613 159.886 93.303 161.6 92.609C162.37 92.297 163.54 91.718 164.2 91.322C164.86 90.927 165.777 90.602 166.239 90.601C166.7 90.601 167.484 90.248 167.98 89.817C168.476 89.387 169.539 88.823 170.341 88.563C171.143 88.303 172.637 87.672 173.66 87.159C174.682 86.647 176.781 85.964 178.323 85.643C179.865 85.321 181.71 84.757 182.423 84.388C183.192 83.991 185.442 83.57 187.959 83.353C190.292 83.153 192.74 82.815 193.4 82.603C195.949 81.785 202.233 81.407 213 81.424C223.854 81.442 227.085 81.705 231.8 82.956C232.68 83.19 234.269 83.385 235.332 83.39C236.407 83.396 238.357 83.829 239.732 84.368C241.089 84.901 243.28 85.551 244.6 85.814C245.92 86.077 247.72 86.703 248.6 87.207C249.48 87.71 250.763 88.239 251.451 88.382C252.139 88.525 253.299 89.082 254.028 89.621C254.758 90.159 255.629 90.6 255.963 90.6C256.791 90.6 263.038 93.723 263.625 94.43C263.885 94.744 264.371 95 264.704 95C265.038 95 266.088 95.717 267.039 96.594C269.742 99.085 270.908 97.948 269.161 94.524C268.7 93.62 268.165 91.768 267.973 90.409C267.78 89.05 267.262 87.142 266.82 86.169C266.379 85.196 266.014 83.839 266.009 83.154C266.004 82.469 265.617 81.422 265.15 80.827C264.682 80.233 264.085 79.083 263.823 78.273C263.026 75.813 258.087 65.361 254.061 57.618C252.094 53.834 251.527 53.386 250.524 54.822ZM226.641 121.535C225.647 122.56 222.8 128.109 222.8 129.022C222.8 129.413 222.462 130.522 222.049 131.486C221.635 132.45 221.164 134.58 221.001 136.22C220.837 137.859 220.367 140.057 219.956 141.105C219.544 142.153 219.038 144.5 218.831 146.321C218.624 148.141 218.083 150.575 217.628 151.73C217.172 152.885 216.794 154.498 216.786 155.315C216.77 156.948 216.054 160.193 215.083 163.029C214.739 164.035 214.256 166.328 214.01 168.125C213.764 169.921 213.277 172.068 212.928 172.895C212.578 173.723 212.14 175.873 211.954 177.674C211.769 179.474 211.253 181.904 210.809 183.072C210.365 184.241 209.897 186.367 209.769 187.798C209.64 189.229 209.192 191.3 208.773 192.4C208.354 193.5 207.839 195.93 207.629 197.8C207.419 199.67 206.959 202.01 206.606 203C206.253 203.99 205.784 206.15 205.562 207.8C205.341 209.45 204.802 211.97 204.363 213.4C203.925 214.83 203.323 217.53 203.026 219.4C202.729 221.27 202.188 223.592 201.824 224.56C201.46 225.528 200.982 227.759 200.761 229.518C200.541 231.277 200.087 233.245 199.752 233.892C199.418 234.539 198.981 236.628 198.782 238.534C198.582 240.44 198.055 243.031 197.609 244.29C197.164 245.55 196.796 247.26 196.792 248.09C196.782 249.875 195.932 253.749 195.057 256C194.715 256.88 194.427 258.534 194.418 259.676C194.408 260.824 193.963 262.971 193.424 264.476C192.887 265.974 192.235 268.46 191.975 270C191.715 271.54 191.075 273.83 190.552 275.088C190.028 276.346 189.6 277.822 189.6 278.367C189.6 278.912 189.15 280.204 188.6 281.238C188.05 282.273 187.6 283.464 187.6 283.886C187.6 284.308 187.409 285.01 187.175 285.447C186.941 285.884 186.806 286.528 186.875 286.878C187.016 287.595 190 284.802 190 283.952C190 283.693 190.54 282.455 191.2 281.2C191.86 279.945 192.4 278.572 192.4 278.147C192.4 277.723 192.826 276.346 193.347 275.088C193.867 273.83 194.399 271.603 194.528 270.141C194.657 268.678 195.209 265.888 195.755 263.941C196.3 261.993 196.871 259.41 197.022 258.2C197.173 256.99 197.621 255.174 198.017 254.165C198.413 253.155 198.954 250.815 199.218 248.965C199.482 247.114 199.966 244.97 200.292 244.2C200.618 243.43 201.034 241.394 201.218 239.676C201.401 237.958 201.907 235.438 202.343 234.076C202.778 232.714 203.254 230.261 203.399 228.625C203.544 226.989 204.071 224.559 204.57 223.225C205.069 221.891 205.584 219.501 205.714 217.913C205.845 216.325 206.328 214.174 206.788 213.133C207.249 212.092 207.802 209.972 208.017 208.42C208.233 206.869 208.84 204.16 209.366 202.4C209.893 200.64 210.42 198.03 210.539 196.6C210.657 195.17 211.026 193.35 211.359 192.557C211.691 191.763 212.151 189.603 212.381 187.757C212.611 185.91 213.158 183.457 213.596 182.304C214.035 181.151 214.511 178.901 214.654 177.304C214.796 175.707 215.241 173.556 215.641 172.525C216.041 171.493 216.556 169.153 216.785 167.325C217.015 165.496 217.551 162.92 217.977 161.6C218.403 160.28 218.945 157.888 219.182 156.284C219.419 154.68 219.968 152.339 220.404 151.081C220.839 149.823 221.377 147.446 221.599 145.797C221.821 144.149 222.356 141.81 222.788 140.6C223.22 139.39 223.58 137.478 223.587 136.351C223.594 135.224 223.943 133.514 224.362 132.551C224.781 131.588 225.337 129.72 225.599 128.4C225.86 127.08 226.297 125.64 226.57 125.2C228.115 122.714 228.169 119.962 226.641 121.535ZM188.058 128.379C175.368 136.761 158.729 153.656 154.157 162.8C153.828 163.46 152.953 164.99 152.214 166.2C149.688 170.336 146.313 176.398 144.531 180C143.552 181.98 142.402 184.266 141.975 185.079C141.549 185.893 141.199 186.793 141.198 187.079C141.198 187.366 140.658 188.68 140 190C139.342 191.32 138.802 192.671 138.802 193.003C138.801 193.335 138.375 194.415 137.855 195.403C137.334 196.391 136.678 197.92 136.396 198.8C136.114 199.68 135.56 200.816 135.165 201.325C134.769 201.834 134.24 202.872 133.99 203.632C133.658 204.635 133.078 205.247 131.867 205.866C126.241 208.743 124.737 209.562 122.4 211.025C120.97 211.92 119.17 213.147 118.4 213.753C117.63 214.359 115.92 215.584 114.6 216.475C111.863 218.324 108.613 221.347 108.974 221.708C109.108 221.841 111.418 221.991 114.108 222.04C125.094 222.243 131.043 224.84 128.94 228.516C128.467 229.343 127.951 231.095 127.792 232.41C127.634 233.724 127.089 236.06 126.582 237.6C126.074 239.14 125.538 241.473 125.39 242.785C125.242 244.097 124.77 246.061 124.341 247.149C123.913 248.237 123.385 250.536 123.169 252.258C122.953 253.98 122.435 256.184 122.018 257.157C121.601 258.13 121.138 259.737 120.99 260.728C120.683 262.774 119.267 264.167 115.662 265.969C107.787 269.906 100.99 274.354 96.9 278.247C93.54 281.444 93.671 282.177 97.428 281.215C102.088 280.021 112.985 280.623 115.194 282.196C116.986 283.472 117.181 288.827 115.546 291.897C115.342 292.28 114.897 294.866 114.556 297.644C114.215 300.422 113.582 303.798 113.149 305.147C112.715 306.496 112.118 309.317 111.821 311.415C111.524 313.514 110.993 315.921 110.641 316.764C110.288 317.608 110 319.19 110 320.282C110 321.373 109.566 323.556 109.037 325.133C108.507 326.71 107.951 328.9 107.802 330C107.198 334.46 104.746 337.298 101.044 337.822C99.592 338.028 97.743 338.551 96.935 338.984C96.127 339.417 94.641 339.89 93.633 340.034C92.625 340.179 91.53 340.529 91.2 340.812C90.87 341.094 89.79 341.539 88.8 341.8C87.81 342.061 86.668 342.573 86.263 342.937C85.486 343.636 82.761 345.148 79.362 346.765C73.895 349.367 62.838 357.291 63.402 358.203C63.795 358.839 269.949 358.73 271.071 358.094C271.888 357.63 281.173 346.276 282.684 343.893C283.065 343.292 285.012 340.82 287.012 338.4C289.011 335.98 291.079 333.37 291.607 332.6C292.136 331.83 293.565 330.008 294.784 328.552C296.003 327.095 298.53 323.977 300.4 321.623C302.27 319.268 304.565 316.421 305.5 315.295C308.515 311.665 307.623 310.915 302.953 313.154C301.399 313.898 299.154 314.64 297.964 314.801C296.774 314.963 295.17 315.412 294.4 315.8C293.63 316.188 292.01 316.637 290.8 316.799C289.59 316.961 288.06 317.373 287.4 317.713C286.74 318.054 285.068 318.571 283.684 318.863C282.301 319.155 280.411 319.736 279.484 320.154C278.558 320.572 276.72 321.124 275.4 321.38C274.08 321.637 272.147 322.2 271.104 322.632C270.062 323.065 267.902 323.59 266.304 323.799C264.707 324.008 262.32 324.63 261 325.18C259.615 325.758 257.8 326.185 256.709 326.191C255.669 326.196 253.599 326.659 252.109 327.22C250.569 327.8 247.847 328.397 245.8 328.604C243.82 328.805 241.094 329.325 239.742 329.76C238.391 330.195 235.691 330.676 233.742 330.829C231.794 330.982 229.685 331.368 229.055 331.687C228.425 332.006 226.175 332.45 224.055 332.672C221.935 332.894 218.451 333.516 216.314 334.052C214.176 334.589 210.216 335.201 207.514 335.413C201.466 335.886 197.416 336.411 195.681 336.948C194.956 337.172 189.196 337.553 182.881 337.794C176.566 338.036 168.52 338.405 165 338.615C145.905 339.753 144.432 339.248 146.567 332.293C147.089 330.592 147.616 328.255 147.739 327.1C147.862 325.946 148.321 324.189 148.76 323.196C149.199 322.204 149.741 320.089 149.965 318.496C150.188 316.903 150.828 314.298 151.386 312.708C151.944 311.117 152.4 309.039 152.4 308.09C152.4 307.142 152.836 304.843 153.369 302.983C153.901 301.122 154.523 298.039 154.75 296.131C154.978 294.223 155.456 291.973 155.813 291.131C156.17 290.289 156.621 287.959 156.816 285.954C157.01 283.948 157.515 281.428 157.938 280.354C158.361 279.279 158.908 276.546 159.154 274.279C159.4 272.012 159.847 269.672 160.148 269.079C160.448 268.486 160.909 266.2 161.171 264C161.433 261.8 161.982 259.006 162.391 257.791C162.801 256.577 163.331 253.831 163.57 251.691C163.808 249.55 164.366 246.854 164.809 245.7C165.252 244.545 165.785 242.07 165.994 240.2C166.203 238.33 166.74 235.659 167.187 234.264C167.634 232.87 168 230.783 168 229.626C168 228.47 168.359 226.461 168.797 225.162C169.236 223.863 169.704 221.45 169.838 219.8C169.971 218.15 170.5 215.27 171.012 213.4C171.524 211.53 172.136 208.356 172.372 206.348C172.609 204.339 173.081 201.909 173.422 200.948C173.763 199.986 174.297 197.394 174.608 195.187C174.92 192.979 175.439 190.423 175.762 189.507C176.086 188.59 176.556 186.346 176.807 184.52C177.058 182.694 177.604 180.12 178.02 178.8C178.437 177.48 178.897 175.14 179.045 173.6C179.192 172.06 179.634 169.971 180.027 168.959C180.42 167.946 180.918 165.852 181.132 164.305C181.346 162.758 181.899 160.639 182.361 159.595C182.822 158.552 183.2 157.087 183.2 156.341C183.2 155.594 183.807 153.412 184.55 151.491C185.292 149.571 186.025 147.299 186.179 146.442C186.332 145.584 186.708 144.502 187.013 144.036C187.318 143.571 187.776 142.22 188.03 141.036C188.284 139.851 188.919 137.963 189.442 136.841C189.965 135.718 190.395 134.35 190.398 133.8C190.401 133.25 190.782 132.178 191.245 131.419C192.573 129.24 193.619 125.4 192.884 125.4C192.71 125.4 190.539 126.741 188.058 128.379Z" fill="white"/>
<path fill-rule="evenodd" clip-rule="evenodd" d="M245.442 0.815006C245.089 1.16801 244.8 1.69001 244.8 1.97401C244.8 2.25801 244.27 3.15701 243.623 3.97101C242.975 4.78601 242.545 5.71201 242.667 6.02901C243.037 6.99401 242.404 9.39601 241.556 10.244C241.077 10.723 240.665 11.824 240.526 12.997C240.355 14.441 239.995 15.239 239.147 16.051C238.226 16.933 238 17.495 238 18.901C238 21.11 237.545 21.96 236.024 22.59C234.916 23.049 234.864 23.155 235.38 23.893C236.02 24.807 235.7 26.038 234.392 27.701C233.956 28.255 233.6 29.19 233.6 29.779C233.6 30.857 232.001 32.757 225.922 38.9C223.221 41.63 223.018 41.722 221.912 40.721C221.219 40.093 221.033 40.089 219.456 40.674C217.974 41.223 216.829 41.252 210.718 40.895C205.885 40.614 201.514 40.615 196.743 40.901C190.982 41.245 189.616 41.221 188.72 40.758C187.148 39.946 186.339 40.081 185.08 41.365C183.644 42.828 180.985 43.581 178.44 43.243C176.627 43.003 176.387 43.074 175.27 44.191C174.248 45.213 173.753 45.4 172.065 45.4C170.365 45.4 169.9 45.578 168.936 46.599C168.11 47.474 167.297 47.866 165.926 48.048C164.694 48.211 163.741 48.624 163.155 49.248C162.551 49.89 161.816 50.2 160.894 50.2C159.877 50.2 159.259 50.506 158.475 51.4C157.811 52.156 157.037 52.6 156.381 52.6C155.787 52.6 154.935 53.03 154.4 53.6C153.883 54.15 153.31 54.6 153.127 54.6C152.943 54.6 152.048 55.14 151.137 55.8C150.225 56.46 149.313 57 149.108 57C148.062 57 131.6 73.165 131.6 74.192C131.6 74.387 130.588 75.575 129.351 76.832C128.115 78.088 126.477 80.305 125.713 81.758C124.949 83.211 123.891 84.86 123.362 85.422C122.833 85.984 122.4 86.839 122.4 87.322C122.4 87.805 122.081 88.519 121.69 88.91C121.3 89.3 120.755 90.372 120.48 91.292C120.204 92.212 119.705 93.238 119.371 93.572C119.036 93.907 118.496 95.078 118.17 96.175C117.844 97.272 117.193 98.44 116.723 98.769C116.06 99.233 115.882 99.74 115.933 101.025C115.986 102.394 115.79 102.875 114.799 103.801C113.8 104.735 113.6 105.231 113.6 106.78C113.6 108.784 112.796 110.763 111.83 111.133C111.354 111.316 111.248 112.049 111.315 114.704C111.394 117.819 111.326 118.132 110.308 119.343C109.306 120.535 109.237 120.834 109.463 122.994C109.746 125.707 109.147 128.564 107.955 130.175C106.974 131.503 106.559 134.124 107.086 135.672C107.607 137.201 107.02 147.035 106.225 150.103C104.995 154.852 105.66 156.6 108.699 156.6C109.762 156.6 110.099 156.392 110.426 155.533C110.869 154.366 111.89 153.433 112.745 153.413C113.045 153.406 113.855 152.941 114.545 152.379C118.315 149.313 119.342 148.6 119.989 148.6C120.381 148.6 120.912 148.347 121.169 148.037C121.426 147.727 122.214 147.174 122.918 146.808C123.623 146.441 124.65 145.887 125.2 145.577C125.75 145.266 126.56 145.002 127 144.99C127.448 144.979 128.152 144.412 128.6 143.702C129.531 142.228 133.716 139.606 134.598 139.944C135.221 140.183 135.459 142.2 134.864 142.2C134.68 142.2 134.304 142.695 134.029 143.3C133.754 143.905 132.555 145.269 131.365 146.332C130.174 147.395 129.2 148.582 129.2 148.971C129.2 149.36 128.823 150.11 128.362 150.639C127.901 151.167 127.288 152.05 127 152.6C126.712 153.15 126.018 154.028 125.459 154.55C124.899 155.073 124.328 156.016 124.19 156.646C124.052 157.275 123.777 157.89 123.581 158.012C123.384 158.134 122.868 159.036 122.434 160.017C122 160.997 121.457 161.8 121.227 161.8C120.997 161.8 120.698 162.497 120.562 163.348C120.426 164.2 119.887 165.394 119.365 166.001C118.844 166.608 118.302 167.715 118.162 168.46C118.023 169.205 117.479 170.152 116.954 170.565C116.341 171.047 116 171.729 116 172.473C116 173.177 115.536 174.173 114.816 175.015C114.165 175.777 113.625 176.765 113.616 177.211C113.584 178.836 110.918 181.796 109.479 181.806C108.973 181.809 107.592 182.747 106.223 184.018C104.916 185.231 103.386 186.33 102.823 186.46C102.26 186.591 100.81 187.633 99.6 188.777C98.39 189.921 95.816 191.892 93.879 193.157C91.423 194.76 89.673 196.295 88.093 198.228C86.848 199.753 85.698 201 85.539 201C84.98 201 74.34 212.75 73.617 214.166C73.214 214.955 72.506 215.943 72.043 216.362C71.579 216.781 71.2 217.35 71.2 217.626C71.2 217.903 70.705 218.558 70.1 219.083C68.713 220.287 67.601 221.873 66.429 224.319C65.924 225.375 64.912 226.873 64.18 227.648C63.449 228.424 62.734 229.589 62.592 230.239C62.449 230.888 61.909 231.922 61.392 232.536C60.875 233.151 60.327 234.182 60.173 234.827C60.02 235.472 59.576 236.36 59.186 236.8C58.796 237.24 58.212 238.23 57.889 239C57.566 239.77 56.919 240.833 56.451 241.361C55.983 241.89 55.6 242.807 55.6 243.399C55.6 243.991 55.248 244.795 54.818 245.184C54.381 245.579 53.914 246.699 53.762 247.717C53.589 248.865 53.138 249.867 52.544 250.417C51.848 251.062 51.6 251.722 51.6 252.932C51.6 254.184 51.316 254.896 50.4 255.939C49.429 257.044 49.2 257.666 49.2 259.192C49.2 260.76 49.003 261.263 48.035 262.167L46.87 263.256L49.616 264.735L50.73 263.667C51.376 263.049 52.298 262.6 52.926 262.6C53.582 262.6 54.501 262.128 55.263 261.4C56.162 260.541 56.911 260.2 57.899 260.2C58.917 260.2 59.573 259.885 60.4 259C61.361 257.972 61.811 257.8 63.551 257.8C65.284 257.8 65.679 257.651 66.247 256.784C67.179 255.362 68.096 254.965 70.83 254.798C72.501 254.696 73.532 254.396 74.303 253.788C75.308 252.995 75.701 252.944 79 253.177C80.98 253.317 83.14 253.279 83.8 253.092C85.519 252.605 86.4 252.902 86.4 253.967C86.4 254.859 85.298 256.2 84.565 256.2C82.851 256.2 58 281.938 58 283.713C58 283.92 57.505 284.73 56.9 285.511C56.295 286.293 55.085 287.938 54.212 289.166C53.339 290.395 52.508 291.4 52.366 291.4C52.225 291.4 51.8 292.209 51.422 293.198C51.044 294.187 50.515 295.132 50.246 295.298C49.613 295.689 47.2 300.015 47.2 300.76C47.2 301.075 46.666 301.836 46.013 302.453C45.36 303.069 44.711 304.119 44.571 304.787C44.43 305.454 43.903 306.45 43.398 307C42.893 307.55 42.485 308.487 42.49 309.083C42.496 309.68 42.029 310.726 41.45 311.414C40.842 312.136 40.4 313.152 40.4 313.828C40.4 314.62 40.014 315.338 39.195 316.067C38.163 316.987 38.026 317.333 38.241 318.48C38.462 319.654 38.315 319.986 37.046 321.182C35.284 322.845 35.271 323.052 36.855 324.385C38.347 325.64 39.594 325.575 40.273 324.207C41.023 322.697 41.965 322.2 44.076 322.2C45.134 322.2 46 322.054 46 321.875C46 320.871 47.726 319.8 49.346 319.8C50.658 319.8 51.281 319.565 52 318.8C52.743 318.01 53.332 317.8 54.811 317.8C56.254 317.8 56.931 317.57 57.762 316.8C59.12 315.541 61.246 315.453 62.324 316.611C63.325 317.685 64.322 317.256 64.477 315.685C64.68 313.622 71.55 311.301 72.57 312.951C73.373 314.251 69.297 317.8 67.001 317.8C66.384 317.8 65.765 318.187 65.336 318.841C64.705 319.805 63.469 320.764 60.237 322.8C59.538 323.24 58.327 324.095 57.546 324.7C56.764 325.305 55.896 325.8 55.618 325.8C55.209 325.8 51.601 328.508 50.8 329.416C50.352 329.923 47.67 331.4 47.197 331.4C46.917 331.4 45.656 332.468 44.394 333.774C43.132 335.079 40.952 336.853 39.55 337.714C38.127 338.588 35.143 341.173 32.8 343.56C30.49 345.913 27.43 348.621 26 349.576C23.04 351.554 17.868 356.732 16.203 359.384C15.587 360.366 13.945 362.545 12.553 364.227C9.471 367.953 7.272 371.175 6.958 372.425C6.829 372.938 6.291 373.642 5.762 373.988C5.217 374.345 4.8 375.009 4.8 375.52C4.8 376.454 3.805 378.181 2.97 378.694C2.708 378.856 2.369 379.81 2.219 380.815C2.009 382.216 1.718 382.746 0.972 383.085C0.16 383.456 0 383.814 0 385.264V387L141.9 386.994C253.718 386.989 284.005 386.883 284.768 386.494C285.3 386.222 286.086 385.37 286.515 384.6C287.364 383.074 289.726 380.118 292.108 377.6C294.436 375.139 294.544 374.999 296.587 371.8C297.641 370.15 298.627 368.71 298.779 368.6C299.534 368.053 304.467 362.075 306.116 359.708C307.784 357.314 308.899 355.88 310.208 354.447C313.814 350.499 316.572 347.034 317.383 345.435C317.937 344.34 318.625 343.3 318.91 343.122C319.865 342.53 326.261 334.818 326.924 333.461C327.698 331.875 329.185 330.051 333.061 325.933C334.635 324.261 336.393 321.932 336.969 320.757C337.544 319.582 339.002 317.609 340.21 316.373C341.417 315.136 342.989 313.286 343.702 312.262C344.416 311.238 345.219 310.259 345.487 310.087C345.755 309.915 346.256 309.182 346.599 308.459C346.942 307.735 348.253 305.958 349.512 304.51C354.574 298.685 355.801 297.216 356.681 295.919C357.186 295.174 357.6 294.48 357.6 294.376C357.6 294.024 362.596 288.003 363.357 287.437C363.774 287.128 364.494 286.429 364.957 285.884C365.421 285.339 366.025 284.66 366.3 284.375C366.575 284.09 366.8 283.696 366.8 283.5C366.8 282.783 370.943 277.142 373.051 274.987C375.46 272.525 378 269.125 378 268.363C378 268.09 378.146 267.807 378.324 267.733C378.501 267.66 379.446 266.52 380.423 265.2C381.4 263.88 382.56 262.538 383 262.217C384.574 261.071 386.711 258.71 387.001 257.798C387.715 255.547 392.918 249.251 395.5 247.514C397.279 246.317 396.029 243.814 394 244.511C393.67 244.625 392.95 245.128 392.4 245.63C391.85 246.132 390.86 246.673 390.2 246.832C389.54 246.99 388.409 247.633 387.686 248.26C386.889 248.952 385.914 249.4 385.207 249.4C384.518 249.4 383.6 249.809 382.962 250.4C382.244 251.066 381.421 251.4 380.499 251.4C379.607 251.4 378.694 251.755 377.927 252.4C377.227 252.989 376.236 253.4 375.518 253.4C374.678 253.4 373.8 253.849 372.705 254.839C371.391 256.025 370.872 256.249 369.743 256.117C368.574 255.981 368.228 256.15 367.367 257.279C366.566 258.329 366.073 258.6 364.963 258.6C364.171 258.6 363.074 258.965 362.426 259.444C361.799 259.908 360.422 260.449 359.366 260.646C358.31 260.843 357.049 261.378 356.563 261.835C355.878 262.479 355.257 262.639 353.802 262.55C352.274 262.456 351.848 262.58 351.513 263.217C350.809 264.554 349.917 265 347.951 265C346.3 265 345.944 265.156 345.2 266.2C344.491 267.196 344.069 267.4 342.721 267.4C341.427 267.4 340.782 267.684 339.547 268.8C338.297 269.93 337.675 270.2 336.325 270.2C335.15 270.2 334.372 270.463 333.713 271.082C332.994 271.757 332.27 271.969 330.62 271.986C328.762 272.005 328.347 272.159 327.604 273.104C326.844 274.07 326.471 274.2 324.46 274.2C322.425 274.2 322.064 274.33 321.125 275.4C320.234 276.415 319.781 276.6 318.185 276.6C316.585 276.6 316.058 276.816 314.728 278.017C313.379 279.236 312.915 279.422 311.415 279.344C309.956 279.269 309.435 279.462 308.222 280.527C306.994 281.605 306.457 281.8 304.712 281.8C303.127 281.8 302.43 282.007 301.691 282.7C300.877 283.463 300.341 283.587 298.179 283.517C295.832 283.441 295.532 283.53 294.444 284.617C293.367 285.694 293.02 285.8 290.56 285.8C288.014 285.8 287.797 285.873 286.798 287.07C285.793 288.274 285.597 288.339 283.079 288.3C280.561 288.262 280.347 288.333 279.05 289.63C277.774 290.906 277.503 291 275.11 291C272.885 291 272.413 291.135 271.6 292C270.569 293.097 267.514 293.41 265.96 292.578C265.3 292.225 264.866 292.427 263.286 293.824L261.4 295.492L258.121 295.291C254.967 295.099 254.794 295.134 253.593 296.206C252.152 297.493 250.241 297.96 248.1 297.548C245.876 297.12 245.196 297.255 244.043 298.354C242.053 300.252 237.995 300.839 235.561 299.58C234.41 298.984 232.878 299.808 232.813 301.057C232.767 301.941 229.264 302.619 225.06 302.558C220.841 302.496 220.509 302.55 219.041 303.546C214.868 306.378 210.882 303.414 213.984 299.785C214.635 299.023 215.175 297.94 215.184 297.378C215.193 296.815 215.65 295.745 216.2 295C216.75 294.255 217.2 293.256 217.2 292.782C217.2 291.302 217.975 289.609 219.008 288.833C219.86 288.193 220 287.768 220 285.814C220 283.938 220.166 283.383 220.949 282.648C221.733 281.912 221.93 281.25 222.085 278.843C222.232 276.549 222.456 275.744 223.136 275.064C223.843 274.357 224 273.731 224 271.619C224 268.572 224.433 267.452 226.024 266.387C227.381 265.477 227.427 265.185 226.557 263.008C225.798 261.111 226.024 259.822 227.491 257.683C228.381 256.386 228.519 255.796 228.44 253.614C228.345 251.001 229.044 248.897 230.317 247.964C230.765 247.636 230.894 246.778 230.841 244.487C230.758 240.912 231.47 238.824 233.011 238.122C233.885 237.724 234.016 237.47 233.787 236.621C232.761 232.832 233.278 228.614 234.874 227.761C235.568 227.389 235.613 227.046 235.367 224.015C234.993 219.411 235.311 218.061 237.084 216.709C238.075 215.953 238.587 215.761 238.701 216.104C238.793 216.379 239.033 216.503 239.234 216.379C239.435 216.255 239.6 216.444 239.6 216.8C239.6 217.156 239.78 217.336 240 217.2C241.001 216.581 240.43 215.134 239.252 215.307C237.009 215.636 236.4 210.581 238.272 207.16C239.191 205.481 239.378 204.56 239.58 200.732C239.805 196.457 239.871 196.194 241.103 194.66L242.391 193.058L242.2 183.739L244.752 181.454L244.324 178.872C243.783 175.606 244.195 172.223 245.34 170.523C246.816 168.333 248.38 168.616 248.394 171.076C248.406 173.235 249.133 172.536 249.264 170.239C249.339 168.938 249.263 167.959 249.096 168.063C246.335 169.78 245.16 158.791 247.865 156.546C248.254 156.223 248.4 154.866 248.4 151.565C248.4 147.094 248.418 147.008 249.6 145.661C250.65 144.465 250.8 143.993 250.8 141.876C250.8 139.055 251.863 137.8 254.254 137.8C254.994 137.8 255.6 137.605 255.6 137.367C255.6 137.128 255.375 137.014 255.1 137.113C253.015 137.86 252.512 134.621 254.4 132.6C255.06 131.893 255.606 130.929 255.613 130.458C255.662 127.326 259.384 125.183 261.058 127.322C261.569 127.976 262.444 128.625 263.002 128.765C264.102 129.041 264.524 129.375 268.336 132.993C269.731 134.317 271.096 135.4 271.37 135.4C272.236 135.4 275.679 138.272 279.162 141.899C281.011 143.825 282.642 145.4 282.788 145.4C283.177 145.4 291.465 153.645 293.862 156.416C296.2 159.12 297.314 159.164 297.494 156.56C297.78 152.443 298.526 149.823 299.659 148.955C300.624 148.215 300.705 148.018 300.199 147.642C299.225 146.919 299.265 100.833 300.241 99.755C300.815 99.121 300.828 99 300.324 99C298.636 99 297.4 94.941 297.664 90.267C297.856 86.874 298.636 85.655 300.051 86.539C300.884 87.059 300.887 87.043 300.604 83.731C300.268 79.803 299.6 78.581 299.6 81.896C299.6 84.711 298.366 85.755 296.794 84.272C294.579 82.181 294.962 75.509 297.268 76.015C298.395 76.262 298.4 76.255 298.336 74.332C298.287 72.861 298.233 72.712 298.11 73.708C298.021 74.427 297.78 74.911 297.574 74.784C297.368 74.657 297.2 74.743 297.2 74.976C297.2 75.567 296.543 75.505 294.988 74.768C293.501 74.062 292.8 72.579 292.8 70.14C292.8 69.123 292.523 68.323 291.984 67.784C290.969 66.769 290.4 65.315 290.4 63.736C290.4 63.069 290.055 62.04 289.634 61.448C289.213 60.857 288.738 59.674 288.577 58.82C288.417 57.966 287.862 56.642 287.343 55.878C286.824 55.114 286.4 54.182 286.4 53.808C286.4 52.793 283.962 48.078 283.127 47.477C282.727 47.19 282.4 46.549 282.4 46.052C282.4 45.556 281.841 44.621 281.158 43.975C280.475 43.329 279.321 41.54 278.594 40C277.867 38.46 276.806 36.764 276.236 36.23C275.666 35.697 275.2 35.102 275.2 34.909C275.2 34.716 274.75 33.895 274.2 33.086C273.65 32.277 273.2 31.296 273.2 30.907C273.2 30.518 273.054 30.2 272.875 30.2C271.841 30.2 266.903 23.769 266.234 21.551C266.093 21.083 264.338 19.103 262.333 17.151C260.328 15.198 258.308 13.15 257.844 12.6C257.38 12.05 255.56 10.155 253.8 8.39001C251.022 5.60201 248.64 2.95901 247.682 1.60001C246.862 0.436006 246.091 0.166007 245.442 0.815006ZM252.038 34.714C253.199 35.496 254.913 38.076 256.348 41.2C256.55 41.64 257.184 42.436 257.758 42.97C258.331 43.503 258.8 44.059 258.8 44.205C258.8 44.351 259.877 46.344 261.192 48.635C262.508 50.926 263.588 53.056 263.592 53.369C263.597 53.681 263.878 54.244 264.218 54.619C264.844 55.311 266.182 57.652 267.409 60.2C267.779 60.97 268.514 62.437 269.041 63.459C269.569 64.481 270 65.576 270 65.89C270 66.205 270.526 67.259 271.169 68.231C271.812 69.204 272.471 70.531 272.632 71.18C272.794 71.829 273.438 73.332 274.063 74.521C274.689 75.709 275.2 77.137 275.2 77.693C275.2 78.25 275.541 79.267 275.958 79.953C276.374 80.639 276.836 82.01 276.983 83C277.13 83.99 277.595 85.7 278.016 86.8C278.438 87.9 278.948 89.79 279.149 91C279.351 92.21 279.877 94.19 280.32 95.4C280.762 96.61 281.243 99.22 281.389 101.2C281.535 103.18 281.913 106.863 282.227 109.383C283.615 120.488 281.283 122.323 274.61 115.376C273.355 114.069 272.177 113 271.992 113C271.808 113 271.419 112.775 271.129 112.499C270.097 111.522 266.419 109.129 262.427 106.836C261.312 106.196 260.4 105.544 260.4 105.386C260.4 105.228 259.545 104.703 258.5 104.221C257.455 103.738 255.614 102.843 254.41 102.233C253.205 101.622 251.896 101.207 251.5 101.31C250.733 101.511 247.6 104.863 247.6 105.483C247.6 105.687 247.15 106.443 246.6 107.164C246.05 107.886 245.6 108.657 245.6 108.878C245.6 109.099 245.06 110.025 244.4 110.937C243.74 111.848 243.2 112.775 243.2 112.996C243.2 113.218 242.758 114.255 242.218 115.3C240.135 119.328 239.2 121.409 239.2 122.012C239.2 122.357 238.824 123.395 238.364 124.319C237.904 125.244 237.209 127.085 236.818 128.41C236.427 129.736 235.747 131.536 235.305 132.41C234.864 133.285 234.375 135.048 234.219 136.329C234.063 137.609 233.594 139.409 233.176 140.329C232.719 141.336 232.414 142.913 232.409 144.298C232.404 145.563 232.054 147.633 231.632 148.898C231.209 150.164 230.742 152.446 230.593 153.969C230.443 155.492 229.912 158.012 229.411 159.569C228.91 161.126 228.376 163.555 228.223 164.966C228.07 166.377 227.523 168.897 227.006 170.566C226.489 172.235 225.943 174.77 225.792 176.2C225.64 177.63 225.17 179.79 224.747 181C224.323 182.21 223.786 184.548 223.554 186.196C223.321 187.843 222.877 189.798 222.567 190.54C222.258 191.281 221.744 193.623 221.426 195.744C221.107 197.865 220.582 200.233 220.257 201.007C219.932 201.781 219.539 203.761 219.383 205.407C219.227 207.053 218.691 209.75 218.192 211.4C217.692 213.05 217.181 215.62 217.056 217.111C216.931 218.601 216.464 220.645 216.018 221.652C215.573 222.659 214.933 225.191 214.598 227.278C214.262 229.365 213.654 231.821 213.246 232.736C212.839 233.651 212.389 235.715 212.248 237.321C212.106 238.928 211.543 241.524 210.995 243.091C210.448 244.658 210 246.713 210 247.657C210 248.602 209.55 250.754 209 252.439C208.45 254.124 208 256.378 208 257.449C208 258.521 207.644 260.433 207.208 261.698C206.773 262.964 206.229 265.35 206 267C205.771 268.65 205.211 271.35 204.756 273C204.301 274.65 203.779 277.033 203.596 278.294C203.412 279.556 202.912 281.086 202.484 281.694C202.055 282.303 201.568 283.25 201.4 283.8C200.347 287.251 194.612 295.912 192 297.997C191.45 298.435 189.632 300.068 187.96 301.625C185.157 304.235 181.526 306.709 179.277 307.541C178.77 307.728 177.923 308.313 177.395 308.841C176.868 309.368 176.183 309.8 175.873 309.8C175.563 309.8 174.625 310.344 173.789 311.009C172.952 311.674 171.802 312.326 171.234 312.458C170.665 312.59 169.39 313.195 168.4 313.804C167.41 314.413 165.75 315.031 164.711 315.178C162.61 315.476 161.2 316.796 161.2 318.466C161.2 318.993 160.755 320.482 160.211 321.775C158.898 324.894 158.503 327.366 159.242 327.835C159.996 328.312 166.932 328.294 169.627 327.808C172.412 327.305 179.574 326.683 188.2 326.196C195.365 325.791 199.689 325.258 203 324.371C204.1 324.076 207.7 323.662 211 323.451C214.785 323.209 217.548 322.834 218.486 322.434C219.303 322.086 222.183 321.602 224.886 321.358C227.589 321.115 230.43 320.667 231.2 320.364C233.266 319.549 235.951 319.021 238.085 319.01C239.122 319.004 240.832 318.662 241.885 318.248C242.938 317.835 245.15 317.363 246.8 317.2C248.661 317.017 250.514 316.544 251.68 315.956C252.714 315.434 255.187 314.726 257.175 314.383C259.164 314.04 261.614 313.395 262.62 312.95C263.626 312.505 265.841 312.001 267.541 311.829C269.242 311.658 271.056 311.291 271.574 311.014C272.091 310.737 273.768 310.353 275.301 310.161C276.834 309.968 278.666 309.453 279.374 309.016C280.081 308.579 281.636 308.015 282.83 307.762C284.023 307.509 285.634 306.981 286.41 306.589C287.185 306.197 288.985 305.654 290.41 305.383C291.834 305.112 293.785 304.541 294.744 304.115C295.704 303.689 297.594 303.106 298.944 302.821C300.295 302.536 302.03 301.937 302.8 301.489C303.57 301.042 305.01 300.547 306 300.39C306.99 300.233 308.458 299.77 309.263 299.363C310.068 298.955 311.508 298.497 312.463 298.345C313.418 298.193 315.28 297.558 316.6 296.934C317.92 296.311 319.36 295.795 319.8 295.788C320.24 295.781 321.5 295.332 322.6 294.791C323.7 294.25 324.942 293.806 325.359 293.804C326.05 293.8 329.006 292.522 332.879 290.552C337.723 288.089 338.24 291.258 333.859 296.554C332.473 298.229 330.785 300.41 330.108 301.4C329.431 302.39 328.216 303.83 327.41 304.6C326.603 305.37 325.214 307.065 324.322 308.368C323.431 309.67 321.414 312.28 319.841 314.168C317.029 317.543 315.526 319.44 311.579 324.6C310.485 326.03 308.606 328.37 307.404 329.8C306.202 331.23 303.48 334.605 301.355 337.3C299.231 339.995 297.337 342.2 297.146 342.2C296.956 342.2 296.8 342.461 296.8 342.779C296.8 343.098 295.856 344.493 294.702 345.879C292.405 348.639 288.077 354.072 282.8 360.821C278.105 366.825 276.119 369.105 275.085 369.68C274.391 370.066 249.169 370.175 158.154 370.186L42.108 370.2L41.054 369.371C39.836 368.413 39.759 367.827 40.627 366.148C42.221 363.066 55.62 349.652 60.752 346C61.68 345.34 63.085 344.305 63.874 343.7C64.664 343.095 65.441 342.6 65.6 342.6C65.759 342.6 66.59 342.068 67.445 341.417C70.956 338.747 71.908 338.088 74.197 336.746C75.516 335.973 77.136 335.236 77.797 335.109C78.459 334.981 79.509 334.454 80.131 333.938C80.753 333.422 81.672 333 82.175 333C82.677 333 83.754 332.548 84.567 331.997C85.38 331.445 86.857 330.811 87.848 330.589C88.84 330.367 90.045 329.927 90.527 329.611C91.009 329.295 92.573 328.765 94.002 328.433C97.525 327.614 98.792 325.828 98.798 321.667C98.799 320.824 99.232 318.844 99.76 317.267C100.288 315.69 100.82 313.23 100.943 311.8C101.066 310.37 101.624 307.683 102.183 305.83C102.742 303.976 103.208 301.456 103.218 300.23C103.227 299.003 103.509 297.28 103.844 296.4C104.866 293.712 104.884 293.541 104.202 292.86C103.187 291.844 94.768 291.934 90.581 293.005C88.85 293.448 86.166 293.922 84.617 294.058C83.067 294.194 80.77 294.732 79.512 295.253C78.254 295.774 76.814 296.2 76.312 296.2C75.81 296.2 74.41 296.733 73.2 297.384C67.77 300.307 65.939 295.689 70.828 291.4C70.953 291.29 71.794 290.21 72.697 289C73.599 287.79 74.891 286.17 75.568 285.4C76.245 284.63 76.799 283.877 76.799 283.726C76.8 283.575 77.745 282.494 78.9 281.325C80.055 280.155 81.912 278.209 83.028 276.999C86.472 273.264 92.222 267.976 95.282 265.731C99.96 262.298 100.66 261.85 101.788 261.567C102.375 261.42 103.067 260.962 103.324 260.55C103.582 260.137 103.933 259.8 104.105 259.8C104.383 259.8 106.512 258.533 110.518 255.984C111.667 255.253 111.833 254.9 112.12 252.585C112.296 251.164 112.712 249.461 113.045 248.801C113.377 248.14 113.805 246.25 113.996 244.6C114.186 242.95 114.716 240.729 115.172 239.665C116.296 237.044 116.63 234.76 116.002 234.002C115.014 232.812 98.572 233.84 95.8 235.265C94.92 235.717 93.39 236.212 92.4 236.364C91.41 236.516 90.204 236.899 89.721 237.216C88.506 238.011 83.672 239.8 82.74 239.8C80.782 239.8 82.046 235.911 85.146 232.4C86.117 231.3 87.791 229.14 88.865 227.6C92.615 222.225 103.712 210.717 107.4 208.379C108.06 207.961 108.69 207.507 108.8 207.37C108.91 207.233 109.72 206.643 110.6 206.06C112.367 204.888 113.899 203.807 117.2 201.407C118.41 200.527 120.39 199.342 121.6 198.772C124.936 197.203 126.278 195.694 127.254 192.419C127.714 190.875 128.429 189.181 128.844 188.654C129.258 188.127 129.797 186.956 130.04 186.051C130.283 185.147 130.824 183.928 131.241 183.342C131.659 182.756 132 182.043 132 181.757C132 181.28 135.1 174.796 135.996 173.4C136.207 173.07 136.651 172.17 136.982 171.4C138.072 168.86 141.668 162.419 142.564 161.4C143.047 160.85 144.604 158.458 146.022 156.085C147.44 153.711 149.745 150.471 151.144 148.885C152.543 147.298 154.284 145.1 155.014 144C157.745 139.883 171.257 126.78 175.934 123.714C177.18 122.897 179.232 121.367 180.493 120.314C181.754 119.261 183.374 118.128 184.093 117.795C184.812 117.462 185.85 116.895 186.4 116.536C186.95 116.177 187.85 115.75 188.4 115.587C188.95 115.423 189.829 114.955 190.354 114.545C190.879 114.135 191.679 113.8 192.132 113.8C192.585 113.8 193.416 113.369 193.978 112.843C194.962 111.921 197.364 110.799 202.724 108.757C204.112 108.229 205.758 107.532 206.382 107.209C207.006 106.887 208.66 106.369 210.058 106.059C211.456 105.749 213.179 105.257 213.886 104.966C218.022 103.26 218.697 106.332 215.014 110.1C212.371 112.803 208.336 118.478 207.794 120.255C207.635 120.775 207.277 121.47 206.998 121.8C206.516 122.37 205.204 125.344 203.604 129.493C203.203 130.534 202.498 131.995 202.037 132.74C201.577 133.485 201.2 134.361 201.2 134.688C201.2 135.014 200.78 136.073 200.267 137.04C199.753 138.008 199.224 139.481 199.09 140.312C198.956 141.144 198.564 142.39 198.22 143.08C197.876 143.771 197.411 145.479 197.188 146.876C196.965 148.273 196.45 150.267 196.044 151.308C195.639 152.349 195.179 154.1 195.023 155.2C194.868 156.3 194.321 158.1 193.808 159.2C193.295 160.3 192.741 162.1 192.577 163.2C192.413 164.3 191.766 166.405 191.14 167.878C190.513 169.351 190 171.157 190 171.891C190 172.625 189.726 174.21 189.391 175.413C189.056 176.616 188.529 179.58 188.221 182C187.912 184.42 187.36 187.21 186.995 188.2C186.63 189.19 186.089 191.89 185.792 194.2C185.495 196.51 184.972 198.955 184.63 199.633C184.288 200.312 183.831 202.576 183.614 204.666C183.397 206.755 182.856 209.62 182.412 211.032C181.967 212.444 181.498 214.86 181.369 216.4C181.24 217.94 180.718 220.64 180.209 222.4C179.701 224.16 179.098 227.04 178.87 228.8C178.642 230.56 178.087 232.81 177.636 233.8C177.083 235.015 176.815 236.448 176.809 238.213C176.804 239.65 176.515 241.81 176.167 243.013C175.819 244.216 175.364 246.975 175.157 249.144C174.949 251.313 174.406 254.193 173.95 255.544C173.494 256.895 172.971 259.53 172.788 261.4C172.605 263.27 172.074 265.88 171.609 267.2C171.144 268.52 170.505 271.4 170.189 273.6C169.873 275.8 169.276 278.5 168.862 279.6C168.447 280.7 167.994 282.884 167.856 284.453C167.717 286.022 167.261 288.452 166.843 289.853C166.424 291.254 165.985 293.75 165.866 295.4C165.746 297.072 165.197 299.68 164.625 301.292C162.665 306.822 164.854 307.308 167.415 301.911C167.767 301.17 168.943 299.101 170.028 297.315C171.112 295.529 172 293.853 172 293.59C172 293.327 172.428 292.481 172.951 291.71C173.474 290.939 174.13 289.609 174.409 288.754C174.688 287.899 175.23 286.797 175.613 286.303C175.996 285.81 176.43 284.766 176.577 283.984C176.724 283.201 177.284 281.732 177.822 280.72C178.36 279.709 178.806 278.413 178.813 277.84C178.819 277.268 179.268 275.9 179.809 274.8C180.384 273.63 180.794 272.091 180.796 271.092C180.798 270.153 181.223 268.173 181.74 266.692C182.256 265.212 182.81 262.65 182.97 261C183.131 259.35 183.683 256.92 184.198 255.6C184.712 254.28 185.256 252.21 185.405 251C185.554 249.79 186.093 247.54 186.603 246C187.113 244.46 187.653 241.962 187.802 240.448C187.952 238.935 188.483 236.595 188.982 235.248C189.482 233.902 190.003 231.4 190.141 229.688C190.279 227.976 190.692 225.996 191.059 225.288C191.426 224.58 191.876 222.38 192.058 220.4C192.241 218.42 192.731 215.99 193.147 215C193.564 214.01 194.027 211.89 194.177 210.289C194.328 208.688 194.797 206.372 195.22 205.142C195.643 203.912 196.178 201.387 196.409 199.531C196.639 197.674 197.173 195.22 197.594 194.077C198.015 192.935 198.627 190.438 198.955 188.529C199.282 186.619 199.806 184.549 200.119 183.929C200.432 183.308 200.798 181.443 200.932 179.785C201.066 178.127 201.47 175.967 201.83 174.985C202.19 174.003 202.641 171.605 202.833 169.655C203.025 167.705 203.528 165.005 203.951 163.655C204.374 162.305 204.921 159.642 205.166 157.737C205.412 155.832 205.973 153.458 206.414 152.462C206.855 151.465 207.37 149.418 207.559 147.915C207.748 146.411 208.362 144.015 208.923 142.59C209.484 141.166 210.068 138.74 210.22 137.2C210.372 135.66 210.73 133.68 211.015 132.8C211.301 131.92 211.715 129.995 211.937 128.522C212.159 127.05 212.786 125.07 213.331 124.122C213.876 123.175 214.443 121.817 214.592 121.105C214.74 120.392 215.016 119.714 215.205 119.597C215.53 119.396 218.674 114.757 219.443 113.345C221.561 109.455 232.7 100.128 238.116 97.711C240.249 96.758 239.418 95.641 236.35 95.338C234.892 95.194 232.282 94.684 230.55 94.205C223.021 92.124 201.824 92.103 195.687 94.171C194.391 94.607 192.087 95.083 190.566 95.228C189.045 95.373 186.81 95.91 185.6 96.421C184.39 96.932 182.412 97.549 181.205 97.791C179.998 98.034 178.629 98.482 178.164 98.787C177.698 99.092 176.616 99.465 175.758 99.616C174.901 99.766 173.48 100.296 172.6 100.794C171.72 101.291 170.55 101.829 170 101.99C168.926 102.303 165.237 103.945 163.6 104.838C163.05 105.138 161.52 105.936 160.2 106.611C158.88 107.286 156.952 108.324 155.915 108.919C154.878 109.514 152.637 110.777 150.933 111.727C149.23 112.677 147.607 113.784 147.325 114.185C147.044 114.587 145.837 115.467 144.644 116.141C143.45 116.814 141.457 118.194 140.214 119.206C138.97 120.219 137.149 121.557 136.167 122.18C135.184 122.803 133.44 124.29 132.29 125.485C127.882 130.065 124.812 128.947 126.565 123.4C126.878 122.41 127.325 120.539 127.558 119.241C127.791 117.944 128.25 116.586 128.578 116.225C128.905 115.863 129.461 114.326 129.812 112.809C130.164 111.291 130.8 109.561 131.226 108.963C131.652 108.366 132.001 107.544 132.002 107.138C132.004 106.732 132.299 105.86 132.658 105.2C133.018 104.54 133.872 102.947 134.556 101.661C137.017 97.032 137.42 96.326 138.8 94.224C139.57 93.052 140.596 91.446 141.079 90.656C141.563 89.866 142.199 89.035 142.493 88.81C142.787 88.584 144.071 87.05 145.347 85.4C147.827 82.194 155.015 75.358 157 74.318C157.66 73.972 158.77 73.219 159.467 72.645C161.105 71.293 163.943 69.574 165.141 69.208C165.659 69.049 166.719 68.488 167.497 67.96C168.275 67.432 169.239 67 169.638 67C170.038 67 171.028 66.55 171.838 66C172.649 65.45 173.676 65 174.121 65C174.566 65 175.751 64.519 176.755 63.93C177.759 63.342 180.025 62.551 181.79 62.173C183.556 61.795 185.81 61.178 186.8 60.803C187.956 60.365 190.747 59.987 194.6 59.747C197.9 59.541 201.23 59.2 202 58.988C203.802 58.494 206.468 58.494 207.767 58.987C208.327 59.2 211.477 59.542 214.768 59.746C219.878 60.064 221.081 60.27 223.023 61.159C226.893 62.931 230.423 61.484 235.696 55.965C239.457 52.029 242.887 48.007 243.628 46.667C244.074 45.86 244.696 44.75 245.011 44.2C246.479 41.635 247.6 38.581 247.6 37.15C247.6 34.002 249.463 32.979 252.038 34.714Z" fill="white"/>
</svg>
