<svg width="512" height="201" viewBox="0 0 512 201" fill="none" xmlns="http://www.w3.org/2000/svg">
<path d="M86.3198 200.005L172.639 150.052V105.691L86.3198 156.103L37.7699 128.139L47.4356 122.504L86.3198 144.955L120.143 125.314L42.8501 80.3793L0 105.561V150.052L86.3198 200.005Z" fill="#64C438"/>
<path d="M86.3199 0.00535583L0 50.0687V94.319L86.3199 43.9078L134.864 71.8724L125.204 77.5078L86.3199 55.0546L52.4961 74.6968L129.789 119.632L172.639 94.4488V50.0687L86.3199 0.00535583Z" fill="white"/>
<path d="M291.782 61.9433C281.293 61.9433 273.008 65.5859 266.924 72.8615C261.096 79.7544 258.182 88.4596 258.182 98.9902C258.182 109.52 261.096 118.231 266.924 125.119C273.008 132.399 281.293 136.038 291.782 136.038C302.136 136.038 310.55 132.399 317.025 125.119C323.11 118.231 326.153 109.52 326.153 98.9902C326.153 88.4596 323.11 79.7544 317.025 72.8615C310.55 65.5859 302.136 61.9433 291.782 61.9433ZM258.958 65.8442C266.728 54.4047 278.312 48.6819 293.724 48.6819C307.707 48.6819 319.03 53.5586 327.71 63.3107C336.379 72.9337 340.721 84.8218 340.721 98.9902C340.721 113.159 336.379 125.052 327.71 134.67C319.03 144.417 307.378 149.293 292.752 149.293C278.122 149.293 266.857 143.513 258.958 131.94V186.34H244.398V50.2459H258.958V65.8442Z" fill="white"/>
<path d="M371.014 147.733V63.1147H351.204V50.2459H371.014V15.345H385.579V50.2459H407.913V63.1147H385.579V147.733H371.014Z" fill="white"/>
<path d="M469.279 136.036C475.492 136.036 480.997 134.282 485.786 130.769C490.575 127.259 494.069 122.713 496.269 117.121H512C509.025 126.744 503.588 134.478 495.689 140.324C487.399 146.303 477.564 149.297 466.169 149.297C451.929 149.297 440.341 144.421 431.408 134.669C422.733 125.184 418.402 113.291 418.402 98.9886C418.402 84.6908 422.733 72.7982 431.408 63.3089C440.341 53.5622 451.929 48.6863 466.169 48.6863C477.564 48.6863 487.399 51.6792 495.689 57.6543C503.588 63.5005 509.025 71.2393 512 80.8575H496.269C494.069 75.2692 490.575 70.7186 485.786 67.2099C480.997 63.6959 475.492 61.9423 469.279 61.9423C463.066 61.9423 457.79 62.9173 453.449 64.8678C449.111 66.8177 445.453 69.4849 442.479 72.8609C436.132 79.8829 432.966 88.5923 432.966 98.9886C432.966 109.391 436.132 118.096 442.479 125.117C448.947 132.398 457.886 136.036 469.279 136.036Z" fill="white"/>
</svg>
