<svg width="1500" height="500" viewBox="0 0 1500 500" fill="none" xmlns="http://www.w3.org/2000/svg">
<g clip-path="url(#clip0)">
<path d="M283.344 418H236.281V350.781H249.734V404.547H283.344V418ZM336.219 392.453C336.219 396.203 335.547 399.703 334.203 402.953C332.859 406.172 331.031 408.969 328.719 411.344C326.406 413.688 323.688 415.547 320.562 416.922C317.469 418.266 314.141 418.938 310.578 418.938C307.047 418.938 303.719 418.266 300.594 416.922C297.5 415.547 294.781 413.688 292.438 411.344C290.125 408.969 288.297 406.172 286.953 402.953C285.609 399.703 284.938 396.203 284.938 392.453C284.938 388.641 285.609 385.109 286.953 381.859C288.297 378.609 290.125 375.812 292.438 373.469C294.781 371.094 297.5 369.234 300.594 367.891C303.719 366.547 307.047 365.875 310.578 365.875C314.141 365.875 317.469 366.516 320.562 367.797C323.688 369.047 326.406 370.844 328.719 373.188C331.031 375.5 332.859 378.297 334.203 381.578C335.547 384.828 336.219 388.453 336.219 392.453ZM323.328 392.453C323.328 390.391 322.984 388.531 322.297 386.875C321.641 385.188 320.734 383.75 319.578 382.562C318.422 381.344 317.062 380.422 315.5 379.797C313.969 379.141 312.328 378.812 310.578 378.812C308.828 378.812 307.172 379.141 305.609 379.797C304.078 380.422 302.734 381.344 301.578 382.562C300.453 383.75 299.562 385.188 298.906 386.875C298.25 388.531 297.922 390.391 297.922 392.453C297.922 394.391 298.25 396.188 298.906 397.844C299.562 399.5 300.453 400.938 301.578 402.156C302.734 403.375 304.078 404.344 305.609 405.062C307.172 405.75 308.828 406.094 310.578 406.094C312.328 406.094 313.969 405.766 315.5 405.109C317.062 404.453 318.422 403.531 319.578 402.344C320.734 401.156 321.641 399.719 322.297 398.031C322.984 396.344 323.328 394.484 323.328 392.453ZM356.047 418L336.922 367.797H351.5L362.469 399.109L373.391 367.797H388.016L368.891 418H356.047ZM411.359 405.719C411.859 405.875 412.359 405.984 412.859 406.047C413.359 406.078 413.859 406.094 414.359 406.094C415.609 406.094 416.812 405.922 417.969 405.578C419.125 405.234 420.203 404.75 421.203 404.125C422.234 403.469 423.141 402.688 423.922 401.781C424.734 400.844 425.391 399.812 425.891 398.688L435.266 408.109C434.078 409.797 432.703 411.312 431.141 412.656C429.609 414 427.938 415.141 426.125 416.078C424.344 417.016 422.453 417.719 420.453 418.188C418.484 418.688 416.453 418.938 414.359 418.938C410.828 418.938 407.5 418.281 404.375 416.969C401.281 415.656 398.562 413.828 396.219 411.484C393.906 409.141 392.078 406.359 390.734 403.141C389.391 399.891 388.719 396.328 388.719 392.453C388.719 388.484 389.391 384.859 390.734 381.578C392.078 378.297 393.906 375.5 396.219 373.188C398.562 370.875 401.281 369.078 404.375 367.797C407.5 366.516 410.828 365.875 414.359 365.875C416.453 365.875 418.5 366.125 420.5 366.625C422.5 367.125 424.391 367.844 426.172 368.781C427.984 369.719 429.672 370.875 431.234 372.25C432.797 373.594 434.172 375.109 435.359 376.797L411.359 405.719ZM417.922 379.328C417.328 379.109 416.734 378.969 416.141 378.906C415.578 378.844 414.984 378.812 414.359 378.812C412.609 378.812 410.953 379.141 409.391 379.797C407.859 380.422 406.516 381.328 405.359 382.516C404.234 383.703 403.344 385.141 402.688 386.828C402.031 388.484 401.703 390.359 401.703 392.453C401.703 392.922 401.719 393.453 401.75 394.047C401.812 394.641 401.891 395.25 401.984 395.875C402.109 396.469 402.25 397.047 402.406 397.609C402.562 398.172 402.766 398.672 403.016 399.109L417.922 379.328Z" fill="white"/>
<path d="M351 91.5H399V182L350 162.5V117L318 122L320 100L351 91.5Z" fill="black"/>
<path d="M440 204H404H313V229.5H440V204Z" fill="black"/>
<path fill-rule="evenodd" clip-rule="evenodd" d="M516 263.5L475 268L463 278.5L457 298.5L463 319L490 333.5H539H555.5L553.5 350.5L541.5 363.5L539 367L565.5 377L573.5 361L580.5 321.5L571 280L546 261.5L516 263.5ZM516 281L534 290L536 305L532 316.5L527 319.5L506 317L496 302.5L500 289L510 281H516Z" fill="black"/>
<path d="M889.5 263H1014V284.5L993.5 352.5H963L958.5 347.5L975 292.5H889.5V263Z" fill="black"/>
<path d="M1011 91.5H1135V116.5L1116.5 166.5L1093 171.5L1078 184L1093 126.5L1097.5 116.5H1011V91.5Z" fill="black"/>
<path d="M756.063 166.774H713.675V214.963H756.063V166.774Z" fill="#CE0008"/>
<path d="M689.655 63.2736L734.162 21.3706L782.908 63.2736L734.162 107.272L689.655 63.2736Z" fill="#CE0008"/>
<path fill-rule="evenodd" clip-rule="evenodd" d="M801.898 167.193C801.898 167.193 886.674 109.786 736.903 0C736.903 0 604.101 86.5649 667.009 164.704C655.849 118.053 699.318 124.277 721.544 130.226C728.865 132.185 733.881 134.114 733.881 134.114C733.881 134.114 739.183 132.116 746.878 130.12C763.766 125.739 792.18 121.369 801.349 138.164C804.795 144.476 805.523 153.778 801.898 167.193ZM689.655 63.2736L734.162 21.3706L782.908 63.2736L734.162 107.272L689.655 63.2736Z" fill="#CE0008"/>
<path d="M1268.5 418C1301.46 403.302 1317.28 393.225 1311.5 351.776C1305.84 336.451 1298.51 323.108 1288.88 311.5C1273.78 312.453 1268.56 315.578 1264.5 325.299C1277.39 336.481 1281.81 346.298 1276 351.776C1264.86 364.192 1264.76 381.21 1268.5 418Z" fill="#CE0008"/>
<path d="M202 363.509C196.609 394.826 202.27 401.037 233 418C236.493 387.815 239.668 377.285 226 360.157C230.087 352.031 234.541 344.372 239.5 337.209C225.846 340.867 221.063 338.905 219.619 325.5C212.846 337.415 207.221 350.187 202 363.509Z" fill="#CE0008"/>
<path d="M374.502 269.881C360.675 259.639 359.142 254.359 361.5 245.317C320.891 249.357 291.311 259.078 268.959 272.917C273.311 285.122 279.929 288.468 300.025 287.5C320.007 278.752 344.352 272.779 374.502 269.881Z" fill="#CE0008"/>
<path d="M481.259 266.803C496.44 262.418 516.448 262.258 530.983 262.409C533.629 262.556 536.999 262.495 540.5 262.409L551.199 260.274C543.442 253.587 540.762 249.231 538.566 240.524C508.531 244.627 479.82 245.244 444.5 244.227C442.486 254.694 442.802 260.346 454.5 268.76C460.508 269.059 466.673 269.432 473 269.881C475.518 268.675 478.297 267.658 481.259 266.803Z" fill="#CE0008"/>
<path d="M627 272.917L647.892 265.473L669.083 257.922C657.111 252.969 652.433 247.871 647.892 234.448C644.883 235.992 641.887 237.34 639 238.428C638.488 239.022 633.67 241.112 627 243.435C623.83 244.539 620.243 245.696 616.5 246.77C611.229 248.283 605.65 249.631 600.5 250.436C599.868 261.36 600.867 267.361 610.963 277.303L627 272.917Z" fill="#CE0008"/>
<path d="M1025.2 187.125C1019.71 190.575 939.442 217.033 934.555 219.603C928.129 229.378 929.727 233.35 939.5 238.428C939.875 238.322 941.104 237.99 943 237.481C958.371 233.356 1017.58 217.634 1020.83 216.639C1014.62 207.995 1017.2 200.943 1025.2 187.125Z" fill="#CE0008"/>
<path d="M1093.6 171.383C1083.6 177.006 1040.84 235.38 1100.52 216.639C1105.98 214.29 1118.81 207.269 1132.63 199.459C1128.12 185.438 1118.81 179.508 1093.6 171.383Z" fill="#CE0008"/>
<path d="M309.193 178.718C314.823 184.832 321.661 191.745 329.566 199.459C333.08 200.995 336.511 202.541 339.85 204.068C368.912 217.358 391.126 229.295 402.332 222.505C403.586 213.797 403.975 206.276 403.173 199.783C403.036 198.667 402.863 197.581 402.653 196.525C401.887 192.668 400.629 189.205 398.8 186.095C395.157 179.903 389.248 175.113 380.434 171.409C372.837 168.216 363.081 165.83 350.76 164.049V164.26C330.798 163.177 316.352 165.581 309.193 178.718Z" fill="#CE0008"/>
<path d="M1015.34 381.486C983.494 377.218 986.889 369.795 980.893 350.204C974.924 350.498 970.957 349.447 958 353.186C955.845 353.808 945.391 360.246 943 361C939.944 373.315 944.264 378.452 959.457 385.913C983.411 386.508 1009.68 384.838 1015.34 381.486Z" fill="#CE0008"/>
<path d="M1063.77 242.016C1062.14 247.909 1061 252.957 1063.22 262.699C1106.2 264.523 1144.63 271.911 1176.7 281.798C1171.46 269.074 1172.12 263.455 1180.49 256.446C1148.95 249.682 1110.56 245.074 1063.77 242.016Z" fill="#CE0008"/>
<path d="M817.457 223.552C808.12 219.459 801.629 214.052 793.023 204.803C796.138 216.482 800.438 223.095 810.5 230.281C814.906 233.428 820.416 236.684 827.416 240.524C836.315 245.405 858.568 249.89 882.5 253.554C910.833 257.892 941.52 261.078 955.184 262.409C952.297 252.332 952.811 246.927 958 237.773C953.067 237.668 948.067 237.57 943 237.481C941.104 237.99 939.875 238.322 939.5 238.428C903.535 248.654 836.46 231.884 817.457 223.552Z" fill="#CE0008"/>
<path d="M798.257 175.902C795.63 182.853 794.262 194.292 793.023 204.803C801.629 214.052 808.12 219.459 817.457 223.552C812.448 212.087 815.109 208.125 827.416 204.465C817.948 198.405 808.608 188.862 798.257 175.902Z" fill="#CE0008"/>
<path d="M671.372 170.5C664.174 182.548 652.047 191.122 636.341 196.68C647.252 199.041 651.146 207.818 647.678 216.281C664.863 211.908 677.526 206.317 682.747 199.783C681.004 186.868 674.787 175.786 671.372 170.5Z" fill="#CE0008"/>
<path d="M522.293 199.676C482.117 193.135 438.916 180.638 398.8 164.26V186.095C400.629 189.205 401.887 192.668 402.653 196.525L422.466 204.068H441.188V212.449C461.083 219.787 487.814 224.1 516.297 225.87C529.025 224.376 526.763 214.28 522.293 199.676Z" fill="#CE0008"/>
<path d="M1140.23 161.746C1171.3 156.762 1180.52 158.449 1191 164.704C1227.73 138.03 1210.16 126.562 1147.31 144.566C1131.21 154.622 1125.71 159.24 1126.99 164.26C1131.11 163.479 1135.53 162.641 1140.23 161.746Z" fill="#CE0008"/>
<path d="M529.299 367.997C517.541 366.314 504.83 364.474 497.508 363.509C496.015 362.703 494.66 361.511 493.463 360.157C474.403 362.541 466.456 365.766 462.548 378.594C473.02 386.564 488.591 391.842 505.985 393.26C509.924 393.581 515.103 393.429 520.821 392.916C514.361 383.245 514.988 377.797 529.299 367.997Z" fill="#CE0008"/>
<path d="M491.15 332.714C482.025 330.763 468.713 323.649 462.548 318.254C457.049 323.115 451.041 328.095 448.055 332.714C461.431 330.055 475.58 334.697 488.324 341.486C488.987 339.171 489.955 336.369 491.15 332.714Z" fill="#CE0008"/>
<path d="M713.675 166.774V163.274H710.175V166.774H713.675ZM756.063 166.774H759.563V163.274H756.063V166.774ZM756.063 214.963V218.463H759.563V214.963H756.063ZM713.675 214.963H710.175V218.463H713.675V214.963ZM736.903 0L738.973 -2.82283L737.02 -4.25402L734.992 -2.93209L736.903 0ZM827.416 240.524L825.733 243.592L827.416 240.524ZM669.083 167.193L671.85 165.051L671.795 164.979L671.735 164.91L669.083 167.193ZM600.5 250.436L599.959 246.978L599.887 246.99L599.815 247.004L600.5 250.436ZM734.162 21.3706L736.444 18.7164L734.056 16.6636L731.763 18.8223L734.162 21.3706ZM689.655 63.2736L687.256 60.7253L684.614 63.2122L687.194 65.7627L689.655 63.2736ZM734.162 107.272L731.702 109.761L734.053 112.085L736.507 109.87L734.162 107.272ZM782.908 63.2736L785.253 65.8718L788.203 63.2096L785.19 60.6195L782.908 63.2736ZM667.009 164.704L664.283 166.899L670.413 163.889L667.009 164.704ZM733.881 134.114L732.625 137.381L733.869 137.86L735.116 137.39L733.881 134.114ZM724.978 146.661L725.41 150.134L727.547 149.868L728.273 147.842L724.978 146.661ZM743.346 146.661L739.904 147.295L740.395 149.959L743.098 150.152L743.346 146.661ZM746.878 130.12L745.999 126.732L745.999 126.732L746.878 130.12ZM671.372 170.5L674.311 168.6L671.255 163.871L668.367 168.705L671.372 170.5ZM350.76 150.851L354.26 150.851L354.26 150.851L350.76 150.851ZM329.566 199.459L327.122 201.964L327.579 202.41L328.164 202.665L329.566 199.459ZM402.332 222.505L404.146 225.499L405.561 224.641L405.796 223.004L402.332 222.505ZM350.76 164.26L350.571 167.755L354.26 167.955V164.26H350.76ZM350.76 115.652L354.26 115.652L354.26 111.135L349.886 112.263L350.76 115.652ZM318.263 124.033H314.763V128.55L319.137 127.422L318.263 124.033ZM318.263 101.405L317.228 98.0618L314.763 98.8248V101.405H318.263ZM350.76 91.3487V87.8487H350.231L349.725 88.0051L350.76 91.3487ZM398.8 91.3487H402.3V87.8487H398.8V91.3487ZM441.188 204.068H444.688V200.568H441.188V204.068ZM441.188 230.886V234.386H444.688V230.886H441.188ZM312.612 230.886H309.112V234.386H312.612V230.886ZM312.612 204.068V200.568H309.112V204.068H312.612ZM522.293 199.676L525.64 198.652L525.004 196.571L522.856 196.222L522.293 199.676ZM516.297 225.87L516.08 229.363L516.393 229.382L516.705 229.346L516.297 225.87ZM636.341 196.68L635.173 193.381L623.55 197.493L635.601 200.101L636.341 196.68ZM647.678 216.281L644.439 214.954L641.803 221.388L648.541 219.673L647.678 216.281ZM682.747 199.783L686.215 199.315L682.747 199.783ZM402.653 196.525L399.22 197.207L399.22 197.207L402.653 196.525ZM756.063 242.619L754.592 245.795L754.639 245.816L754.687 245.837L756.063 242.619ZM717.914 240.524L719.088 243.821L719.333 243.733L719.562 243.611L717.914 240.524ZM563.5 373.284L562.589 376.664L564.062 377.061L565.355 376.252L563.5 373.284ZM497.508 352.614L500.202 350.379L499.273 349.261L497.826 349.129L497.508 352.614ZM556.144 330.74L555.245 327.358L555.245 327.358L556.144 330.74ZM459.726 284.731L463.083 285.724L463.124 285.583L463.154 285.439L459.726 284.731ZM505.985 393.26L505.701 396.749L505.985 393.26ZM551.199 371.052L550.75 374.523L550.751 374.523L551.199 371.052ZM497.508 363.509L495.845 366.589L496.412 366.895L497.05 366.979L497.508 363.509ZM497.508 333.84L497.011 337.305L497.305 337.347L497.602 337.339L497.508 333.84ZM491.15 332.714L491.881 329.291L491.15 332.714ZM488.324 351.776L485.102 353.145L485.102 353.145L488.324 351.776ZM570.259 376.499L572.876 374.175L570.259 376.499ZM529.299 367.997L529.795 364.533L529.299 367.997ZM520.821 392.916L521.134 396.402L520.821 392.916ZM462.548 378.594L460.429 381.379L462.548 378.594ZM488.324 341.486L491.688 342.45L488.324 341.486ZM639 238.428L637.765 235.154L636.932 235.468L636.35 236.142L639 238.428ZM627 272.917L627.923 276.293L628.051 276.258L628.175 276.214L627 272.917ZM888.346 263.094V259.594H884.846V263.094H888.346ZM1014.1 285.303L1017.44 286.327L1017.6 285.826V285.303H1014.1ZM975.242 292.5L978.608 293.457L979.875 289H975.242V292.5ZM888.346 292.5H884.846V296H888.346V292.5ZM925 367.5L923.791 364.216L925 367.5ZM993.337 353.186L991.234 355.984L994.953 358.78L996.608 354.431L993.337 353.186ZM1007.81 305.848L1004.47 304.825L1004.47 304.825L1007.81 305.848ZM1027.52 331.396L1030.45 329.48L1030.41 329.423L1030.37 329.368L1027.52 331.396ZM980.893 350.204V346.704H980.807L980.721 346.708L980.893 350.204ZM958 353.186L958.97 356.549L958.97 356.549L958 353.186ZM1003.85 318.826L1000.5 317.802L1000.49 317.828L1000.48 317.854L1003.85 318.826ZM1025.2 187.125L1023.93 183.865L1023.62 183.985L1023.34 184.162L1025.2 187.125ZM793.023 204.803L789.547 204.393L789.468 205.058L789.641 205.705L793.023 204.803ZM1020.83 216.639L1021.86 219.986L1021.94 219.96L1022.02 219.93L1020.83 216.639ZM817.457 223.552L816.052 226.758L816.052 226.758L817.457 223.552ZM934.555 219.603L932.925 216.506L932.925 216.506L934.555 219.603ZM939.5 238.428L940.457 241.795L940.457 241.795L939.5 238.428ZM1134.57 91.3487H1138.07V87.8487H1134.57V91.3487ZM1134.57 115.652L1137.88 116.796L1138.07 116.24V115.652H1134.57ZM1098.54 222.505L1098.38 226.001L1101.02 226.126L1101.86 223.624L1098.54 222.505ZM1063.22 220.829L1059.9 219.715L1058.43 224.106L1063.06 224.325L1063.22 220.829ZM1098.54 115.652L1101.86 116.767L1103.41 112.152H1098.54V115.652ZM1010.24 115.652H1006.74V119.152H1010.24V115.652ZM1010.24 91.3487V87.8487H1006.74V91.3487H1010.24ZM1140.23 146.661L1141.25 150.008L1140.23 146.661ZM1180.49 171.803L1182.27 174.818L1182.32 174.789L1182.37 174.759L1180.49 171.803ZM1093.6 171.383L1092.39 168.099L1092.13 168.196L1091.88 168.332L1093.6 171.383ZM1140.23 161.746L1139.67 158.29L1139.62 158.298L1139.57 158.308L1140.23 161.746ZM1147.31 144.566L1146.34 141.201L1146.34 141.201L1147.31 144.566ZM1126.99 164.26L1127.65 167.698L1126.99 164.26ZM462.608 278.078L459.746 276.063L459.746 276.063L462.608 278.078ZM481.259 266.803L482.23 270.165L482.23 270.165L481.259 266.803ZM577.156 255.094L577.84 258.527L577.84 258.527L577.156 255.094ZM647.892 265.473L646.717 262.176L646.717 262.176L647.892 265.473ZM627 243.435L628.151 246.741L628.151 246.741L627 243.435ZM669.083 257.922L670.257 261.219L670.257 261.219L669.083 257.922ZM647.892 234.448L646.295 231.334L646.295 231.334L647.892 234.448ZM610.963 277.303L611.887 280.679L611.887 280.679L610.963 277.303ZM882.5 253.554L883.03 250.094L882.5 253.554ZM623.5 221.182L622.946 217.727L623.5 221.182ZM422.466 243.435L422.612 239.938L422.584 239.937L422.557 239.937L422.466 243.435ZM202 363.509L198.741 362.232L198.611 362.564L198.551 362.915L202 363.509ZM233 418L231.309 421.064L235.877 423.586L236.477 418.402L233 418ZM226 360.157L222.873 358.584L221.866 360.587L223.264 362.34L226 360.157ZM454.5 268.76L454.326 272.256L454.5 268.76ZM444.5 244.227L444.601 240.728L444.5 244.227ZM374.502 269.881L374.837 273.365L374.502 269.881ZM300.025 287.5L301.428 290.706L300.025 287.5ZM268.959 272.917L267.116 269.941L267.116 269.941L268.959 272.917ZM1311.5 351.776L1314.97 351.293L1314.91 350.918L1314.78 350.563L1311.5 351.776ZM1268.5 418L1265.02 418.354L1265.51 423.167L1269.93 421.197L1268.5 418ZM1276 351.776L1273.6 349.229L1273.49 349.329L1273.4 349.438L1276 351.776ZM958 237.773L958.075 234.274L958 237.773ZM1063.77 242.016L1064 238.524L1061.16 238.338L1060.4 241.082L1063.77 242.016ZM1063.22 262.699L1063.07 266.196L1063.22 262.699ZM1180.49 256.446L1181.23 253.024L1181.23 253.024L1180.49 256.446ZM1176.7 281.798L1175.67 285.143L1176.7 281.798ZM1288.88 311.5L1291.57 309.265L1291.57 309.265L1288.88 311.5ZM713.675 170.274H756.063V163.274H713.675V170.274ZM752.563 166.774V214.963H759.563V166.774H752.563ZM756.063 211.463H713.675V218.463H756.063V211.463ZM717.175 214.963V166.774H710.175V214.963H717.175ZM734.834 2.82283C809.393 57.4768 824.387 98.2431 822.078 124.459C820.917 137.648 815.361 147.626 810.058 154.338C807.407 157.694 804.832 160.215 802.935 161.886C801.987 162.72 801.213 163.34 800.686 163.742C800.423 163.944 800.223 164.091 800.094 164.183C800.03 164.229 799.984 164.261 799.957 164.28C799.944 164.29 799.935 164.295 799.931 164.298C799.93 164.299 799.929 164.3 799.93 164.299C799.93 164.299 799.932 164.298 799.932 164.298C799.934 164.297 799.936 164.295 801.898 167.193C803.861 170.091 803.863 170.089 803.866 170.087C803.868 170.086 803.871 170.084 803.874 170.082C803.88 170.078 803.887 170.073 803.895 170.068C803.912 170.056 803.934 170.041 803.961 170.022C804.014 169.985 804.087 169.933 804.179 169.868C804.362 169.736 804.62 169.547 804.941 169.301C805.583 168.809 806.484 168.088 807.562 167.139C809.716 165.241 812.594 162.419 815.55 158.678C821.462 151.196 827.74 139.96 829.051 125.073C831.688 95.1396 814.184 52.3092 738.973 -2.82283L734.834 2.82283ZM736.903 0C734.992 -2.93209 734.991 -2.93116 734.989 -2.92989C734.987 -2.92902 734.985 -2.92741 734.982 -2.92566C734.977 -2.92217 734.969 -2.91733 734.96 -2.91115C734.941 -2.89879 734.914 -2.88106 734.879 -2.85801C734.809 -2.81192 734.707 -2.74454 734.575 -2.65626C734.31 -2.4797 733.923 -2.21948 733.423 -1.8786C732.425 -1.19689 730.977 -0.192295 729.164 1.11125C725.539 3.71774 720.447 7.52284 714.555 12.335C702.787 21.9458 687.748 35.6363 674.822 51.8753C661.923 68.0802 650.93 87.0698 647.614 107.268C644.269 127.649 648.794 148.991 666.43 169.477L671.735 164.91C655.461 146.006 651.509 126.755 654.522 108.402C657.564 89.866 667.765 71.9809 680.299 56.2347C692.805 40.5226 707.438 27.1855 718.983 17.7567C724.747 13.049 729.723 9.33115 733.251 6.79469C735.014 5.52676 736.415 4.55487 737.37 3.90297C737.847 3.57703 738.213 3.33116 738.458 3.16833C738.58 3.08692 738.671 3.02628 738.731 2.98678C738.761 2.96703 738.783 2.95257 738.797 2.94344C738.804 2.93887 738.809 2.93564 738.812 2.93375C738.813 2.9328 738.814 2.93239 738.815 2.93191C738.815 2.93183 738.815 2.93209 736.903 0ZM731.763 18.8223L687.256 60.7253L692.054 65.8219L736.561 23.9189L731.763 18.8223ZM687.194 65.7627L731.702 109.761L736.623 104.783L692.116 60.7846L687.194 65.7627ZM736.507 109.87L785.253 65.8718L780.563 60.6754L731.817 104.674L736.507 109.87ZM785.19 60.6195L736.444 18.7164L731.881 24.0247L780.627 65.9278L785.19 60.6195ZM737.662 107.272V64.3212H730.662V107.272H737.662ZM737.662 64.3212V21.3706H730.662V64.3212H737.662ZM734.237 67.8204L782.984 66.7728L782.833 59.7744L734.087 60.822L734.237 67.8204ZM689.573 66.7726L734.08 67.8202L734.245 60.8222L689.737 59.7746L689.573 66.7726ZM724.546 143.187C713.689 144.537 705.417 144.844 697.214 143.781C689.008 142.717 680.686 140.26 669.766 135.871L667.156 142.366C678.368 146.872 687.299 149.554 696.315 150.723C705.334 151.891 714.255 151.521 725.41 150.134L724.546 143.187ZM743.346 146.661C746.788 146.027 746.789 146.028 746.789 146.028C746.789 146.029 746.789 146.029 746.789 146.03C746.789 146.031 746.789 146.032 746.789 146.032C746.79 146.033 746.79 146.034 746.79 146.033C746.789 146.033 746.789 146.03 746.788 146.024C746.786 146.013 746.782 145.991 746.777 145.959C746.766 145.896 746.75 145.793 746.73 145.655C746.69 145.38 746.637 144.967 746.587 144.451C746.488 143.411 746.411 141.992 746.488 140.452C746.654 137.158 747.48 134.269 749.204 132.735L744.551 127.505C740.624 131 739.684 136.381 739.497 140.1C739.398 142.067 739.497 143.84 739.619 145.116C739.68 145.758 739.748 146.283 739.802 146.657C739.829 146.844 739.853 146.994 739.871 147.101C739.88 147.155 739.887 147.199 739.893 147.231C739.896 147.247 739.898 147.261 739.9 147.271C739.901 147.277 739.902 147.281 739.902 147.285C739.903 147.287 739.903 147.289 739.903 147.29C739.904 147.291 739.904 147.292 739.904 147.293C739.904 147.294 739.904 147.295 743.346 146.661ZM668.367 168.705C660.901 181.203 647.537 189.943 629.48 195.213C611.424 200.482 588.991 202.179 563.968 200.81C513.934 198.072 454.248 183.117 400.123 161.02L397.477 167.5C452.147 189.82 512.604 205.01 563.585 207.799C589.07 209.194 612.362 207.501 631.441 201.933C650.519 196.365 665.699 186.821 674.376 172.295L668.367 168.705ZM404.432 196.517C404.153 196.41 403.873 196.302 403.593 196.194L401.072 202.724C401.353 202.832 401.634 202.941 401.915 203.049L404.432 196.517ZM399.7 200.212C400.448 206.27 400.1 213.446 398.868 222.007L405.796 223.004C407.072 214.147 407.502 206.282 406.647 199.354L399.7 200.212ZM349.886 112.263L317.389 120.644L319.137 127.422L351.634 119.042L349.886 112.263ZM321.763 124.033V101.405H314.763V124.033H321.763ZM319.298 104.749L351.795 94.6922L349.725 88.0051L317.228 98.0618L319.298 104.749ZM350.76 94.8487H398.8V87.8487H350.76V94.8487ZM441.188 227.386H312.612V234.386H441.188V227.386ZM316.112 230.886V204.068H309.112V230.886H316.112ZM316.237 147.807C325.029 151.387 332.06 154.568 336.847 157.508C339.245 158.981 340.899 160.286 341.912 161.413C342.931 162.546 343.026 163.182 343.022 163.409L350.021 163.536C350.069 160.856 348.77 158.57 347.118 156.733C345.46 154.89 343.167 153.175 340.51 151.543C335.189 148.275 327.686 144.91 318.876 141.324L316.237 147.807ZM518.947 200.7C520.062 204.346 521.001 207.587 521.608 210.447C522.221 213.333 522.441 215.596 522.263 217.331C522.092 218.991 521.583 219.963 520.865 220.622C520.09 221.334 518.647 222.07 515.889 222.393L516.705 229.346C520.311 228.923 523.358 227.836 525.599 225.779C527.897 223.669 528.93 220.924 529.226 218.048C529.514 215.247 529.127 212.154 528.456 208.993C527.779 205.806 526.759 202.308 525.64 198.652L518.947 200.7ZM635.601 200.101C640.245 201.106 642.984 203.363 644.318 205.847C645.66 208.348 645.835 211.55 644.439 214.954L650.917 217.608C652.99 212.549 652.951 207.131 650.485 202.537C648.011 197.927 643.347 194.615 637.081 193.259L635.601 200.101ZM669.083 167.193C666.315 169.336 666.315 169.335 666.314 169.335C666.314 169.335 666.314 169.334 666.314 169.334C666.313 169.333 666.313 169.333 666.313 169.333C666.313 169.333 666.314 169.334 666.315 169.335C666.317 169.339 666.323 169.346 666.331 169.356C666.346 169.376 666.372 169.411 666.408 169.458C666.479 169.553 666.588 169.701 666.732 169.9C667.019 170.298 667.441 170.897 667.959 171.677C668.996 173.239 670.413 175.515 671.905 178.338C674.903 184.012 678.131 191.753 679.278 200.251L686.215 199.315C684.92 189.719 681.316 181.165 678.093 175.067C676.475 172.005 674.933 169.527 673.79 167.805C673.218 166.943 672.744 166.269 672.408 165.803C672.239 165.57 672.106 165.389 672.011 165.263C671.964 165.2 671.927 165.15 671.899 165.115C671.886 165.097 671.875 165.083 671.867 165.072C671.863 165.067 671.859 165.062 671.857 165.059C671.855 165.057 671.854 165.055 671.853 165.054C671.852 165.053 671.852 165.053 671.851 165.052C671.851 165.051 671.85 165.051 669.083 167.193ZM437.688 204.068V212.449H444.688V204.068H437.688ZM437.688 212.449V230.886H444.688V212.449H437.688ZM403.745 207.568H422.466V200.568H403.745V207.568ZM422.466 207.568H441.188V200.568H422.466V207.568ZM399.22 197.207C399.412 198.175 399.572 199.176 399.7 200.212L406.647 199.354C406.499 198.159 406.313 196.988 406.086 195.843L399.22 197.207ZM423.712 200.797L403.898 193.254L401.408 199.796L421.221 207.339L423.712 200.797ZM757.533 239.443C750.48 236.176 744.34 233.27 737.921 232.449C731.247 231.595 724.58 232.996 716.265 237.436L719.562 243.611C726.964 239.658 732.165 238.769 737.032 239.392C742.155 240.048 747.231 242.386 754.592 245.795L757.533 239.443ZM557.043 334.123C557.513 333.998 558.01 333.848 558.445 333.668C558.647 333.584 558.984 333.433 559.331 333.195C559.505 333.076 559.788 332.864 560.069 332.539C560.336 332.23 560.783 331.609 560.914 330.691C561.251 328.321 559.369 327.196 558.984 326.998C558.444 326.719 557.935 326.626 557.724 326.59C557.213 326.505 556.646 326.487 556.144 326.487V333.487C556.55 333.487 556.645 333.507 556.564 333.494C556.53 333.488 556.449 333.473 556.337 333.442C556.236 333.413 556.028 333.349 555.777 333.219C555.493 333.073 553.655 332.007 553.984 329.704C554.11 328.82 554.538 328.233 554.774 327.961C555.023 327.673 555.261 327.499 555.377 327.419C555.507 327.33 555.61 327.275 555.66 327.25C555.715 327.222 555.75 327.207 555.757 327.204C555.769 327.199 555.734 327.214 555.635 327.245C555.541 327.275 555.413 327.313 555.245 327.358L557.043 334.123ZM494.814 354.849C506.606 369.063 523.61 373.503 537.45 368.916C551.497 364.26 561.513 350.572 559.629 330.414L552.66 331.066C554.269 348.286 545.917 358.735 535.248 362.271C524.371 365.876 510.31 362.564 500.202 350.379L494.814 354.849ZM511.424 314.966C505.395 312.765 502.207 309.166 500.813 305.393C499.384 301.527 499.695 297.084 501.426 293.089C503.159 289.088 506.205 285.8 509.876 284.144C513.444 282.533 517.836 282.348 522.736 284.902L525.971 278.694C519.214 275.172 512.568 275.249 506.996 277.763C501.527 280.231 497.331 284.932 495.003 290.306C492.671 295.687 492.099 302.008 494.247 307.819C496.429 313.723 501.277 318.714 509.024 321.541L511.424 314.966ZM522.736 284.902C532.867 290.182 535.495 300.018 533.049 307.23C531.826 310.834 529.359 313.76 525.898 315.317C522.451 316.868 517.633 317.232 511.424 314.966L509.024 321.541C516.591 324.304 523.341 324.144 528.77 321.701C534.184 319.265 537.898 314.726 539.678 309.478C543.237 298.986 539.154 285.566 525.971 278.694L522.736 284.902ZM497.508 333.84C497.602 337.339 497.603 337.339 497.603 337.339C497.603 337.339 497.604 337.339 497.605 337.339C497.607 337.339 497.609 337.339 497.612 337.339C497.619 337.339 497.628 337.338 497.641 337.338C497.667 337.337 497.704 337.336 497.754 337.335C497.854 337.332 498.002 337.328 498.194 337.323C498.58 337.312 499.146 337.296 499.869 337.275C501.313 337.233 503.384 337.171 505.888 337.091C510.895 336.932 517.641 336.703 524.588 336.42C531.53 336.138 538.692 335.802 544.527 335.429C547.442 335.243 550.05 335.047 552.144 334.841C554.145 334.644 555.933 334.418 557.043 334.123L555.245 327.358C554.768 327.484 553.534 327.671 551.46 327.875C549.479 328.069 546.961 328.26 544.081 328.443C538.326 328.811 531.226 329.144 524.303 329.426C517.384 329.707 510.661 329.936 505.666 330.095C503.169 330.174 501.105 330.236 499.665 330.278C498.946 330.299 498.382 330.315 497.999 330.325C497.807 330.331 497.66 330.335 497.562 330.337C497.513 330.339 497.475 330.34 497.45 330.341C497.438 330.341 497.429 330.341 497.422 330.341C497.419 330.341 497.417 330.341 497.415 330.341C497.415 330.342 497.414 330.342 497.414 330.342C497.413 330.342 497.413 330.342 497.508 333.84ZM460.243 320.888C463.617 323.84 468.757 327.118 474.137 329.887C479.516 332.656 485.434 335.071 490.418 336.136L491.881 329.291C487.741 328.406 482.441 326.288 477.341 323.663C472.243 321.039 467.644 318.062 464.853 315.62L460.243 320.888ZM490.418 336.136C492.587 336.6 494.79 336.987 497.011 337.305L498.004 330.376C495.926 330.078 493.88 329.719 491.881 329.291L490.418 336.136ZM497.826 349.129L488.642 348.291L488.006 355.262L497.19 356.1L497.826 349.129ZM572.876 374.175C571.286 372.384 568.732 371.182 565.547 370.228C562.25 369.24 557.731 368.367 551.648 367.58L550.75 374.523C556.677 375.289 560.769 376.103 563.539 376.933C566.422 377.797 567.393 378.542 567.642 378.823L572.876 374.175ZM551.648 367.58C546.582 366.926 538.463 365.774 529.795 364.533L528.803 371.462C537.457 372.701 545.628 373.86 550.75 374.523L551.648 367.58ZM529.795 364.533C518.054 362.852 505.313 361.008 497.965 360.039L497.05 366.979C504.347 367.941 517.027 369.776 528.803 371.462L529.795 364.533ZM505.701 396.749C509.923 397.093 515.326 396.923 521.134 396.402L520.508 389.43C514.88 389.935 509.924 390.07 506.27 389.772L505.701 396.749ZM521.134 396.402C532.899 395.346 546.908 392.796 557.34 389.67C562.492 388.126 567.084 386.353 570.088 384.388C571.532 383.444 573.096 382.151 573.894 380.396C574.329 379.438 574.547 378.313 574.338 377.112C574.133 375.929 573.563 374.948 572.876 374.175L567.642 378.823C567.662 378.846 567.505 378.673 567.441 378.308C567.375 377.925 567.463 377.626 567.521 377.5C567.562 377.408 567.377 377.798 566.258 378.53C564.137 379.916 560.354 381.46 555.331 382.965C545.415 385.936 531.877 388.41 520.508 389.43L521.134 396.402ZM527.321 365.11C520.173 370.004 515.443 374.415 513.918 379.499C512.293 384.92 514.602 389.906 517.911 394.86L523.732 390.972C520.58 386.254 519.972 383.681 520.623 381.51C521.375 379.003 524.114 375.79 531.276 370.885L527.321 365.11ZM499.171 360.429C498.149 359.877 497.106 358.994 496.087 357.84L490.84 362.474C492.213 364.028 493.88 365.528 495.845 366.589L499.171 360.429ZM496.087 357.84C494.006 355.484 492.412 352.448 491.545 350.407L485.102 353.145C486.131 355.567 488.078 359.347 490.84 362.474L496.087 357.84ZM460.429 381.379C471.576 389.863 487.847 395.293 505.701 396.749L506.27 389.772C489.335 388.391 474.463 383.264 464.668 375.809L460.429 381.379ZM493.029 356.684C483.511 357.874 476.135 359.327 470.62 362.402C464.804 365.643 461.356 370.496 459.2 377.574L465.896 379.614C467.648 373.863 470.128 370.69 474.028 368.516C478.228 366.175 484.355 364.823 493.898 363.63L493.029 356.684ZM491.545 350.407C491.006 349.138 490.813 348.13 490.827 347.055C490.843 345.903 491.097 344.513 491.688 342.45L484.959 340.522C484.308 342.794 483.856 344.885 483.828 346.962C483.799 349.116 484.228 351.086 485.102 353.145L491.545 350.407ZM491.688 342.45C492.328 340.217 493.253 337.547 494.477 333.801L487.823 331.627C486.658 335.192 485.646 338.125 484.959 340.522L491.688 342.45ZM460.23 315.632C457.542 318.008 454.573 320.549 451.951 323.035C449.337 325.514 446.841 328.144 445.116 330.814L450.995 334.614C452.255 332.664 454.256 330.495 456.768 328.114C459.271 325.74 462.055 323.361 464.866 320.876L460.23 315.632ZM445.116 330.814C438.901 340.428 439.197 350.537 442.83 359.438C446.413 368.217 453.248 375.914 460.429 381.379L464.668 375.809C458.192 370.88 452.3 364.116 449.311 356.793C446.371 349.591 446.249 341.956 450.995 334.614L445.116 330.814ZM489.969 338.397C476.983 331.478 461.941 326.386 447.373 329.281L448.737 336.147C460.921 333.725 474.178 337.915 486.678 344.575L489.969 338.397ZM736.903 0C734.992 -2.93209 734.991 -2.93117 734.989 -2.92992C734.987 -2.92907 734.985 -2.92749 734.982 -2.92577C734.977 -2.92235 734.97 -2.9176 734.961 -2.91154C734.942 -2.89942 734.916 -2.88204 734.881 -2.85946C734.813 -2.81429 734.713 -2.74829 734.583 -2.6618C734.324 -2.48884 733.944 -2.23394 733.455 -1.90001C732.476 -1.2322 731.057 -0.24801 729.278 1.02935C725.722 3.58351 720.723 7.31309 714.926 12.0325C703.349 21.4586 688.516 34.8929 675.642 50.8523C662.794 66.779 651.706 85.4538 647.952 105.355C644.165 125.427 647.889 146.536 664.283 166.899L669.735 162.509C654.675 143.802 651.409 124.789 654.83 106.653C658.284 88.3466 668.601 70.7292 681.09 55.2473C693.553 39.7981 707.989 26.7075 719.346 17.4609C725.016 12.8439 729.901 9.20014 733.361 6.71505C735.091 5.47279 736.464 4.52088 737.4 3.8825C737.868 3.56333 738.226 3.32261 738.465 3.16322C738.585 3.08353 738.675 3.02418 738.733 2.98554C738.763 2.96622 738.784 2.95207 738.798 2.94315C738.804 2.93869 738.809 2.93553 738.812 2.93369C738.814 2.93276 738.814 2.93237 738.815 2.9319C738.815 2.93183 738.815 2.93209 736.903 0ZM670.413 163.889C667.723 152.643 668.482 145.201 670.846 140.326C673.155 135.564 677.281 132.673 682.727 131.103C688.251 129.511 694.921 129.356 701.735 130.026C708.509 130.693 715.196 132.15 720.64 133.607L722.449 126.845C716.78 125.328 709.698 123.776 702.42 123.06C695.181 122.348 687.514 122.438 680.788 124.377C673.982 126.339 667.944 130.267 664.547 137.272C661.205 144.165 660.716 153.439 663.605 165.518L670.413 163.889ZM720.64 133.607C724.218 134.564 727.231 135.515 729.346 136.223C730.402 136.577 731.232 136.871 731.792 137.074C732.073 137.175 732.286 137.254 732.427 137.306C732.497 137.333 732.549 137.352 732.582 137.365C732.599 137.371 732.611 137.376 732.618 137.378C732.621 137.38 732.624 137.381 732.625 137.381C732.625 137.381 732.626 137.382 732.626 137.382C732.626 137.382 732.626 137.381 732.625 137.381C732.625 137.381 732.625 137.381 732.625 137.381C732.625 137.381 732.625 137.381 733.881 134.114C735.138 130.848 735.137 130.848 735.137 130.848C735.137 130.847 735.137 130.847 735.137 130.847C735.136 130.847 735.135 130.847 735.135 130.847C735.134 130.846 735.132 130.846 735.13 130.845C735.126 130.843 735.122 130.842 735.115 130.839C735.103 130.835 735.086 130.828 735.064 130.82C735.02 130.803 734.957 130.779 734.876 130.749C734.714 130.688 734.478 130.601 734.174 130.491C733.565 130.271 732.683 129.959 731.571 129.586C729.346 128.841 726.192 127.847 722.449 126.845L720.64 133.607ZM733.881 134.114C735.116 137.39 735.115 137.39 735.115 137.39C735.115 137.39 735.115 137.39 735.115 137.39C735.115 137.39 735.115 137.39 735.115 137.39C735.115 137.39 735.115 137.39 735.116 137.39C735.117 137.389 735.119 137.388 735.123 137.387C735.131 137.384 735.144 137.379 735.161 137.372C735.197 137.359 735.252 137.339 735.327 137.312C735.476 137.257 735.701 137.175 735.998 137.07C736.591 136.86 737.468 136.557 738.583 136.192C740.815 135.461 743.993 134.484 747.756 133.508L745.999 126.732C742.068 127.752 738.748 128.772 736.405 129.54C735.233 129.924 734.303 130.245 733.662 130.472C733.341 130.585 733.093 130.675 732.922 130.738C732.836 130.769 732.77 130.793 732.724 130.811C732.701 130.819 732.683 130.826 732.67 130.831C732.664 130.833 732.658 130.835 732.655 130.836C732.653 130.837 732.651 130.838 732.65 130.838C732.649 130.838 732.649 130.839 732.648 130.839C732.648 130.839 732.648 130.839 732.647 130.839C732.647 130.839 732.647 130.839 733.881 134.114ZM747.756 133.508C756.079 131.349 767.009 129.262 776.853 129.698C786.814 130.139 794.588 133.085 798.277 139.841L804.421 136.487C798.94 126.448 787.923 123.182 777.163 122.705C766.286 122.223 754.565 124.51 745.999 126.732L747.756 133.508ZM798.277 139.841C801.109 145.028 802.031 153.283 798.519 166.28L805.277 168.106C809.014 154.274 808.481 143.924 804.421 136.487L798.277 139.841ZM804.421 136.487C800.44 129.196 793.491 125.46 785.927 123.799C778.407 122.149 769.93 122.456 762.144 123.503C754.317 124.555 746.956 126.388 741.572 127.948C738.874 128.729 736.658 129.447 735.11 129.971C734.336 130.233 733.728 130.447 733.31 130.597C733.101 130.672 732.939 130.731 732.828 130.772C732.772 130.793 732.729 130.809 732.699 130.82C732.683 130.826 732.672 130.83 732.663 130.833C732.659 130.835 732.655 130.836 732.652 130.837C732.651 130.838 732.65 130.838 732.649 130.839C732.648 130.839 732.647 130.839 733.881 134.114C735.116 137.39 735.115 137.39 735.115 137.39C735.115 137.39 735.115 137.39 735.115 137.39C735.116 137.39 735.117 137.389 735.119 137.388C735.124 137.386 735.131 137.384 735.142 137.38C735.164 137.371 735.199 137.359 735.246 137.341C735.34 137.307 735.484 137.254 735.675 137.186C736.056 137.049 736.624 136.849 737.355 136.601C738.82 136.105 740.936 135.42 743.52 134.671C748.701 133.17 755.705 131.432 763.076 130.441C770.489 129.444 778.045 129.236 784.426 130.637C790.764 132.028 795.584 134.909 798.277 139.841L804.421 136.487ZM728.273 147.842C729.445 144.571 730.544 141.355 730.027 137.945C729.497 134.451 727.405 131.384 724.106 127.841L718.983 132.611C722.066 135.922 722.907 137.68 723.106 138.994C723.318 140.392 722.942 141.967 721.683 145.48L728.273 147.842ZM724.106 127.841C724.072 127.804 724.037 127.767 724.001 127.729L718.89 132.512C718.921 132.545 718.952 132.578 718.983 132.611L724.106 127.841ZM743.346 146.661C743.098 150.152 743.099 150.152 743.099 150.152C743.1 150.152 743.101 150.152 743.102 150.152C743.104 150.152 743.106 150.152 743.109 150.153C743.115 150.153 743.123 150.154 743.133 150.154C743.153 150.156 743.182 150.158 743.218 150.16C743.291 150.165 743.397 150.171 743.534 150.18C743.808 150.196 744.207 150.218 744.72 150.242C745.745 150.289 747.226 150.344 749.072 150.375C752.762 150.436 757.924 150.401 763.832 150.017C775.562 149.254 790.585 147.095 802.838 141.331L799.859 134.997C788.799 140.199 774.82 142.288 763.378 143.032C757.699 143.401 752.732 143.435 749.189 143.376C747.419 143.346 746.007 143.294 745.044 143.249C744.563 143.227 744.194 143.206 743.949 143.192C743.826 143.185 743.734 143.179 743.675 143.175C743.645 143.173 743.623 143.172 743.61 143.171C743.603 143.17 743.599 143.17 743.596 143.17C743.595 143.17 743.594 143.169 743.594 143.169C743.594 143.169 743.594 143.169 743.594 143.169C743.594 143.17 743.595 143.17 743.346 146.661ZM802.838 141.331C803.063 141.225 803.288 141.118 803.511 141.01L800.455 134.712C800.257 134.808 800.059 134.903 799.859 134.997L802.838 141.331ZM986.545 266.594H1014.1V259.594H986.545V266.594ZM975.242 289H888.346V296H975.242V289ZM975.242 266.594H986.545V259.594H975.242V266.594ZM962.457 266.594H975.242V259.594H962.457V266.594ZM1010.75 284.28L1004.47 304.825L1011.16 306.872L1017.44 286.327L1010.75 284.28ZM992.458 345.656L990.066 351.941L996.608 354.431L999 348.146L992.458 345.656ZM1027.52 331.396C1025.07 328.897 1025.07 328.897 1025.07 328.896C1025.07 328.896 1025.07 328.896 1025.07 328.896C1025.07 328.895 1025.07 328.895 1025.07 328.895C1025.07 328.896 1025.07 328.897 1025.07 328.899C1025.06 328.903 1025.06 328.911 1025.04 328.923C1025.02 328.945 1024.98 328.982 1024.93 329.032C1024.82 329.133 1024.66 329.286 1024.44 329.484C1024.01 329.88 1023.36 330.456 1022.54 331.151C1020.88 332.543 1018.51 334.399 1015.67 336.248C1009.89 340.018 1002.66 343.437 995.748 343.401L995.711 350.401C1004.7 350.448 1013.36 346.115 1019.5 342.112C1022.62 340.074 1025.22 338.038 1027.04 336.511C1027.95 335.746 1028.67 335.104 1029.17 334.648C1029.42 334.42 1029.61 334.239 1029.75 334.111C1029.81 334.047 1029.87 333.996 1029.9 333.96C1029.92 333.942 1029.94 333.927 1029.95 333.916C1029.95 333.911 1029.96 333.907 1029.96 333.903C1029.96 333.901 1029.97 333.9 1029.97 333.899C1029.97 333.898 1029.97 333.897 1029.97 333.897C1029.97 333.896 1029.97 333.895 1027.52 331.396ZM980.893 353.704C984.712 353.704 987.419 354.374 989.099 354.985C989.942 355.291 990.535 355.586 990.888 355.781C991.064 355.879 991.181 355.952 991.238 355.989C991.267 356.008 991.28 356.018 991.28 356.017C991.279 356.017 991.275 356.014 991.268 356.009C991.264 356.006 991.259 356.002 991.253 355.998C991.251 355.996 991.248 355.994 991.244 355.991C991.243 355.99 991.241 355.989 991.239 355.988C991.238 355.987 991.237 355.986 991.236 355.986C991.235 355.985 991.234 355.984 993.337 353.186C995.44 350.388 995.439 350.387 995.437 350.386C995.437 350.386 995.435 350.385 995.434 350.384C995.432 350.383 995.43 350.381 995.428 350.38C995.424 350.376 995.419 350.373 995.415 350.369C995.405 350.362 995.395 350.355 995.383 350.346C995.36 350.329 995.332 350.31 995.301 350.288C995.238 350.244 995.158 350.189 995.062 350.126C994.869 350.001 994.61 349.841 994.282 349.659C993.626 349.295 992.698 348.845 991.49 348.406C989.067 347.525 985.552 346.704 980.893 346.704V353.704ZM1015.8 378.017C999.862 375.881 994.082 373.053 991.152 369.401C989.652 367.531 988.673 365.172 987.687 361.78C987.194 360.083 986.729 358.241 986.176 356.116C985.629 354.017 985.012 351.701 984.24 349.18L977.547 351.228C978.274 353.605 978.862 355.807 979.402 357.88C979.935 359.927 980.437 361.913 980.966 363.733C982.024 367.376 983.312 370.813 985.692 373.781C990.525 379.806 998.969 382.823 1014.87 384.955L1015.8 378.017ZM958.97 356.549C971.415 352.958 974.753 354.011 981.066 353.7L980.721 346.708C975.094 346.986 970.498 345.937 957.03 349.823L958.97 356.549ZM961.367 354.143L978.608 293.457L971.875 291.543L954.633 352.229L961.367 354.143ZM1005.46 308.443C1006.29 309.194 1007.89 311.047 1009.97 313.664C1011.99 316.2 1014.29 319.238 1016.47 322.175C1018.66 325.107 1020.71 327.922 1022.21 330.004C1022.96 331.044 1023.58 331.901 1024 332.497C1024.22 332.795 1024.38 333.028 1024.5 333.186C1024.55 333.264 1024.6 333.325 1024.63 333.365C1024.64 333.385 1024.65 333.4 1024.66 333.411C1024.66 333.416 1024.66 333.419 1024.67 333.422C1024.67 333.423 1024.67 333.424 1024.67 333.424C1024.67 333.425 1024.67 333.425 1024.67 333.425C1024.67 333.425 1024.67 333.425 1027.52 331.396C1030.37 329.368 1030.37 329.368 1030.37 329.367C1030.37 329.367 1030.37 329.367 1030.37 329.367C1030.37 329.366 1030.37 329.365 1030.37 329.363C1030.37 329.36 1030.36 329.356 1030.36 329.351C1030.35 329.34 1030.34 329.324 1030.33 329.303C1030.3 329.262 1030.25 329.2 1030.2 329.119C1030.08 328.958 1029.91 328.722 1029.7 328.421C1029.26 327.818 1028.64 326.953 1027.88 325.903C1026.37 323.805 1024.3 320.963 1022.09 317.997C1019.89 315.034 1017.53 311.929 1015.45 309.309C1013.43 306.77 1011.49 304.454 1010.16 303.254L1005.46 308.443ZM1004.47 304.825L1000.5 317.802L1007.19 319.849L1011.16 306.872L1004.47 304.825ZM1000.48 317.854L992.367 345.929L999.091 347.873L1007.21 319.798L1000.48 317.854ZM1013.55 378.476C1012.76 378.944 1010.66 379.602 1007 380.225C1003.52 380.819 999.075 381.313 994.001 381.69C983.863 382.442 971.423 382.709 959.544 382.414L959.37 389.412C971.446 389.712 984.119 389.442 994.519 388.67C999.714 388.285 1004.4 387.77 1008.18 387.126C1011.78 386.512 1015.09 385.704 1017.12 384.496L1013.55 378.476ZM959.544 382.414C950.214 382.182 941.116 381.78 933.304 381.098C925.415 380.408 919.101 379.453 915.193 378.2C913.143 377.543 912.311 376.971 912.106 376.753C912.073 376.717 912.28 376.931 912.321 377.376C912.362 377.818 912.197 378.038 912.261 377.938C912.49 377.574 913.401 376.647 915.876 375.278C918.229 373.975 921.606 372.479 926.209 370.784L923.791 364.216C919.022 365.971 915.276 367.609 912.486 369.153C909.818 370.63 907.566 372.263 906.342 374.199C905.679 375.25 905.215 376.555 905.351 378.021C905.487 379.491 906.183 380.668 906.998 381.539C908.491 383.132 910.797 384.142 913.057 384.866C917.766 386.375 924.754 387.377 932.695 388.071C940.713 388.772 949.972 389.179 959.37 389.412L959.544 382.414ZM926.209 370.784C933.158 368.226 938.672 366.034 944.052 364.338L941.947 357.662C936.357 359.425 930.508 361.743 923.791 364.216L926.209 370.784ZM944.052 364.338C945.019 364.033 946.422 363.316 947.695 362.637C949.084 361.897 950.717 360.983 952.298 360.097C953.899 359.201 955.447 358.335 956.728 357.653C957.368 357.312 957.911 357.034 958.342 356.828C958.826 356.597 959.001 356.54 958.97 356.549L957.03 349.823C956.064 350.102 954.653 350.827 953.439 351.474C952.078 352.198 950.459 353.104 948.879 353.99C947.278 354.886 945.715 355.761 944.404 356.46C943.749 356.809 943.183 357.099 942.726 357.319C942.499 357.428 942.313 357.513 942.168 357.574C942.096 357.605 942.041 357.627 942 357.643C941.958 357.659 941.942 357.664 941.947 357.662L944.052 364.338ZM961 382.772C953.385 379.032 949.289 376.216 947.264 373.286C945.473 370.697 944.989 367.516 946.397 361.843L939.603 360.157C937.955 366.799 938.102 372.344 941.506 377.267C944.675 381.85 950.336 385.333 957.914 389.055L961 382.772ZM888.346 266.594H915.898V259.594H888.346V266.594ZM915.898 266.594H962.457V259.594H915.898V266.594ZM1027.52 331.396C1024.59 333.313 1024.59 333.312 1024.59 333.311C1024.59 333.311 1024.59 333.31 1024.59 333.31C1024.59 333.31 1024.59 333.31 1024.59 333.311C1024.59 333.312 1024.59 333.316 1024.6 333.322C1024.61 333.335 1024.62 333.356 1024.64 333.386C1024.68 333.446 1024.74 333.542 1024.82 333.671C1024.97 333.928 1025.21 334.319 1025.5 334.825C1026.08 335.84 1026.88 337.314 1027.73 339.121C1029.44 342.761 1031.29 347.618 1032.05 352.711C1032.81 357.807 1032.43 362.859 1030.03 367.185C1027.66 371.441 1023.06 375.504 1014.33 378.135L1016.35 384.837C1026.4 381.809 1032.7 376.782 1036.14 370.584C1039.55 364.458 1039.87 357.695 1038.97 351.683C1038.08 345.668 1035.94 340.125 1034.07 336.142C1033.12 334.137 1032.23 332.494 1031.57 331.344C1031.24 330.768 1030.97 330.314 1030.78 329.999C1030.68 329.841 1030.6 329.717 1030.55 329.63C1030.52 329.586 1030.5 329.552 1030.48 329.527C1030.47 329.514 1030.46 329.504 1030.46 329.496C1030.46 329.492 1030.45 329.489 1030.45 329.486C1030.45 329.485 1030.45 329.483 1030.45 329.483C1030.45 329.481 1030.45 329.48 1027.52 331.396ZM801.898 167.193C798.745 165.674 798.745 165.675 798.745 165.675C798.745 165.675 798.744 165.675 798.744 165.675C798.744 165.676 798.744 165.676 798.744 165.677C798.743 165.678 798.743 165.679 798.742 165.68C798.741 165.683 798.739 165.686 798.737 165.691C798.733 165.7 798.727 165.712 798.72 165.727C798.705 165.757 798.685 165.801 798.658 165.857C798.605 165.969 798.53 166.131 798.433 166.341C798.24 166.76 797.964 167.37 797.625 168.148C796.948 169.703 796.015 171.934 794.983 174.664L801.531 177.139C802.516 174.532 803.404 172.409 804.042 170.945C804.361 170.213 804.618 169.646 804.792 169.266C804.88 169.076 804.947 168.934 804.991 168.84C805.012 168.794 805.029 168.759 805.039 168.738C805.044 168.727 805.048 168.72 805.05 168.715C805.051 168.713 805.051 168.712 805.052 168.711C805.052 168.711 805.052 168.711 805.052 168.711C805.052 168.711 805.052 168.711 805.052 168.711C805.052 168.712 805.052 168.712 805.051 168.712C805.051 168.712 805.051 168.712 801.898 167.193ZM794.983 174.664C792.167 182.114 790.764 194.072 789.547 204.393L796.499 205.212C797.76 194.512 799.092 183.591 801.531 177.139L794.983 174.664ZM795.522 178.086C805.953 191.146 815.578 201.044 825.529 207.413L829.302 201.517C820.318 195.767 811.263 186.578 800.992 173.717L795.522 178.086ZM790.46 207.187C799.227 216.609 806.099 222.395 816.052 226.758L818.862 220.347C810.141 216.523 804.03 211.496 795.585 202.419L790.46 207.187ZM826.418 201.11C823.247 202.053 820.487 203.074 818.253 204.325C816.002 205.586 814.081 207.194 812.873 209.401C810.422 213.878 811.731 219.189 814.25 224.954L820.664 222.151C818.173 216.45 818.309 214.048 819.013 212.762C819.382 212.088 820.121 211.302 821.674 210.432C823.244 209.553 825.432 208.706 828.413 207.819L826.418 201.11ZM825.529 207.413C835.031 213.493 855.67 220.879 877.084 225.012C887.852 227.091 898.981 228.381 909.176 228.245C919.31 228.11 928.841 226.563 936.184 222.701L932.925 216.506C926.987 219.629 918.726 221.117 909.082 221.246C899.499 221.374 888.865 220.158 878.41 218.139C857.377 214.079 837.729 206.909 829.302 201.517L825.529 207.413ZM936.184 222.701C936.182 222.702 936.191 222.697 936.212 222.687C936.232 222.677 936.261 222.664 936.298 222.647C936.373 222.612 936.472 222.569 936.598 222.515C936.852 222.407 937.183 222.273 937.594 222.112C938.415 221.79 939.502 221.383 940.828 220.899C943.478 219.932 947.016 218.68 951.162 217.234C959.452 214.341 970.102 210.69 980.795 207.003C991.476 203.32 1002.2 199.602 1010.59 196.588C1014.79 195.082 1018.43 193.744 1021.2 192.669C1023.8 191.659 1026.03 190.74 1027.07 190.088L1023.34 184.162C1023.35 184.158 1023.32 184.176 1023.24 184.216C1023.17 184.253 1023.08 184.303 1022.95 184.363C1022.7 184.485 1022.37 184.636 1021.95 184.816C1021.12 185.176 1020.01 185.62 1018.67 186.142C1015.98 187.185 1012.41 188.5 1008.23 190C999.879 192.997 989.196 196.701 978.513 200.385C967.84 204.065 957.162 207.726 948.856 210.625C944.702 212.074 941.125 213.338 938.427 214.324C935.863 215.26 933.797 216.047 932.925 216.506L936.184 222.701ZM816.052 226.758C825.913 231.081 847.74 237.419 871.54 241.401C895.258 245.37 921.678 247.134 940.457 241.795L938.543 235.062C921.357 239.948 896.257 238.44 872.695 234.497C849.216 230.568 828.004 224.355 818.862 220.347L816.052 226.758ZM931.63 217.681C928.411 222.578 926.297 227.241 927.589 231.742C928.861 236.175 933.055 239.024 937.886 241.534L941.114 235.323C936.172 232.755 934.681 231.078 934.317 229.811C933.973 228.613 934.273 226.403 937.479 221.526L931.63 217.681ZM1020.83 94.8487H1134.57V87.8487H1020.83V94.8487ZM1138.07 115.652V91.3487H1131.07V115.652H1138.07ZM1098.71 219.009L1063.39 217.333L1063.06 224.325L1098.38 226.001L1098.71 219.009ZM1098.54 112.152H1010.24V119.152H1098.54V112.152ZM1013.74 115.652V91.3487H1006.74V115.652H1013.74ZM1010.24 94.8487H1020.83V87.8487H1010.24V94.8487ZM1097.21 215.521L1095.23 221.387L1101.86 223.624L1103.84 217.757L1097.21 215.521ZM1099.47 213.3C1092.17 215.593 1086.64 216.64 1082.54 216.809C1078.4 216.979 1076.08 216.242 1074.85 215.387C1073.76 214.631 1073.11 213.518 1072.95 211.726C1072.78 209.814 1073.2 207.299 1074.24 204.292C1076.31 198.299 1080.49 191.392 1084.87 185.564C1087.04 182.673 1089.21 180.114 1091.1 178.133C1093.08 176.073 1094.54 174.869 1095.31 174.435L1091.88 168.332C1090.16 169.304 1088.1 171.154 1086.05 173.29C1083.93 175.503 1081.58 178.281 1079.27 181.361C1074.68 187.473 1070.03 195.043 1067.62 202.004C1066.42 205.473 1065.69 209.054 1065.98 212.351C1066.29 215.767 1067.73 218.974 1070.86 221.143C1073.86 223.213 1077.92 224.005 1082.82 223.803C1087.77 223.599 1093.95 222.37 1101.57 219.978L1099.47 213.3ZM1122.94 155.775C1128.82 153.862 1134.93 151.935 1141.25 150.008L1139.2 143.313C1132.85 145.253 1126.7 147.192 1120.78 149.118L1122.94 155.775ZM1131.27 114.509L1118.55 151.303L1125.17 153.589L1137.88 116.796L1131.27 114.509ZM1066.54 221.943L1074 199.735L1067.36 197.506L1059.9 219.715L1066.54 221.943ZM1084.78 167.626L1101.86 116.767L1095.23 114.538L1078.15 165.397L1084.78 167.626ZM1078.15 165.397L1067.36 197.506L1074 199.735L1084.78 167.626L1078.15 165.397ZM1094.81 174.668C1097.56 173.654 1104.75 172.115 1115.91 169.947L1114.57 163.076C1103.71 165.186 1095.81 166.839 1092.39 168.099L1094.81 174.668ZM1118.69 150.956L1112.07 165.021L1118.4 168.002L1125.02 153.937L1118.69 150.956ZM1180.49 171.803C1178.72 168.787 1178.72 168.787 1178.72 168.787C1178.72 168.787 1178.72 168.787 1178.72 168.788C1178.72 168.788 1178.72 168.789 1178.71 168.79C1178.71 168.791 1178.71 168.794 1178.7 168.798C1178.69 168.805 1178.67 168.815 1178.65 168.83C1178.6 168.858 1178.53 168.9 1178.43 168.956C1178.24 169.068 1177.96 169.234 1177.59 169.45C1176.86 169.881 1175.78 170.511 1174.42 171.308C1171.71 172.901 1167.85 175.159 1163.28 177.815C1154.14 183.129 1142.19 190.035 1130.91 196.411L1134.35 202.506C1145.67 196.109 1157.65 189.187 1166.8 183.866C1171.37 181.205 1175.24 178.944 1177.96 177.347C1179.33 176.549 1180.4 175.917 1181.14 175.484C1181.51 175.268 1181.79 175.102 1181.98 174.989C1182.08 174.933 1182.15 174.89 1182.2 174.862C1182.22 174.847 1182.24 174.836 1182.25 174.829C1182.26 174.826 1182.26 174.823 1182.27 174.821C1182.27 174.82 1182.27 174.819 1182.27 174.819C1182.27 174.819 1182.27 174.818 1182.27 174.818C1182.27 174.818 1182.27 174.818 1180.49 171.803ZM1130.91 196.411C1117.02 204.261 1104.38 211.168 1099.14 213.424L1101.91 219.854C1107.58 217.412 1120.6 210.276 1134.35 202.506L1130.91 196.411ZM1092.53 174.715C1105.11 178.77 1113.29 182.153 1118.86 186.073C1124.23 189.849 1127.25 194.182 1129.3 200.531L1135.96 198.387C1133.49 190.714 1129.61 185.072 1122.89 180.347C1116.38 175.766 1107.3 172.121 1094.67 168.052L1092.53 174.715ZM1188.95 161.872C1185.9 164.082 1182.46 166.41 1178.62 168.846L1182.37 174.759C1186.32 172.256 1189.88 169.845 1193.06 167.536L1188.95 161.872ZM1140.78 165.202C1156.27 162.717 1166 161.953 1173.07 162.5C1179.94 163.032 1184.35 164.807 1189.21 167.709L1192.8 161.698C1187.18 158.345 1181.74 156.15 1173.61 155.521C1165.67 154.906 1155.26 155.791 1139.67 158.29L1140.78 165.202ZM1026.48 190.385C1030.81 188.694 1077.69 171.652 1082.69 169.792L1080.24 163.232C1075.45 165.016 1028.3 182.156 1023.93 183.865L1026.48 190.385ZM1022.02 219.93L1071.87 201.912L1069.49 195.329L1019.64 213.347L1022.02 219.93ZM1022.18 185.37C1018.2 192.229 1015.24 197.931 1014.25 203.169C1013.18 208.78 1014.38 213.666 1017.99 218.683L1023.67 214.595C1021.07 210.968 1020.45 208.007 1021.12 204.476C1021.87 200.572 1024.2 195.839 1028.23 188.88L1022.18 185.37ZM1141.25 150.008C1143.65 149.276 1145.99 148.583 1148.27 147.93L1146.34 141.201C1144.02 141.865 1141.64 142.569 1139.2 143.313L1141.25 150.008ZM1148.27 147.93C1163.87 143.462 1176.54 140.858 1186.18 139.847C1191 139.341 1194.99 139.241 1198.17 139.482C1201.4 139.727 1203.56 140.306 1204.89 140.991C1206.14 141.636 1206.39 142.216 1206.46 142.568C1206.57 143.073 1206.51 144.166 1205.45 146.067C1203.31 149.913 1198.05 155.261 1188.95 161.872L1193.06 167.536C1202.32 160.81 1208.64 154.722 1211.57 149.477C1213.04 146.834 1213.9 143.968 1213.32 141.157C1212.71 138.194 1210.68 136.1 1208.1 134.77C1205.6 133.48 1202.38 132.781 1198.7 132.502C1194.98 132.22 1190.54 132.351 1185.45 132.885C1175.27 133.953 1162.17 136.667 1146.34 141.201L1148.27 147.93ZM1115.91 169.947C1119.46 169.256 1123.39 168.508 1127.65 167.698L1126.34 160.821C1122.08 161.631 1118.14 162.382 1114.57 163.076L1115.91 169.947ZM1127.65 167.698C1131.76 166.918 1136.18 166.08 1140.88 165.184L1139.57 158.308C1134.87 159.203 1130.46 160.039 1126.34 160.821L1127.65 167.698ZM1145.45 141.597C1137.44 146.601 1131.75 150.441 1128.23 153.754C1124.71 157.074 1122.48 160.728 1123.6 165.129L1130.38 163.391C1130.23 162.771 1130.1 161.607 1133.03 158.849C1135.97 156.084 1141.07 152.587 1149.16 147.534L1145.45 141.597ZM459.746 276.063C458.095 278.408 456.911 281.059 456.299 284.024L463.154 285.439C463.566 283.443 464.354 281.678 465.47 280.092L459.746 276.063ZM530.983 258.909C530.79 258.909 530.637 258.909 530.517 258.909C530.458 258.91 530.406 258.91 530.361 258.91C530.317 258.91 530.277 258.911 530.243 258.911C530.225 258.911 530.208 258.911 530.19 258.912C530.181 258.912 530.171 258.912 530.16 258.912C530.15 258.912 530.138 258.913 530.124 258.913C530.117 258.913 530.108 258.914 530.099 258.914C530.091 258.914 530.08 258.915 530.067 258.915C530.055 258.916 530.04 258.916 530.021 258.917C530.013 258.918 529.997 258.919 529.989 258.919C529.979 258.92 529.957 258.922 529.945 258.923C529.931 258.924 529.901 258.926 529.885 258.928C529.864 258.93 529.818 258.935 529.792 258.938C529.759 258.942 529.68 258.953 529.635 258.96C529.571 258.972 529.408 259.006 529.31 259.031C529.142 259.08 528.645 259.283 528.33 259.462C527.605 260.079 526.714 262.517 527.171 264.143C527.695 264.843 528.672 265.555 528.982 265.689C529.139 265.744 529.393 265.815 529.487 265.836C529.549 265.849 529.655 265.868 529.699 265.875C529.732 265.879 529.789 265.887 529.815 265.89C529.835 265.892 529.871 265.896 529.887 265.897C529.901 265.899 529.926 265.901 529.938 265.902C529.964 265.904 529.987 265.905 530.003 265.906C530.019 265.907 530.033 265.908 530.044 265.909C530.065 265.91 530.083 265.911 530.096 265.911C530.109 265.911 530.12 265.912 530.13 265.912C530.149 265.913 530.166 265.913 530.181 265.914C530.197 265.914 530.212 265.914 530.227 265.914C530.258 265.915 530.291 265.916 530.327 265.916C530.362 265.916 530.402 265.917 530.443 265.917C530.527 265.918 530.623 265.919 530.727 265.92C530.934 265.922 531.173 265.924 531.403 265.925C531.633 265.927 531.855 265.928 532.027 265.928C532.112 265.928 532.188 265.928 532.249 265.928C532.264 265.928 532.279 265.928 532.293 265.928C532.308 265.928 532.323 265.928 532.337 265.928C532.345 265.928 532.353 265.928 532.362 265.928C532.37 265.927 532.38 265.927 532.391 265.927C532.401 265.927 532.416 265.927 532.433 265.926C532.442 265.926 532.453 265.925 532.466 265.925C532.478 265.924 532.495 265.924 532.515 265.923C532.524 265.922 532.543 265.921 532.553 265.921C532.565 265.92 532.591 265.918 532.606 265.917C532.624 265.916 532.664 265.912 532.687 265.91C532.717 265.907 532.787 265.898 532.828 265.893C532.887 265.884 533.039 265.856 533.132 265.836C533.299 265.793 533.83 265.594 534.177 265.406C535.094 264.587 535.751 261.646 534.871 260.01C534.366 259.573 533.555 259.145 533.318 259.067C533.198 259.034 533.005 258.991 532.932 258.977C532.884 258.97 532.801 258.957 532.767 258.953C532.741 258.95 532.695 258.945 532.675 258.943C532.659 258.941 532.63 258.939 532.617 258.938C532.606 258.937 532.586 258.936 532.577 258.935C532.569 258.934 532.554 258.933 532.547 258.933C532.53 258.932 532.516 258.931 532.505 258.931C532.484 258.93 532.466 258.929 532.454 258.928C532.442 258.928 532.431 258.928 532.422 258.927C532.403 258.927 532.386 258.926 532.37 258.926C532.339 258.925 532.303 258.925 532.263 258.924C532.222 258.923 532.175 258.923 532.12 258.922C532.01 258.92 531.867 258.918 531.686 258.916C531.504 258.914 531.284 258.912 531.019 258.909L530.946 265.909C531.209 265.911 531.427 265.914 531.605 265.916C531.783 265.918 531.919 265.92 532.021 265.921C532.072 265.922 532.113 265.922 532.145 265.923C532.178 265.924 532.199 265.924 532.21 265.924C532.216 265.924 532.216 265.924 532.212 265.924C532.21 265.924 532.205 265.924 532.198 265.924C532.191 265.924 532.178 265.923 532.161 265.922C532.152 265.922 532.139 265.921 532.124 265.92C532.118 265.92 532.104 265.919 532.096 265.918C532.087 265.918 532.068 265.916 532.057 265.915C532.045 265.914 532.016 265.912 532.001 265.91C531.981 265.908 531.936 265.904 531.91 265.901C531.876 265.896 531.794 265.884 531.746 265.876C531.673 265.863 531.48 265.82 531.36 265.787C531.123 265.709 530.313 265.281 529.807 264.843C528.928 263.208 529.585 260.267 530.501 259.448C530.849 259.26 531.38 259.061 531.546 259.018C531.639 258.998 531.791 258.97 531.85 258.961C531.89 258.956 531.961 258.948 531.99 258.945C532.012 258.942 532.052 258.939 532.07 258.938C532.084 258.936 532.11 258.935 532.121 258.934C532.131 258.933 532.149 258.932 532.157 258.932C532.176 258.931 532.192 258.93 532.203 258.93C532.214 258.929 532.223 258.929 532.23 258.929C532.243 258.929 532.253 258.928 532.258 258.928C532.263 258.928 532.267 258.928 532.269 258.928C532.271 258.928 532.271 258.928 532.271 258.928C532.27 258.928 532.266 258.928 532.259 258.928C532.252 258.928 532.243 258.928 532.233 258.928C532.189 258.928 532.126 258.928 532.045 258.928C531.884 258.928 531.67 258.927 531.445 258.925C531.221 258.924 530.988 258.922 530.788 258.921C530.689 258.92 530.599 258.919 530.523 258.918C530.486 258.917 530.452 258.917 530.423 258.917C530.394 258.916 530.372 258.916 530.355 258.916C530.347 258.915 530.342 258.915 530.339 258.915C530.335 258.915 530.337 258.915 530.342 258.915C530.345 258.915 530.351 258.916 530.359 258.916C530.366 258.916 530.379 258.917 530.397 258.918C530.406 258.918 530.418 258.919 530.433 258.92C530.447 258.921 530.468 258.922 530.494 258.924C530.505 258.925 530.529 258.927 530.542 258.928C530.558 258.93 530.594 258.933 530.614 258.936C530.638 258.939 530.696 258.946 530.728 258.951C530.772 258.957 530.877 258.976 530.939 258.989C531.034 259.01 531.287 259.081 531.444 259.136C531.754 259.27 532.731 259.982 533.255 260.682C533.711 262.307 532.821 264.746 532.096 265.363C531.781 265.542 531.284 265.745 531.116 265.794C531.018 265.818 530.856 265.853 530.792 265.864C530.747 265.871 530.669 265.883 530.635 265.887C530.61 265.89 530.565 265.895 530.544 265.897C530.528 265.898 530.499 265.901 530.485 265.902C530.474 265.903 530.453 265.904 530.444 265.905C530.436 265.905 530.42 265.906 530.413 265.906C530.396 265.907 530.382 265.908 530.372 265.909C530.362 265.909 530.353 265.909 530.347 265.91C530.34 265.91 530.334 265.91 530.33 265.91C530.322 265.91 530.316 265.91 530.313 265.911C530.311 265.911 530.31 265.911 530.309 265.911C530.308 265.911 530.308 265.911 530.308 265.911C530.308 265.911 530.309 265.911 530.311 265.911C530.313 265.911 530.316 265.91 530.32 265.91C530.336 265.91 530.361 265.91 530.399 265.91C530.435 265.91 530.481 265.909 530.536 265.909C530.647 265.909 530.794 265.909 530.983 265.909V258.909ZM531.019 258.909C516.554 258.759 496.038 258.891 480.288 263.44L482.23 270.165C496.842 265.945 516.343 265.757 530.946 265.909L531.019 258.909ZM1010.6 263.094V269.718H1017.6V263.094H1010.6ZM1010.6 269.718V285.303H1017.6V269.718H1010.6ZM530.788 265.903C533.598 266.06 537.11 265.993 540.586 265.908L540.414 258.91C536.889 258.997 533.659 259.052 531.177 258.914L530.788 265.903ZM570.361 288.605C574.92 302.301 576.972 320.365 575.604 336.379C574.921 344.374 573.396 351.712 571.001 357.668C568.593 363.654 565.427 367.952 561.645 370.317L565.355 376.252C570.853 372.815 574.779 367.034 577.496 360.28C580.225 353.494 581.856 345.43 582.578 336.975C584.021 320.087 581.885 301.061 577.002 286.395L570.361 288.605ZM599.815 247.004L576.471 251.662L577.84 258.527L601.185 253.869L599.815 247.004ZM646.717 262.176L625.825 269.62L628.175 276.214L649.067 268.77L646.717 262.176ZM636.35 236.142C636.679 235.761 636.977 235.616 636.785 235.733C636.706 235.781 636.544 235.872 636.275 236.008C635.743 236.275 634.963 236.631 633.948 237.059C631.93 237.911 629.13 238.987 625.849 240.13L628.151 246.741C631.54 245.56 634.484 244.43 636.67 243.508C637.758 243.049 638.695 242.626 639.419 242.262C639.778 242.081 640.129 241.893 640.437 241.705C640.633 241.585 641.194 241.244 641.65 240.715L636.35 236.142ZM716.739 237.227L667.908 254.625L670.257 261.219L719.088 243.821L716.739 237.227ZM667.908 254.625L646.717 262.176L649.067 268.77L670.257 261.219L667.908 254.625ZM679.278 200.251C679.441 201.459 679.009 203.395 677.36 206.104C675.76 208.733 673.266 211.674 670.075 214.716C663.701 220.793 654.95 226.895 646.295 231.334L649.489 237.563C658.673 232.853 667.991 226.375 674.905 219.783C678.358 216.491 681.313 213.075 683.34 209.743C685.32 206.49 686.694 202.86 686.215 199.315L679.278 200.251ZM646.295 231.334C643.385 232.826 640.511 234.118 637.765 235.154L640.235 241.703C643.263 240.562 646.38 239.157 649.489 237.563L646.295 231.334ZM670.421 254.688C664.666 252.307 661.037 250.04 658.295 247.012C655.532 243.961 653.416 239.856 651.207 233.327L644.576 235.57C646.908 242.463 649.402 247.619 653.106 251.71C656.832 255.826 661.528 258.585 667.745 261.157L670.421 254.688ZM539.695 265.815C550.191 268.295 556.252 271.062 560.451 274.534C564.639 277.998 567.306 282.423 570.537 289.036L576.826 285.964C573.521 279.198 570.319 273.611 564.912 269.14C559.516 264.678 552.254 261.589 541.305 259.003L539.695 265.815ZM626.077 269.541L610.04 273.927L611.887 280.679L627.923 276.293L626.077 269.541ZM610.04 273.927L572.758 284.124L574.605 290.876L611.887 280.679L610.04 273.927ZM597.006 250.234C596.685 255.785 596.732 260.597 598.404 265.39C600.084 270.207 603.267 274.636 608.507 279.797L613.419 274.809C608.564 270.028 606.199 266.486 605.014 263.085C603.82 259.661 603.683 256.012 603.994 250.638L597.006 250.234ZM891.846 292.5V281.798H884.846V292.5H891.846ZM891.846 281.798V263.094H884.846V281.798H891.846ZM754.687 245.837C762.097 249.005 769.047 251.953 775.66 254.693L778.34 248.226C771.762 245.5 764.839 242.565 757.439 239.401L754.687 245.837ZM789.641 205.705C791.259 211.772 793.244 216.747 796.26 221.192C799.281 225.643 803.208 229.374 808.466 233.13L812.534 227.433C807.731 224.002 804.477 220.834 802.053 217.262C799.624 213.683 797.901 209.513 796.404 203.9L789.641 205.705ZM808.466 233.13C813.045 236.4 818.703 239.736 825.733 243.592L829.099 237.455C822.13 233.632 816.766 230.456 812.534 227.433L808.466 233.13ZM777.524 254.92C786.283 253.594 793.495 252.175 799.418 248.826C805.535 245.367 809.947 240.061 813.693 231.715L807.307 228.848C803.983 236.254 800.44 240.206 795.972 242.732C791.31 245.369 785.307 246.662 776.476 247.999L777.524 254.92ZM775.66 254.693C805.061 266.876 827.892 275 855.326 280.385L856.674 273.516C829.9 268.261 807.559 260.334 778.34 248.226L775.66 254.693ZM855.326 280.385C865.417 282.366 876.11 283.972 887.963 285.277L888.729 278.319C877.044 277.033 866.547 275.454 856.674 273.516L855.326 280.385ZM825.733 243.592C830.659 246.294 838.886 248.721 848.548 250.909C858.329 253.124 869.965 255.176 881.97 257.014L883.03 250.094C871.103 248.268 859.647 246.245 850.094 244.082C840.421 241.891 833.072 239.634 829.099 237.455L825.733 243.592ZM856.931 280.325C865.134 278.062 871.541 275.685 876.318 271.692C881.245 267.573 884.076 262.063 885.905 254.363L879.095 252.745C877.477 259.554 875.212 263.493 871.828 266.321C868.294 269.275 863.174 271.341 855.069 273.577L856.931 280.325ZM456.37 283.738C452.664 296.269 455.118 309.89 459.336 319.643L465.761 316.864C461.989 308.145 459.969 296.251 463.083 285.724L456.37 283.738ZM680.012 197.598C676.943 201.439 670.258 205.353 660.133 208.917C650.171 212.424 637.441 215.403 622.946 217.727L624.054 224.638C638.793 222.276 651.965 219.213 662.457 215.52C672.786 211.885 681.108 207.441 685.481 201.968L680.012 197.598ZM622.946 217.727C595.101 222.189 561.085 224.176 528.401 222.964C495.664 221.75 464.557 217.337 442.399 209.165L439.977 215.732C463.145 224.277 495.101 228.734 528.142 229.959C561.237 231.186 595.713 229.18 624.054 224.638L622.946 217.727ZM198.551 362.915C195.851 378.601 195.652 389.16 200.959 397.947C206.114 406.483 216.142 412.692 231.309 421.064L234.691 414.936C219.128 406.345 210.961 400.967 206.951 394.328C203.092 387.939 202.758 379.734 205.449 364.103L198.551 362.915ZM480.288 263.44C477.181 264.337 474.215 265.418 471.488 266.725L474.512 273.038C476.821 271.931 479.412 270.979 482.23 270.165L480.288 263.44ZM471.488 266.725C466.751 268.994 462.599 272.011 459.746 276.063L465.47 280.092C467.422 277.32 470.469 274.975 474.512 273.038L471.488 266.725ZM223.264 362.34C229.711 370.419 232.009 376.655 232.441 384.377C232.897 392.528 231.304 402.206 229.523 417.598L236.477 418.402C238.188 403.609 239.93 392.929 239.43 383.986C238.906 374.616 235.957 367.023 228.736 357.974L223.264 362.34ZM625.849 240.13C622.735 241.215 619.209 242.352 615.535 243.406L617.465 250.134C621.276 249.041 624.926 247.864 628.151 246.741L625.849 240.13ZM615.535 243.406C610.349 244.894 604.919 246.203 599.959 246.978L601.041 253.894C606.38 253.059 612.109 251.672 617.465 250.134L615.535 243.406ZM622.495 217.83C614.525 220.219 606.916 222.384 599.596 224.343L601.405 231.105C608.8 229.127 616.476 226.942 624.505 224.535L622.495 217.83ZM617.902 243.563C612.232 241.084 609.152 239.002 607.291 236.733C605.498 234.547 604.536 231.816 603.973 227.292L597.027 228.156C597.662 233.27 598.881 237.517 601.878 241.172C604.808 244.744 609.128 247.367 615.098 249.977L617.902 243.563ZM576.471 251.662L550.514 256.842L551.884 263.706L577.84 258.527L576.471 251.662ZM550.514 256.842L539.815 258.977L541.185 265.841L551.884 263.706L550.514 256.842ZM599.596 224.343C577.096 230.362 557.307 234.43 538.093 237.056L539.04 243.991C558.59 241.32 578.669 237.187 601.405 231.105L599.596 224.343ZM553.484 257.623C549.726 254.383 547.404 251.881 545.751 249.28C544.112 246.699 543.009 243.826 541.96 239.668L535.173 241.379C536.32 245.929 537.654 249.588 539.843 253.033C542.018 256.458 544.915 259.478 548.914 262.925L553.484 257.623ZM473.248 266.39C466.897 265.939 460.708 265.564 454.674 265.265L454.326 272.256C460.309 272.553 466.449 272.925 472.752 273.372L473.248 266.39ZM538.093 237.056C508.323 241.123 479.824 241.743 444.601 240.728L444.399 247.725C479.816 248.745 508.739 248.132 539.04 243.991L538.093 237.056ZM444.601 240.728C437.56 240.525 430.252 240.257 422.612 239.938L422.321 246.932C429.982 247.252 437.321 247.521 444.399 247.725L444.601 240.728ZM456.544 265.919C450.922 261.876 448.613 258.89 447.67 256.131C446.707 253.313 446.934 250.104 447.937 244.888L441.063 243.565C440.053 248.816 439.43 253.667 441.046 258.395C442.682 263.183 446.379 267.231 452.456 271.602L456.544 265.919ZM454.674 265.265C424.055 263.745 397.43 264.161 374.167 266.397L374.837 273.365C397.686 271.169 423.962 270.749 454.326 272.256L454.674 265.265ZM422.557 239.937C399.717 239.348 379.357 240.024 361.154 241.835L361.846 248.8C379.714 247.023 399.777 246.352 422.376 246.934L422.557 239.937ZM376.585 267.069C369.734 261.994 366.5 258.535 365.078 255.617C363.79 252.971 363.801 250.366 364.887 246.201L358.113 244.434C356.842 249.31 356.44 253.866 358.785 258.682C360.997 263.224 365.443 267.527 372.419 272.694L376.585 267.069ZM374.167 266.397C343.747 269.321 319.023 275.362 298.621 284.294L301.428 290.706C320.991 282.142 344.956 276.237 374.837 273.365L374.167 266.397ZM361.154 241.835C320.166 245.911 290.037 255.751 267.116 269.941L270.801 275.893C292.585 262.406 321.615 252.802 361.846 248.8L361.154 241.835ZM299.856 284.004C289.852 284.486 283.951 283.824 280.091 281.988C276.547 280.302 274.269 277.388 272.255 271.741L265.662 274.092C268.001 280.651 271.207 285.513 277.084 288.309C282.646 290.955 290.101 291.482 300.193 290.996L299.856 284.004ZM298.621 284.294C271.083 296.349 251.586 313.599 236.622 335.217L242.378 339.201C256.645 318.589 275.146 302.212 301.428 290.706L298.621 284.294ZM236.622 335.217C231.557 342.534 227.022 350.336 222.873 358.584L229.127 361.73C233.152 353.727 237.525 346.211 242.378 339.201L236.622 335.217ZM267.116 269.941C244.059 284.216 228.522 302.755 216.576 323.77L222.661 327.23C234.162 306.998 248.947 289.423 270.801 275.893L267.116 269.941ZM216.576 323.77C209.688 335.889 203.993 348.831 198.741 362.232L205.259 364.786C210.449 351.543 216.004 338.942 222.661 327.23L216.576 323.77ZM238.594 333.828C235.268 334.719 232.686 335.21 230.659 335.312C228.642 335.414 227.444 335.117 226.677 334.692C225.27 333.912 223.817 331.794 223.098 325.125L216.139 325.875C216.864 332.611 218.525 338.177 223.284 340.814C225.6 342.098 228.248 342.443 231.013 342.303C233.769 342.164 236.905 341.527 240.406 340.589L238.594 333.828ZM940.457 241.795C940.8 241.698 941.996 241.374 943.907 240.861L942.093 234.1C940.212 234.605 938.949 234.946 938.543 235.062L940.457 241.795ZM943.907 240.861C959.187 236.76 1018.53 221.005 1021.86 219.986L1019.81 213.292C1016.63 214.264 957.556 229.951 942.093 234.1L943.907 240.861ZM1308.03 352.259C1310.86 372.56 1308.28 384.316 1301.75 392.783C1295.03 401.511 1283.68 407.397 1267.07 414.803L1269.93 421.197C1286.28 413.905 1299.32 407.404 1307.3 397.057C1315.48 386.448 1317.91 372.441 1314.97 351.293L1308.03 352.259ZM1273.4 349.438C1267.19 356.349 1264.18 364.489 1263.18 375.429C1262.2 386.217 1263.15 399.988 1265.02 418.354L1271.98 417.646C1270.11 399.222 1269.24 386.089 1270.15 376.066C1271.05 366.195 1273.66 359.619 1278.6 354.114L1273.4 349.438ZM942.938 240.98C948.001 241.07 952.997 241.167 957.925 241.273L958.075 234.274C953.137 234.169 948.133 234.071 943.062 233.981L942.938 240.98ZM881.97 257.014C910.4 261.366 941.162 264.56 954.844 265.892L955.523 258.925C941.877 257.597 911.267 254.417 883.03 250.094L881.97 257.014ZM954.844 265.892C957.151 266.117 958.975 266.289 960.223 266.405C960.847 266.463 961.327 266.507 961.651 266.536C961.814 266.551 961.937 266.562 962.02 266.569C962.062 266.573 962.093 266.576 962.114 266.578C962.125 266.579 962.133 266.579 962.138 266.58C962.141 266.58 962.143 266.58 962.145 266.581C962.145 266.581 962.146 266.581 962.146 266.581C962.147 266.581 962.147 266.581 962.147 266.581C962.147 266.581 962.147 266.581 962.147 266.581C962.147 266.581 962.147 266.581 962.457 263.094C962.767 259.608 962.767 259.608 962.767 259.608C962.767 259.608 962.767 259.608 962.767 259.608C962.767 259.608 962.767 259.608 962.767 259.608C962.766 259.608 962.766 259.608 962.765 259.608C962.764 259.608 962.762 259.608 962.76 259.608C962.755 259.607 962.748 259.607 962.737 259.606C962.717 259.604 962.687 259.601 962.646 259.597C962.566 259.59 962.444 259.579 962.284 259.565C961.964 259.536 961.489 259.492 960.87 259.435C959.631 259.32 957.818 259.149 955.523 258.925L954.844 265.892ZM954.955 236.047C952.247 240.824 950.575 244.939 950.085 249.359C949.596 253.769 950.322 258.147 951.819 263.373L958.548 261.445C957.158 256.594 956.698 253.231 957.042 250.131C957.385 247.041 958.564 243.876 961.045 239.499L954.955 236.047ZM1063.37 259.203C1047.46 258.527 1030.94 258.609 1013.89 259.6L1014.3 266.589C1031.11 265.611 1047.4 265.531 1063.07 266.196L1063.37 259.203ZM1060.4 241.082C1059.57 244.064 1058.79 247.089 1058.56 250.685C1058.32 254.299 1058.64 258.341 1059.81 263.477L1066.63 261.921C1065.58 257.315 1065.36 253.961 1065.54 251.143C1065.73 248.306 1066.34 245.862 1067.14 242.95L1060.4 241.082ZM957.925 241.273C1055.98 243.37 1127.43 248.648 1179.76 259.869L1181.23 253.024C1128.2 241.655 1056.18 236.373 958.075 234.274L957.925 241.273ZM1177.73 278.453C1145.38 268.48 1106.65 261.04 1063.37 259.203L1063.07 266.196C1105.74 268.007 1143.87 275.341 1175.67 285.143L1177.73 278.453ZM1178.25 253.762C1173.77 257.512 1170.76 261.377 1170.03 266.481C1169.33 271.353 1170.82 276.7 1173.47 283.132L1179.94 280.464C1177.35 274.172 1176.54 270.347 1176.95 267.477C1177.33 264.839 1178.85 262.39 1182.74 259.131L1178.25 253.762ZM1179.76 259.869C1232.26 271.124 1265.05 288.267 1286.18 313.735L1291.57 309.265C1269.02 282.092 1234.48 264.442 1181.23 253.024L1179.76 259.869ZM1286.18 313.735C1295.52 324.99 1302.67 337.972 1308.22 352.989L1314.78 350.563C1309.01 334.931 1301.5 321.226 1291.57 309.265L1286.18 313.735ZM1278.4 354.323C1280.44 352.4 1281.65 349.997 1281.95 347.277C1282.23 344.63 1281.63 341.914 1280.47 339.271C1278.18 334.04 1273.4 328.384 1266.79 322.655L1262.21 327.944C1268.49 333.396 1272.37 338.239 1274.06 342.082C1274.89 343.975 1275.11 345.44 1274.99 346.524C1274.88 347.535 1274.47 348.413 1273.6 349.229L1278.4 354.323ZM1266.79 322.655C1249.76 307.885 1218.77 291.101 1177.73 278.453L1175.67 285.143C1216.14 297.616 1246.15 314.02 1262.21 327.944L1266.79 322.655ZM1288.66 308.007C1281.01 308.49 1275.25 309.538 1270.81 312.074C1266.19 314.716 1263.46 318.701 1261.27 323.95L1267.73 326.649C1269.6 322.177 1271.51 319.739 1274.29 318.15C1277.25 316.454 1281.65 315.463 1289.1 314.993L1288.66 308.007ZM347.26 150.851L347.26 164.049L354.26 164.049L354.26 150.851L347.26 150.851ZM350.259 167.513C362.433 169.272 371.864 171.603 379.078 174.635L381.79 168.182C373.809 164.828 363.729 162.387 351.261 160.585L350.259 167.513ZM379.078 174.635C387.4 178.133 392.622 182.496 395.783 187.869L401.817 184.32C397.693 177.31 391.096 172.093 381.79 168.182L379.078 174.635ZM402.3 186.095V164.26H395.3V186.095H402.3ZM402.3 164.26V91.3487H395.3V164.26H402.3ZM347.26 115.652L347.26 150.851L354.26 150.851L354.26 115.652L347.26 115.652ZM381.138 167.883C380.855 167.883 380.545 167.895 380.222 167.915L380.647 174.902C380.878 174.888 381.04 174.883 381.138 174.883V167.883ZM380.222 167.915C375.932 168.176 362.998 170.271 352.703 175.827C347.549 178.608 342.63 182.483 340.048 187.847C337.365 193.423 337.496 199.99 341.291 207.348L347.513 204.14C344.534 198.365 344.792 194.133 346.356 190.883C348.021 187.422 351.47 184.446 356.027 181.987C365.154 177.062 377.009 175.123 380.647 174.902L380.222 167.915ZM329.286 165.235C337.017 165.855 343.988 166.606 350.259 167.513L351.261 160.585C344.809 159.652 337.687 158.886 329.846 158.257L329.286 165.235ZM395.783 187.869C397.387 190.596 398.519 193.68 399.22 197.207L406.086 195.843C405.254 191.656 403.871 187.814 401.817 184.32L395.783 187.869ZM395.3 91.3487V186.095H402.3V91.3487H395.3ZM395.3 186.095V188.145H402.3V186.095H395.3ZM354.26 164.26V164.049H347.26V164.26H354.26ZM354.26 164.049V115.652H347.26V164.049H354.26ZM400.518 219.512C398.577 220.688 395.919 221.204 392.244 220.872C388.56 220.539 384.144 219.378 378.969 217.522C368.567 213.792 355.995 207.602 341.306 200.885L338.395 207.251C352.767 213.824 365.833 220.248 376.606 224.111C382.017 226.052 387.073 227.433 391.614 227.844C396.163 228.255 400.485 227.717 404.146 225.499L400.518 219.512ZM339.85 200.568H312.612V207.568H339.85V200.568ZM339.85 207.568H341.576V200.568H339.85V207.568ZM328.164 202.665C331.655 204.192 335.067 205.729 338.395 207.251L341.306 200.885C337.954 199.352 334.506 197.798 330.968 196.252L328.164 202.665ZM550.751 374.523C556.021 375.204 559.848 375.924 562.589 376.664L564.411 369.905C561.244 369.051 557.072 368.282 551.648 367.58L550.751 374.523ZM306.618 181.089C312.308 187.268 319.196 194.23 327.122 201.964L332.01 196.953C324.126 189.261 317.337 182.395 311.767 176.347L306.618 181.089ZM350.95 160.765C331.027 159.685 314.393 161.859 306.119 177.043L312.266 180.392C318.31 169.302 330.569 166.67 350.571 167.755L350.95 160.765ZM312.167 180.576C312.2 180.514 312.233 180.453 312.266 180.392L306.119 177.043C306.077 177.12 306.035 177.198 305.993 177.276L312.167 180.576ZM351.542 147.44C334.774 143.596 321.669 141.258 311.942 140.485C307.08 140.098 302.94 140.092 299.547 140.527C296.208 140.955 293.236 141.854 291.039 143.575C288.659 145.44 287.496 148.03 287.5 150.974C287.504 153.71 288.504 156.607 290.011 159.521C293.032 165.367 298.795 172.594 306.618 181.089L311.767 176.347C303.989 167.901 298.788 161.258 296.229 156.307C294.945 153.823 294.502 152.09 294.5 150.965C294.499 150.048 294.77 149.545 295.356 149.086C296.125 148.483 297.652 147.827 300.438 147.47C303.169 147.12 306.779 147.097 311.387 147.463C320.599 148.195 333.309 150.442 349.978 154.263L351.542 147.44ZM1181.23 253.024C1149.45 246.21 1110.87 241.588 1064 238.524L1063.54 245.509C1110.24 248.561 1148.44 253.154 1179.76 259.869L1181.23 253.024ZM668.367 168.705C661.709 179.851 650.366 188.004 635.173 193.381L637.508 199.98C653.728 194.24 666.64 185.246 674.376 172.295L668.367 168.705ZM648.541 219.673C657.261 217.454 664.944 214.9 671.169 212.019C677.329 209.168 682.373 205.857 685.481 201.968L680.012 197.598C677.9 200.242 674.002 202.994 668.229 205.666C662.522 208.307 655.28 210.735 646.815 212.889L648.541 219.673ZM686.215 199.315C684.372 185.654 677.839 174.06 674.311 168.6L668.432 172.4C671.735 177.511 677.636 188.082 679.278 200.251L686.215 199.315ZM522.856 196.222C482.965 189.727 440.018 177.307 400.123 161.02L397.477 167.5C437.814 183.968 481.27 196.543 521.731 203.131L522.856 196.222ZM439.977 215.732C460.329 223.239 487.443 227.584 516.08 229.363L516.514 222.376C488.184 220.617 461.838 216.334 442.399 209.165L439.977 215.732Z" fill="#414042"/>
<path d="M709 136C709 140.418 705.642 144 701.5 144C697.358 144 694 140.418 694 136C694 131.582 697.358 128 701.5 128C705.642 128 709 131.582 709 136Z" fill="white"/>
<path d="M776 136C776 140.418 772.194 144 767.5 144C762.806 144 759 140.418 759 136C759 131.582 762.806 128 767.5 128C772.194 128 776 131.582 776 136Z" fill="white"/>
<path d="M457.766 418H444.875V347.828H457.766V418ZM516.172 418H513.078L508.109 411.109C506.891 412.203 505.594 413.234 504.219 414.203C502.875 415.141 501.453 415.969 499.953 416.688C498.453 417.375 496.906 417.922 495.312 418.328C493.75 418.734 492.156 418.938 490.531 418.938C487 418.938 483.672 418.344 480.547 417.156C477.453 415.969 474.734 414.25 472.391 412C470.078 409.719 468.25 406.938 466.906 403.656C465.562 400.375 464.891 396.641 464.891 392.453C464.891 388.547 465.562 384.969 466.906 381.719C468.25 378.438 470.078 375.625 472.391 373.281C474.734 370.938 477.453 369.125 480.547 367.844C483.672 366.531 487 365.875 490.531 365.875C492.156 365.875 493.766 366.078 495.359 366.484C496.953 366.891 498.5 367.453 500 368.172C501.5 368.891 502.922 369.734 504.266 370.703C505.641 371.672 506.922 372.719 508.109 373.844L513.078 367.891H516.172V418ZM503.281 392.453C503.281 390.703 502.938 389.016 502.25 387.391C501.594 385.734 500.688 384.281 499.531 383.031C498.375 381.75 497.016 380.734 495.453 379.984C493.922 379.203 492.281 378.812 490.531 378.812C488.781 378.812 487.125 379.109 485.562 379.703C484.031 380.297 482.688 381.172 481.531 382.328C480.406 383.484 479.516 384.922 478.859 386.641C478.203 388.328 477.875 390.266 477.875 392.453C477.875 394.641 478.203 396.594 478.859 398.312C479.516 400 480.406 401.422 481.531 402.578C482.688 403.734 484.031 404.609 485.562 405.203C487.125 405.797 488.781 406.094 490.531 406.094C492.281 406.094 493.922 405.719 495.453 404.969C497.016 404.188 498.375 403.172 499.531 401.922C500.688 400.641 501.594 399.188 502.25 397.562C502.938 395.906 503.281 394.203 503.281 392.453ZM538.766 418H525.969V367.797H529.062L533.281 372.672C535.344 370.797 537.672 369.359 540.266 368.359C542.891 367.328 545.625 366.812 548.469 366.812C551.531 366.812 554.422 367.406 557.141 368.594C559.859 369.75 562.234 371.359 564.266 373.422C566.297 375.453 567.891 377.844 569.047 380.594C570.234 383.312 570.828 386.219 570.828 389.312V418H558.031V389.312C558.031 388 557.781 386.766 557.281 385.609C556.781 384.422 556.094 383.391 555.219 382.516C554.344 381.641 553.328 380.953 552.172 380.453C551.016 379.953 549.781 379.703 548.469 379.703C547.125 379.703 545.859 379.953 544.672 380.453C543.484 380.953 542.453 381.641 541.578 382.516C540.703 383.391 540.016 384.422 539.516 385.609C539.016 386.766 538.766 388 538.766 389.312V418ZM628.484 418H625.391L620.422 411.109C619.203 412.203 617.906 413.234 616.531 414.203C615.188 415.141 613.766 415.969 612.266 416.688C610.766 417.375 609.219 417.922 607.625 418.328C606.062 418.734 604.469 418.938 602.844 418.938C599.312 418.938 595.984 418.281 592.859 416.969C589.766 415.625 587.047 413.781 584.703 411.438C582.391 409.062 580.562 406.266 579.219 403.047C577.875 399.797 577.203 396.266 577.203 392.453C577.203 388.672 577.875 385.156 579.219 381.906C580.562 378.656 582.391 375.844 584.703 373.469C587.047 371.094 589.766 369.234 592.859 367.891C595.984 366.547 599.312 365.875 602.844 365.875C603.969 365.875 605.125 365.969 606.312 366.156C607.531 366.344 608.703 366.656 609.828 367.094C610.984 367.5 612.062 368.047 613.062 368.734C614.062 369.422 614.906 370.266 615.594 371.266V347.828H628.484V418ZM615.594 392.453C615.594 390.703 615.25 389.016 614.562 387.391C613.906 385.734 613 384.281 611.844 383.031C610.688 381.75 609.328 380.734 607.766 379.984C606.234 379.203 604.594 378.812 602.844 378.812C601.094 378.812 599.438 379.125 597.875 379.75C596.344 380.375 595 381.281 593.844 382.469C592.719 383.625 591.828 385.047 591.172 386.734C590.516 388.422 590.188 390.328 590.188 392.453C590.188 394.297 590.516 396.047 591.172 397.703C591.828 399.359 592.719 400.812 593.844 402.062C595 403.312 596.344 404.297 597.875 405.016C599.438 405.734 601.094 406.094 602.844 406.094C604.594 406.094 606.234 405.719 607.766 404.969C609.328 404.188 610.688 403.172 611.844 401.922C613 400.641 613.906 399.188 614.562 397.562C615.25 395.906 615.594 394.203 615.594 392.453ZM680 418H666.547V350.781H680V377.688H706.859V350.781H720.312V418H706.859V391.141H680V418ZM746.562 354.156C746.562 355.344 746.328 356.453 745.859 357.484C745.422 358.516 744.812 359.422 744.031 360.203C743.25 360.953 742.328 361.562 741.266 362.031C740.234 362.469 739.125 362.688 737.938 362.688C736.75 362.688 735.625 362.469 734.562 362.031C733.531 361.562 732.625 360.953 731.844 360.203C731.094 359.422 730.484 358.516 730.016 357.484C729.578 356.453 729.359 355.344 729.359 354.156C729.359 353 729.578 351.906 730.016 350.875C730.484 349.812 731.094 348.906 731.844 348.156C732.625 347.375 733.531 346.766 734.562 346.328C735.625 345.859 736.75 345.625 737.938 345.625C739.125 345.625 740.234 345.859 741.266 346.328C742.328 346.766 743.25 347.375 744.031 348.156C744.812 348.906 745.422 349.812 745.859 350.875C746.328 351.906 746.562 353 746.562 354.156ZM744.359 418H731.469V367.797H744.359V418ZM789.875 392.453C789.875 390.703 789.531 389.016 788.844 387.391C788.188 385.734 787.281 384.281 786.125 383.031C784.969 381.75 783.609 380.734 782.047 379.984C780.516 379.203 778.875 378.812 777.125 378.812C775.375 378.812 773.719 379.109 772.156 379.703C770.625 380.297 769.281 381.172 768.125 382.328C767 383.484 766.109 384.922 765.453 386.641C764.797 388.328 764.469 390.266 764.469 392.453C764.469 394.547 764.797 396.438 765.453 398.125C766.109 399.781 767 401.203 768.125 402.391C769.281 403.578 770.625 404.5 772.156 405.156C773.719 405.781 775.375 406.094 777.125 406.094C778.875 406.094 780.516 405.719 782.047 404.969C783.609 404.188 784.969 403.172 786.125 401.922C787.281 400.641 788.188 399.188 788.844 397.562C789.531 395.906 789.875 394.203 789.875 392.453ZM802.766 411.672C802.766 415.203 802.094 418.516 800.75 421.609C799.406 424.703 797.562 427.406 795.219 429.719C792.906 432.031 790.188 433.859 787.062 435.203C783.969 436.547 780.656 437.219 777.125 437.219L770.703 437.125V424.328L777.031 424.422C779.031 424.422 780.734 424.156 782.141 423.625C783.547 423.125 784.734 422.422 785.703 421.516C786.672 420.641 787.438 419.625 788 418.469C788.594 417.312 789.062 416.094 789.406 414.812C788.906 415.625 788.188 416.297 787.25 416.828C786.312 417.328 785.266 417.734 784.109 418.047C782.984 418.391 781.797 418.625 780.547 418.75C779.328 418.875 778.188 418.938 777.125 418.938C773.594 418.938 770.266 418.328 767.141 417.109C764.047 415.891 761.328 414.156 758.984 411.906C756.672 409.625 754.844 406.844 753.5 403.562C752.156 400.281 751.484 396.578 751.484 392.453C751.484 388.672 752.156 385.156 753.5 381.906C754.844 378.656 756.672 375.844 758.984 373.469C761.328 371.094 764.047 369.234 767.141 367.891C770.266 366.547 773.594 365.875 777.125 365.875C778.75 365.875 780.359 366.078 781.953 366.484C783.547 366.891 785.094 367.453 786.594 368.172C788.094 368.891 789.516 369.734 790.859 370.703C792.234 371.672 793.516 372.719 794.703 373.844L799.672 367.891H802.766V411.672ZM825.359 418H812.562V347.828H825.359V370C826.891 368.844 828.469 368.031 830.094 367.562C831.719 367.062 833.375 366.812 835.062 366.812C838.156 366.812 841.062 367.406 843.781 368.594C846.5 369.75 848.859 371.359 850.859 373.422C852.891 375.453 854.484 377.844 855.641 380.594C856.828 383.312 857.422 386.219 857.422 389.312V418H844.531V389.312H844.625C844.625 388 844.375 386.766 843.875 385.609C843.375 384.422 842.688 383.391 841.812 382.516C840.938 381.641 839.922 380.953 838.766 380.453C837.609 379.953 836.375 379.703 835.062 379.703C833.719 379.703 832.453 379.953 831.266 380.453C830.078 380.953 829.047 381.641 828.172 382.516C827.297 383.391 826.609 384.422 826.109 385.609C825.609 386.766 825.359 388 825.359 389.312V418ZM908.281 364.234V391.141H921.734C923.578 391.141 925.312 390.797 926.938 390.109C928.562 389.391 929.984 388.422 931.203 387.203C932.422 385.984 933.375 384.562 934.062 382.938C934.781 381.281 935.141 379.531 935.141 377.688C935.141 375.844 934.781 374.109 934.062 372.484C933.375 370.828 932.422 369.391 931.203 368.172C929.984 366.953 928.562 366 926.938 365.312C925.312 364.594 923.578 364.234 921.734 364.234H908.281ZM908.281 418H894.828V350.781H921.734C924.203 350.781 926.578 351.109 928.859 351.766C931.141 352.391 933.266 353.297 935.234 354.484C937.234 355.641 939.047 357.047 940.672 358.703C942.328 360.328 943.734 362.141 944.891 364.141C946.078 366.141 946.984 368.281 947.609 370.562C948.266 372.844 948.594 375.219 948.594 377.688C948.594 380 948.297 382.25 947.703 384.438C947.141 386.625 946.312 388.703 945.219 390.672C944.156 392.641 942.844 394.453 941.281 396.109C939.719 397.766 937.969 399.203 936.031 400.422L943.484 418H929.188L923.328 404.453L908.281 404.547V418ZM1004.05 392.453C1004.05 396.203 1003.38 399.703 1002.03 402.953C1000.69 406.172 998.859 408.969 996.547 411.344C994.234 413.688 991.516 415.547 988.391 416.922C985.297 418.266 981.969 418.938 978.406 418.938C974.875 418.938 971.547 418.266 968.422 416.922C965.328 415.547 962.609 413.688 960.266 411.344C957.953 408.969 956.125 406.172 954.781 402.953C953.438 399.703 952.766 396.203 952.766 392.453C952.766 388.641 953.438 385.109 954.781 381.859C956.125 378.609 957.953 375.812 960.266 373.469C962.609 371.094 965.328 369.234 968.422 367.891C971.547 366.547 974.875 365.875 978.406 365.875C981.969 365.875 985.297 366.516 988.391 367.797C991.516 369.047 994.234 370.844 996.547 373.188C998.859 375.5 1000.69 378.297 1002.03 381.578C1003.38 384.828 1004.05 388.453 1004.05 392.453ZM991.156 392.453C991.156 390.391 990.812 388.531 990.125 386.875C989.469 385.188 988.562 383.75 987.406 382.562C986.25 381.344 984.891 380.422 983.328 379.797C981.797 379.141 980.156 378.812 978.406 378.812C976.656 378.812 975 379.141 973.438 379.797C971.906 380.422 970.562 381.344 969.406 382.562C968.281 383.75 967.391 385.188 966.734 386.875C966.078 388.531 965.75 390.391 965.75 392.453C965.75 394.391 966.078 396.188 966.734 397.844C967.391 399.5 968.281 400.938 969.406 402.156C970.562 403.375 971.906 404.344 973.438 405.062C975 405.75 976.656 406.094 978.406 406.094C980.156 406.094 981.797 405.766 983.328 405.109C984.891 404.453 986.25 403.531 987.406 402.344C988.562 401.156 989.469 399.719 990.125 398.031C990.812 396.344 991.156 394.484 991.156 392.453ZM1061.38 392.453C1061.38 396.391 1060.7 399.984 1059.36 403.234C1058.02 406.484 1056.19 409.281 1053.88 411.625C1051.56 413.938 1048.84 415.734 1045.72 417.016C1042.62 418.297 1039.3 418.938 1035.73 418.938C1032.2 418.938 1028.88 418.281 1025.75 416.969C1022.66 415.656 1019.94 413.828 1017.59 411.484C1015.28 409.141 1013.45 406.359 1012.11 403.141C1010.77 399.891 1010.09 396.328 1010.09 392.453V347.828H1022.94V371.266C1023.62 370.391 1024.45 369.609 1025.42 368.922C1026.42 368.234 1027.48 367.672 1028.61 367.234C1029.77 366.797 1030.95 366.469 1032.17 366.25C1033.39 366 1034.58 365.875 1035.73 365.875C1039.3 365.875 1042.62 366.547 1045.72 367.891C1048.84 369.203 1051.56 371.047 1053.88 373.422C1056.19 375.797 1058.02 378.609 1059.36 381.859C1060.7 385.078 1061.38 388.609 1061.38 392.453ZM1048.48 392.453C1048.48 390.516 1048.14 388.719 1047.45 387.062C1046.8 385.375 1045.89 383.922 1044.73 382.703C1043.58 381.484 1042.22 380.531 1040.66 379.844C1039.12 379.156 1037.48 378.812 1035.73 378.812C1033.98 378.812 1032.33 379.203 1030.77 379.984C1029.23 380.734 1027.89 381.75 1026.73 383.031C1025.58 384.281 1024.67 385.734 1024.02 387.391C1023.36 389.016 1023.03 390.703 1023.03 392.453C1023.03 394.391 1023.36 396.188 1024.02 397.844C1024.67 399.5 1025.58 400.938 1026.73 402.156C1027.89 403.375 1029.23 404.344 1030.77 405.062C1032.33 405.75 1033.98 406.094 1035.73 406.094C1037.48 406.094 1039.12 405.75 1040.66 405.062C1042.22 404.344 1043.58 403.375 1044.73 402.156C1045.89 400.938 1046.8 399.5 1047.45 397.844C1048.14 396.188 1048.48 394.391 1048.48 392.453ZM1117.02 392.453C1117.02 396.203 1116.34 399.703 1115 402.953C1113.66 406.172 1111.83 408.969 1109.52 411.344C1107.2 413.688 1104.48 415.547 1101.36 416.922C1098.27 418.266 1094.94 418.938 1091.38 418.938C1087.84 418.938 1084.52 418.266 1081.39 416.922C1078.3 415.547 1075.58 413.688 1073.23 411.344C1070.92 408.969 1069.09 406.172 1067.75 402.953C1066.41 399.703 1065.73 396.203 1065.73 392.453C1065.73 388.641 1066.41 385.109 1067.75 381.859C1069.09 378.609 1070.92 375.812 1073.23 373.469C1075.58 371.094 1078.3 369.234 1081.39 367.891C1084.52 366.547 1087.84 365.875 1091.38 365.875C1094.94 365.875 1098.27 366.516 1101.36 367.797C1104.48 369.047 1107.2 370.844 1109.52 373.188C1111.83 375.5 1113.66 378.297 1115 381.578C1116.34 384.828 1117.02 388.453 1117.02 392.453ZM1104.12 392.453C1104.12 390.391 1103.78 388.531 1103.09 386.875C1102.44 385.188 1101.53 383.75 1100.38 382.562C1099.22 381.344 1097.86 380.422 1096.3 379.797C1094.77 379.141 1093.12 378.812 1091.38 378.812C1089.62 378.812 1087.97 379.141 1086.41 379.797C1084.88 380.422 1083.53 381.344 1082.38 382.562C1081.25 383.75 1080.36 385.188 1079.7 386.875C1079.05 388.531 1078.72 390.391 1078.72 392.453C1078.72 394.391 1079.05 396.188 1079.7 397.844C1080.36 399.5 1081.25 400.938 1082.38 402.156C1083.53 403.375 1084.88 404.344 1086.41 405.062C1087.97 405.75 1089.62 406.094 1091.38 406.094C1093.12 406.094 1094.77 405.766 1096.3 405.109C1097.86 404.453 1099.22 403.531 1100.38 402.344C1101.53 401.156 1102.44 399.719 1103.09 398.031C1103.78 396.344 1104.12 394.484 1104.12 392.453ZM1148.89 418C1145.8 418 1142.89 417.422 1140.17 416.266C1137.45 415.078 1135.06 413.469 1133 411.438C1130.97 409.375 1129.36 406.984 1128.17 404.266C1127.02 401.547 1126.44 398.641 1126.44 395.547V380.641H1120.2V367.891H1126.44V347.828H1139.19V367.891H1158.59V380.641H1139.19V395.547C1139.19 396.891 1139.44 398.156 1139.94 399.344C1140.44 400.5 1141.12 401.516 1142 402.391C1142.88 403.266 1143.91 403.969 1145.09 404.5C1146.28 405 1147.55 405.25 1148.89 405.25H1158.59V418H1148.89ZM1180.91 354.156C1180.91 355.344 1180.67 356.453 1180.2 357.484C1179.77 358.516 1179.16 359.422 1178.38 360.203C1177.59 360.953 1176.67 361.562 1175.61 362.031C1174.58 362.469 1173.47 362.688 1172.28 362.688C1171.09 362.688 1169.97 362.469 1168.91 362.031C1167.88 361.562 1166.97 360.953 1166.19 360.203C1165.44 359.422 1164.83 358.516 1164.36 357.484C1163.92 356.453 1163.7 355.344 1163.7 354.156C1163.7 353 1163.92 351.906 1164.36 350.875C1164.83 349.812 1165.44 348.906 1166.19 348.156C1166.97 347.375 1167.88 346.766 1168.91 346.328C1169.97 345.859 1171.09 345.625 1172.28 345.625C1173.47 345.625 1174.58 345.859 1175.61 346.328C1176.67 346.766 1177.59 347.375 1178.38 348.156C1179.16 348.906 1179.77 349.812 1180.2 350.875C1180.67 351.906 1180.91 353 1180.91 354.156ZM1178.7 418H1165.81V367.797H1178.7V418ZM1232.38 377.781L1223 387.203C1222.53 385.891 1221.89 384.719 1221.08 383.688C1220.27 382.625 1219.34 381.734 1218.31 381.016C1217.31 380.297 1216.22 379.75 1215.03 379.375C1213.84 379 1212.62 378.812 1211.38 378.812C1209.62 378.812 1207.97 379.172 1206.41 379.891C1204.88 380.609 1203.53 381.625 1202.38 382.938C1201.25 384.219 1200.36 385.75 1199.7 387.531C1199.05 389.312 1198.72 391.281 1198.72 393.438C1198.72 395.188 1199.05 396.828 1199.7 398.359C1200.36 399.891 1201.25 401.234 1202.38 402.391C1203.53 403.547 1204.88 404.453 1206.41 405.109C1207.97 405.766 1209.62 406.094 1211.38 406.094C1212.62 406.094 1213.83 405.922 1214.98 405.578C1216.14 405.234 1217.22 404.75 1218.22 404.125C1219.25 403.469 1220.16 402.688 1220.94 401.781C1221.75 400.844 1222.41 399.812 1222.91 398.688L1232.28 408.109C1231.09 409.797 1229.72 411.312 1228.16 412.656C1226.62 414 1224.95 415.141 1223.14 416.078C1221.36 417.016 1219.47 417.719 1217.47 418.188C1215.5 418.688 1213.47 418.938 1211.38 418.938C1207.84 418.938 1204.52 418.281 1201.39 416.969C1198.3 415.625 1195.58 413.797 1193.23 411.484C1190.92 409.172 1189.09 406.469 1187.75 403.375C1186.41 400.281 1185.73 396.969 1185.73 393.438C1185.73 389.594 1186.41 386 1187.75 382.656C1189.09 379.312 1190.92 376.406 1193.23 373.938C1195.58 371.438 1198.3 369.469 1201.39 368.031C1204.52 366.594 1207.84 365.875 1211.38 365.875C1213.47 365.875 1215.52 366.141 1217.52 366.672C1219.55 367.203 1221.47 367.984 1223.28 369.016C1225.12 370.016 1226.81 371.25 1228.34 372.719C1229.91 374.188 1231.25 375.875 1232.38 377.781Z" fill="white"/>
<path d="M1251 368H1264.31C1263.33 373.286 1263.15 375.882 1262.84 380.5H1252C1248.84 382.893 1249.2 384.333 1252 387H1268.5C1287.5 391.5 1286.5 413.5 1268.5 418H1237V405.5H1267.5C1269.82 402.856 1270.4 401.527 1267.5 400H1251C1232.5 395.5 1232.5 372 1251 368Z" fill="white"/>
</g>
<defs>
<clipPath id="clip0">
<rect width="1500" height="500" fill="white"/>
</clipPath>
</defs>
</svg>
