<svg width="601" height="214" viewBox="0 0 601 214" fill="none" xmlns="http://www.w3.org/2000/svg">
<path d="M56.7671 2.05216C54.8811 3.91217 53.6553 4.19117 46.9602 4.19117H39.2279L38.0021 7.16719C36.4933 10.7942 32.5329 13.0262 27.5351 13.0262C23.4804 13.0262 21.3116 14.7002 22.2545 17.1182C23.1032 19.2573 17.3511 25.1163 14.4279 25.1163C11.599 25.1163 8.77012 29.2083 10.3732 31.1613C11.2218 32.1843 11.0332 33.2073 9.3359 36.2764C8.11004 38.4154 6.507 39.9964 5.56404 39.9964C3.01803 39.9964 2.35795 41.7634 2.26366 49.1104C2.26366 52.9235 1.79217 56.2715 1.1321 56.9225C-0.282352 58.3175 -0.376649 64.7345 0.943503 65.5715C1.41499 65.8505 1.88647 67.4315 1.88647 69.1056C1.79217 70.7796 2.07506 73.6626 2.45225 75.6156C2.82943 77.7546 2.54654 80.2656 1.79217 82.0326C0.660613 84.7296 0.75491 85.0086 3.39521 87.0547C4.90396 88.2637 6.31841 89.2867 6.6013 89.2867C6.88419 89.2867 8.01575 86.9617 9.1473 84.1716C10.3732 81.3816 12.542 77.2896 14.145 75.2436C15.6538 73.1046 16.9739 70.8726 16.9739 70.2216C16.9739 69.6636 18.3884 67.8035 20.18 66.1295C22.0659 64.3625 23.669 61.6655 24.0462 59.8985C24.3291 58.1315 24.9891 56.7365 25.4606 56.7365C26.0264 56.7365 29.6097 61.0145 33.4758 66.2225C42.8112 78.7776 47.9032 84.6366 50.5435 85.5666C51.7694 86.0316 53.3724 87.8917 54.1268 89.7517C54.9754 91.6117 56.8614 93.7507 58.5587 94.6807C60.1617 95.5177 62.7078 97.1917 64.1222 98.4007C65.5367 99.5167 67.4226 100.447 68.177 100.447C70.0629 100.447 72.0431 102.865 70.8173 103.702C70.2515 103.981 65.4424 104.167 60.1617 104.074C49.6948 103.888 49.5062 103.981 47.7146 110.026C47.2431 111.514 46.7716 111.328 43.1884 108.817C38.5678 105.562 32.1557 97.7497 30.2697 93.2857C29.6097 91.7047 28.1952 89.5657 27.158 88.6357C26.1207 87.7057 24.4233 85.3806 23.3861 83.4276C21.6887 80.1726 21.4059 79.8936 19.9914 81.1956C19.1427 81.9396 17.3511 82.7766 16.031 82.9626C12.7306 83.3346 7.63856 92.4487 9.3359 95.0527C10.0903 96.3547 10.0903 97.1917 9.3359 98.4937C7.63856 101.005 8.95871 103.237 12.0705 103.237C15.4652 103.237 20.7458 108.445 21.5945 112.723C22.1602 115.42 22.6317 115.792 25.6492 116.071C30.6469 116.443 37.1534 120.07 37.5306 122.674C37.9078 125.185 39.7937 126.022 42.1511 124.72C44.7914 123.418 51.7694 125.278 54.9754 128.161C57.2386 130.3 57.8986 130.486 60.6332 129.556C65.5367 127.882 73.269 127.138 74.0233 128.254C75.1549 130.114 78.9268 129.37 80.4355 127.045C82.2271 124.441 89.2051 121.837 92.7884 122.488C95.8058 123.046 98.069 121.372 98.069 118.582C98.069 115.699 104.293 110.956 108.442 110.491C111.553 110.212 111.742 110.026 111.459 107.143C111.27 104.539 112.119 103.33 117.871 97.6567L124.378 91.1467H176.807C205.567 91.1467 229.141 90.8677 229.141 90.5887C229.141 90.3097 228.293 89.0077 227.255 87.7057C225.841 85.8457 225.464 84.5436 225.935 82.1256L226.501 79.0566H128.527V75.0576C128.527 72.9186 128.244 69.6636 127.867 67.7105C127.301 65.2925 127.49 63.5255 128.621 61.2935C130.601 57.2945 130.507 55.8995 127.961 53.1095C124.755 49.5754 123.152 44.2744 124.566 42.0424C126.075 39.7174 125.132 37.3924 122.209 36.2764C118.814 35.0674 115.231 29.8593 114.854 25.5813C114.571 22.0473 114.382 21.7683 110.61 20.9313C105.236 19.6293 101.086 16.4672 100.709 13.3052C100.426 10.8872 100.049 10.7012 95.2401 10.2362C89.2051 9.58521 84.396 7.35319 83.7359 4.84218C83.2644 3.16817 82.3214 2.98217 74.5891 2.98217C67.8941 2.98217 65.5367 2.70316 64.2165 1.49416C61.9534 -0.551854 59.2188 -0.365853 56.7671 2.05216ZM63.6507 3.35417C65.2538 4.37717 68.3656 4.93518 73.6462 5.02818C79.964 5.12118 81.3785 5.40018 82.2271 6.79519C83.453 9.0272 88.8279 11.3522 94.2971 12.0032C97.126 12.3752 98.5405 13.0262 98.6347 13.9562C98.729 14.7002 98.8233 15.8162 98.8233 16.3742C99.1062 17.8623 105.801 22.0473 109.479 23.0703C112.213 23.7213 112.685 24.2793 112.685 26.6973C112.779 30.1383 116.834 35.7184 120.794 37.6714C123.906 39.2524 123.906 39.3454 122.492 42.0424C121.077 44.6464 122.775 50.0404 126.075 54.0395C128.055 56.3645 128.338 57.2015 127.49 58.5965C125.792 61.3865 125.226 66.5015 126.264 70.3146C126.829 72.2676 127.018 74.0346 126.829 74.2206C126.075 75.0576 123.435 72.2676 121.643 68.7336C120.606 66.8735 117.683 63.2465 115.042 60.7355C112.402 58.3175 109.385 54.8765 108.347 53.2025C107.31 51.6214 105.99 50.2264 105.518 50.2264C105.047 50.2264 102.784 51.9005 100.521 53.9465L96.3716 57.6665L89.9595 51.1564C83.8302 44.8324 83.5473 44.6464 81.4728 46.0414C80.2469 46.7854 78.6439 47.4364 77.8895 47.4364C77.1351 47.4364 73.6462 44.2744 70.1572 40.4614C66.6682 36.6484 63.3678 33.4863 62.8021 33.4863C61.1047 33.4863 48.0918 44.1814 43.7541 49.1104C41.2081 51.9935 37.9078 54.4115 34.796 55.7135L29.9868 57.8525L23.7633 51.9005L20.18 55.1555C18.1055 56.9225 14.4279 59.2475 11.7876 60.3635C9.2416 61.4795 6.31841 63.3395 5.46974 64.4555C4.05529 66.2225 3.6781 66.3155 2.82943 65.1065C1.50928 63.0605 1.69788 60.2705 3.39521 56.1785C4.43248 53.8535 4.80966 50.9704 4.52677 47.7154C4.14959 43.4374 4.33818 42.7864 5.84693 42.7864C8.48723 42.7864 12.6363 35.8114 12.542 31.5333C12.3534 28.3713 12.6363 27.9063 14.4279 27.9063C15.5595 27.9063 16.9739 27.5343 17.634 27.1623C20.0857 25.5813 24.5176 19.0713 24.5176 16.9322C24.5176 14.8862 24.8005 14.7002 27.5351 15.0722C29.5154 15.3512 31.8728 14.8862 34.1359 13.7702C38.0964 11.7242 39.2279 10.5152 39.6994 8.0042C40.0766 6.42319 41.0195 6.23719 47.9032 6.05118C54.5983 5.95818 55.9184 5.67918 57.71 3.91217C60.256 1.49416 60.6332 1.40116 63.6507 3.35417ZM72.1374 46.5064L78.7382 54.8765L81.5671 51.6215L84.396 48.2734L87.6963 52.7375C89.488 55.1555 91.9397 57.6665 93.1655 58.2245L95.2401 59.2475L93.3541 61.5725C90.1481 65.7575 89.488 68.3615 90.9024 72.9186C91.6568 75.2436 92.034 77.2896 91.7511 77.5686C91.5625 77.7546 89.9595 77.5686 88.3564 77.1036C86.6591 76.6386 85.056 76.2666 84.7731 76.2666C83.9245 76.2666 77.1351 85.3806 75.815 88.3567C75.2492 89.6587 73.6462 91.7047 72.326 92.9137L69.8743 95.0527L66.7625 93.0067C63.0849 90.4957 59.9732 87.7057 52.8066 80.5446C49.8834 77.6616 47.1488 75.3366 46.4887 75.3366C45.1686 75.3366 36.7762 67.5245 36.7762 66.2225C36.7762 64.9205 41.8682 60.7355 44.5085 59.9915C45.5458 59.6195 49.9777 58.7825 54.1268 58.2245C61.199 57.2945 61.7648 57.0155 62.0477 54.8765C62.2363 53.5745 63.0849 51.8075 63.9336 50.8774C64.688 50.0404 65.0652 49.0174 64.7823 48.6454C63.745 47.7154 60.4446 51.1564 60.1617 53.5745C59.7846 56.7365 57.9929 55.8995 58.1815 52.7375C58.3701 49.2964 61.9534 45.3904 64.3108 46.1344C65.4424 46.4134 66.0081 46.1344 66.0081 45.2044C66.0081 44.3674 65.3481 43.7164 64.5937 43.7164C63.1792 43.7164 62.6135 39.9964 63.8393 38.7874C64.9709 37.5784 65.5367 38.1364 72.1374 46.5064ZM114.759 63.8045C118.06 66.8735 120.7 69.9426 120.7 70.5006C120.7 71.0586 121.737 72.7326 123.058 74.2206L125.321 76.9176L123.246 81.0096C122.115 83.2416 120.983 87.1477 120.7 89.7517C120.323 93.5647 119.851 94.4947 118.248 94.6807C115.608 95.0527 111.553 91.6117 110.799 88.3567C110.422 86.7757 109.856 85.5666 109.479 85.5666C108.442 85.5666 97.126 98.3077 97.126 99.4237C97.126 99.9817 96.7488 100.447 96.183 100.447C95.7116 100.447 95.2401 99.5167 95.2401 98.3077C95.2401 95.7037 100.049 82.5906 103.255 76.2666C105.99 70.8726 106.178 68.1756 104.104 63.8045C102.595 60.8285 102.595 60.3635 104.198 57.1085L105.896 53.5745L107.404 55.8065C108.159 57.1085 111.553 60.6425 114.759 63.8045Z" fill="white"/>
<path d="M107.782 67.4315C108.63 70.2216 108.442 71.6166 106.65 76.0806C105.518 78.9636 104.104 82.1256 103.632 83.0556C103.067 84.0786 102.878 85.0086 103.067 85.1946C103.727 85.8456 106.178 81.6606 108.819 75.4296C111.176 70.0356 111.176 69.5706 109.856 66.9665C107.876 63.1535 106.461 63.4325 107.782 67.4315Z" fill="white"/>
<path d="M110.045 78.2196C109.667 79.7076 109.762 79.8936 110.893 78.9636C112.402 77.7546 112.685 76.2666 111.365 76.2666C110.893 76.2666 110.328 77.1036 110.045 78.2196Z" fill="white"/>
<path d="M273.178 20.6523L267.614 23.4423L269.594 25.4883C271.48 27.4413 271.575 28.5573 271.575 47.7154V67.8965L269.029 69.1056C266.483 70.1286 266.577 70.2216 271.386 70.5006C274.026 70.6866 278.553 70.6866 281.287 70.5006C285.908 70.2216 286.002 70.1286 283.739 69.1056C282.324 68.5476 281.004 67.3385 280.627 66.5015C279.873 64.3625 279.967 45.3904 280.816 44.0884C281.853 42.5074 286.662 41.9494 289.68 42.9724C293.451 44.2744 294.206 46.8784 294.206 57.6665C294.206 66.5945 294.112 66.8735 291.66 68.7336L289.02 70.5936L298.261 70.6866C307.407 70.6866 309.293 70.0356 305.333 68.3615C303.258 67.5245 303.164 66.7805 302.693 55.0625L302.221 42.6004L299.109 39.9034C295.337 36.5554 291.943 36.4624 285.719 39.5314C283.173 40.8334 280.816 41.8564 280.439 41.8564C280.156 41.8564 280.061 36.5554 280.156 30.0453C280.344 22.9773 280.156 18.2343 279.59 18.1413C279.024 18.0483 276.195 19.1643 273.178 20.6523Z" fill="white"/>
<path d="M210.942 20.2803C209.056 22.3263 208.867 26.1393 210.47 27.7203C213.394 30.6033 219.712 27.7203 219.712 23.5353C219.712 19.2573 213.865 17.1183 210.942 20.2803Z" fill="white"/>
<path d="M342.391 21.3033C336.262 23.4423 333.245 25.5813 329.378 30.6033C325.701 35.2534 324.381 39.6244 324.381 46.7854C324.381 60.7355 334.565 70.1286 350.972 71.3376C359.176 71.9886 367.851 70.4076 370.115 67.8965C372.095 65.6645 375.489 54.1325 374.358 53.4815C373.886 53.2025 372.095 55.1555 370.303 57.9455C366.248 64.0835 362.099 67.6175 357.762 68.4545C350.689 69.7566 342.391 65.0135 338.242 57.2945C336.545 54.1325 336.168 51.9934 336.168 44.5534C336.168 36.2764 336.356 35.3464 338.997 31.1613C342.863 25.1163 348.521 22.0473 355.121 22.5123C361.534 23.0703 365.494 25.9533 368.323 32.2773C369.549 35.0673 371.058 37.0204 371.529 36.7414C372.095 36.4624 372.472 33.2073 372.472 29.6733V23.1633L368.983 21.6753C363.42 19.2573 348.709 19.0713 342.391 21.3033Z" fill="white"/>
<path d="M139.088 22.3263C139.371 22.7913 140.314 23.2563 141.068 23.2563C141.823 23.2563 143.52 24.2793 144.746 25.5813C147.103 27.8133 147.103 27.9063 147.103 46.3204C147.103 64.2695 147.009 64.8275 145.029 66.6875C143.803 67.8035 142.011 68.8266 140.974 69.0126C139.371 69.2916 138.616 70.6866 140.031 70.6866C140.314 70.6866 146.443 70.6866 153.798 70.6866C162.379 70.6866 166.811 70.3146 166.434 69.7566C166.151 69.1986 165.02 68.8265 164.077 68.8265C163.134 68.8265 161.248 67.8965 159.928 66.6875C157.759 64.8275 157.57 63.8045 157.287 55.9925L157.004 47.3434L183.407 47.9014V56.5505C183.407 66.0365 182.747 67.4315 176.995 68.5476C170.489 69.8496 174.543 70.6866 187.556 70.6866C201.607 70.6866 204.624 70.0356 198.778 68.3615C196.986 67.8035 195.194 66.4085 194.534 65.1065C193.12 62.3165 192.837 31.1613 194.157 27.6273C194.723 26.1393 196.42 24.8373 198.401 24.0933C200.286 23.4423 201.795 22.5123 201.795 22.1403C201.795 21.7683 195.666 21.3963 188.122 21.3963C180.578 21.3963 174.449 21.7683 174.449 22.1403C174.449 22.5123 176.241 23.4423 178.41 24.1863C183.03 25.7673 183.69 27.1623 183.785 36.4624L183.879 42.7864H157.004L157.287 35.5324C157.476 31.6263 157.759 27.8133 157.947 27.1623C158.23 26.5113 160.305 25.2093 162.662 24.1863C165.02 23.1633 166.905 22.1403 166.905 21.8613C166.905 21.5823 160.493 21.3963 152.667 21.3963C143.52 21.3963 138.711 21.7683 139.088 22.3263Z" fill="white"/>
<path d="M512.22 35.1604C506.09 40.7404 504.959 42.8794 508.542 42.5074C510.617 42.3214 510.616 42.5074 511.088 54.5045C511.654 70.0356 512.408 71.1516 520.989 70.4076C527.496 69.8496 532.21 68.3615 531.362 66.9665C531.079 66.5015 529.099 66.0365 527.024 66.0365C524.572 66.0365 522.686 65.3855 521.461 64.1765C519.669 62.4095 519.575 61.2935 519.763 52.2725L520.046 42.3214L525.704 42.2284C530.607 42.1354 531.362 41.8564 531.362 40.3684C531.362 38.8804 530.419 38.5084 525.704 38.1364L520.046 37.6714L519.763 33.6723C519.575 31.5333 519.197 29.7663 518.82 29.7663C518.443 29.8593 515.52 32.1843 512.22 35.1604Z" fill="white"/>
<path d="M392.086 37.1134C381.242 40.6474 376.244 51.0634 380.864 60.9215C384.353 68.5475 390.105 71.2446 400.667 70.5006C411.134 69.7566 416.791 63.8045 416.791 53.2955C416.791 46.6924 414.717 42.9724 409.153 39.4384C404.816 36.7414 396.706 35.7184 392.086 37.1134ZM402.458 40.5544C405.947 42.9724 407.362 46.7854 407.362 54.1325C407.362 59.8985 406.985 61.4795 405.004 64.4555C397.272 75.6156 385.296 62.6885 389.445 47.5294C391.426 40.3684 397.461 37.0204 402.458 40.5544Z" fill="white"/>
<path d="M470.54 38.4154C463.468 41.8564 463.374 41.9494 465.826 43.7164C467.806 45.2044 467.994 45.9484 467.994 55.8065C467.994 65.6645 467.9 66.5015 466.014 67.7105C464.883 68.4546 463.94 69.2916 463.94 69.6636C463.94 70.4076 480.819 70.2216 481.573 69.3846C481.856 69.1056 481.102 68.4546 479.782 67.9896C476.764 66.8735 476.198 64.8275 476.198 53.2955C476.198 42.6934 476.67 41.8564 483.176 41.8564C485.534 41.8564 486.948 42.5074 488.362 44.2744C490.06 46.4134 490.343 48.0874 490.343 56.9225C490.343 66.9665 490.343 67.0595 487.891 67.9896C483.931 69.3846 485.911 70.0356 495.058 70.0356C503.733 70.0356 505.336 69.3846 501.47 67.5245C499.395 66.5015 499.301 65.8505 498.829 54.4115C498.547 47.7154 497.981 41.5774 497.509 40.6474C496.472 38.6014 492.134 36.2764 489.117 36.2764C487.891 36.2764 484.779 37.2994 482.233 38.6014C476.481 41.4844 476.198 41.4844 476.198 38.6014C476.198 35.8114 476.01 35.8114 470.54 38.4154Z" fill="white"/>
<path d="M540.037 38.6014C534.191 41.2984 534.002 41.4844 536.171 43.8094C537.585 45.3904 538.057 47.5294 538.34 54.0395C538.717 64.3625 538.151 66.7805 534.945 67.9895C533.625 68.4545 532.776 69.1055 533.059 69.3846C533.908 70.2216 554.464 70.0356 554.464 69.1986C554.559 68.7336 553.333 68.0825 551.824 67.8035C547.109 66.8735 546.921 66.5015 546.921 56.3645C546.921 48.2734 547.204 46.5994 548.618 45.2974C550.881 43.2514 551.918 43.3444 553.993 45.5764C556.256 48.0874 557.67 47.9014 560.028 45.0184C562.48 41.9494 562.574 39.8104 560.216 37.7644C557.765 35.5324 554.559 36.5554 550.127 41.0194C548.147 42.9724 546.261 44.6464 545.978 44.6464C545.695 44.6464 545.6 42.7864 545.789 40.4614C545.978 38.1364 545.789 36.2764 545.412 36.3694C544.94 36.3694 542.489 37.3924 540.037 38.6014Z" fill="white"/>
<path d="M214.054 38.6944C212.734 39.4384 210.47 40.4614 208.962 40.9264L206.227 41.9494L208.302 44.0884C210.188 46.0414 210.282 46.9714 210.093 57.2945C209.81 67.9895 209.716 68.3615 207.736 68.6406C206.51 68.8266 205.567 69.3846 205.567 69.8496C205.567 70.3146 209.622 70.6866 214.525 70.6866C219.429 70.6866 223.672 70.6866 223.955 70.6866C225.558 70.6866 224.521 69.1986 222.729 69.0126C219.146 68.4546 218.58 65.8505 218.863 51.3424C219.146 36.4624 218.957 35.9044 214.054 38.6944Z" fill="white"/>
<path d="M236.968 39.0664C232.159 41.2054 229.141 45.5764 229.141 50.4124C229.141 55.4345 233.95 60.0845 240.174 60.9215C251.018 62.3165 259.41 54.0395 256.487 44.6464C256.11 43.5304 256.959 43.2514 260.259 43.2514C263.371 43.2514 264.502 42.8794 264.502 41.8564C264.502 40.8334 262.805 40.2754 257.43 39.9034C253.564 39.5314 248.849 38.7874 247.058 38.2294C242.626 36.8344 241.588 36.9274 236.968 39.0664ZM247.529 41.8564C248.661 43.1584 249.415 45.6694 249.698 49.2964C250.075 54.2255 249.886 54.9695 247.718 57.1085C244.512 60.1775 242.814 60.1775 239.42 56.8295C237.062 54.4115 236.685 53.3885 236.685 48.7384C236.685 45.1114 237.156 42.8794 238.288 41.6704C240.362 39.3454 245.36 39.5314 247.529 41.8564Z" fill="white"/>
<path d="M424.335 37.8574C419.903 38.4154 418.772 39.7174 421.695 40.8334C424.901 42.0424 425.278 43.3444 425.278 54.5045C425.278 64.6415 426.504 68.9195 429.521 70.1286C432.445 71.2446 438.008 70.5936 442.157 68.8265C447.155 66.5945 446.966 66.5945 446.966 68.8265C446.966 71.0586 446.966 71.0586 455.359 69.1985C461.865 67.7105 464.317 66.0365 459.885 66.0365C455.83 66.0365 455.453 64.6415 455.453 50.4124V36.9274L451.115 37.5784C448.664 37.8574 445.269 38.1364 443.572 38.1364C439.517 38.1364 439.423 39.4384 443.477 40.5544L446.495 41.4844L446.778 52.5514C447.061 64.9205 446.589 66.0365 440.837 66.0365C434.802 66.0365 434.331 64.8275 433.765 50.5054L433.293 37.6714L430.464 37.5784C428.956 37.4854 426.127 37.6714 424.335 37.8574Z" fill="white"/>
<path d="M565.591 40.2754C568.703 43.5304 580.773 71.9886 580.207 74.5926C579.264 78.3126 581.339 75.2436 583.602 69.5705C585.488 64.9205 585.582 64.0835 584.356 62.1305C583.602 61.0145 581.339 55.8995 579.359 50.8774C576.341 43.2514 575.964 41.3914 576.907 39.9034C578.039 38.2294 577.756 38.1364 570.778 38.1364H563.611L565.591 40.2754Z" fill="white"/>
<path d="M589.165 39.7174C591.806 41.5774 591.806 41.9494 588.411 52.3655C585.299 62.0375 585.205 62.3165 586.337 62.3165C586.808 62.3165 587.751 60.5495 588.411 58.3175C590.486 51.4354 594.823 42.8794 597.464 40.4614L600.01 38.1364L593.503 38.2294C587.28 38.2294 587.091 38.3224 589.165 39.7174Z" fill="white"/>
<path d="M232.253 63.8045C230.556 65.1065 229.141 66.8735 229.141 67.8035C229.141 69.5706 231.404 71.8956 234.139 72.8256C236.308 73.5696 236.213 75.0576 233.856 75.8016C231.216 76.6386 227.255 81.6606 227.255 84.1716C227.255 87.0547 231.97 90.8677 236.402 91.5187C240.457 92.2627 249.981 90.6817 250.924 89.1937C251.301 88.5427 251.678 88.7287 252.055 89.6587C252.621 91.0537 267.237 91.1467 409.719 91.1467C507.222 91.1467 566.723 90.7747 566.723 90.3097C566.723 89.7517 566.346 89.1007 565.78 88.8217C564.083 87.7987 564.837 84.2646 567.383 81.6606L569.929 79.0566H418.017C334.47 79.0566 265.445 79.3356 264.597 79.6146C263.748 79.8936 263.088 80.7306 263.088 81.2886C263.088 82.7766 258.562 86.7756 255.261 88.1707C253.753 88.8217 252.81 88.9147 253.187 88.4497C253.47 87.8917 251.678 87.7987 248.661 88.0777C236.874 89.2867 230.084 82.5906 236.402 76.0806C238.759 73.6626 239.42 73.4766 246.586 73.4766C253.375 73.4766 254.507 73.7556 256.299 75.6156C259.128 78.5916 258.939 82.3116 255.921 85.1016C252.527 88.1707 254.035 88.0777 258.185 85.0086C261.296 82.5906 264.031 77.9406 264.031 74.8716C264.031 74.0346 262.805 72.0816 261.296 70.5936C258.656 67.9895 258.185 67.8965 249.509 67.8965C238.948 67.8965 236.025 67.0595 235.553 63.8045L235.27 61.3865L232.253 63.8045Z" fill="white"/>
<path d="M578.227 78.3126C577.567 78.9636 575.587 79.3356 573.795 79.1496C570.306 78.8706 569.552 79.8936 571.909 81.8466C573.041 82.7766 573.607 82.7766 574.738 81.8466C575.493 81.1956 576.153 81.1026 576.153 81.6606C576.153 82.1256 575.493 83.0556 574.738 83.7066C573.512 84.6366 572.946 84.6366 571.438 83.2416C568.986 81.0096 566.723 82.0326 566.723 85.3806C566.723 89.8447 568.515 90.4957 582.282 90.9607C594.823 91.4257 594.823 91.3327 597.275 89.0077C600.293 86.0316 600.293 84.7296 597.747 81.4746C595.766 79.0566 595.483 78.9636 587.845 79.2426C581.905 79.4286 579.924 79.2426 579.736 78.3126C579.547 77.2896 579.264 77.2896 578.227 78.3126ZM577.944 85.9387C577.284 87.2407 576.436 88.3567 575.964 88.3567C574.832 88.3567 575.021 87.6127 576.718 85.0086C578.699 82.1256 579.453 82.6836 577.944 85.9387Z" fill="white"/>
<path d="M235.742 81.3816C235.742 84.4506 239.891 86.4967 246.397 86.4967C252.055 86.4967 256.487 83.9856 256.487 80.8236C256.487 79.1496 255.733 79.0566 246.115 79.0566H235.742V81.3816Z" fill="white"/>
<path d="M477.518 103.144C475.35 104.074 472.898 105.841 472.049 107.05C466.863 114.397 475.255 123.883 485.816 122.488C490.531 121.837 492.229 120.442 492.229 117.001C492.229 115.513 492.794 114.118 493.643 113.839C496.378 112.816 495.058 112.072 490.343 112.072C485.628 112.072 484.308 112.816 487.137 113.839C488.08 114.211 488.457 115.327 488.268 117.373C487.985 120.256 487.702 120.442 484.025 120.721C478.367 121.093 475.255 118.024 475.255 112.072C475.255 106.213 478.178 103.237 484.025 103.237C486.571 103.237 488.645 103.795 489.4 104.632C490.908 106.399 492.229 106.399 492.229 104.632C492.229 101.284 483.648 100.447 477.518 103.144Z" fill="white"/>
<path d="M199.909 103.237C199.909 103.702 200.569 104.167 201.418 104.167C202.738 104.167 202.832 105.376 202.55 113.002L202.267 121.837H206.982V102.307H203.493C201.512 102.307 199.909 102.679 199.909 103.237Z" fill="white"/>
<path d="M212.168 103.144C212.168 103.609 212.828 104.167 213.582 104.539C215.374 105.19 215.374 108.259 213.582 109.747C212.356 110.77 212.451 111.142 214.525 113.095C217.26 115.513 217.543 117.373 215.468 119.047C213.677 120.535 213.677 121.837 215.468 121.837C217.166 121.837 221.597 117.745 221.597 116.257C221.597 115.699 220.466 114.211 219.051 112.909C216.6 110.677 216.6 110.677 218.391 108.724C220.183 106.771 220.089 106.771 217.543 104.539C214.902 102.307 212.168 101.563 212.168 103.144Z" fill="white"/>
<path d="M249.415 112.072V121.837H254.13L254.035 112.351C253.941 102.958 253.847 102.772 251.678 102.493C249.415 102.214 249.415 102.214 249.415 112.072Z" fill="white"/>
<path d="M259.316 102.958C259.316 103.888 264.22 106.213 264.785 105.562C264.974 105.376 264.974 104.539 264.691 103.702C264.125 102.307 259.316 101.656 259.316 102.958Z" fill="white"/>
<path d="M290.434 103.051C290.434 103.516 291 104.353 291.66 104.911C292.32 105.469 294.489 109.282 296.563 113.374C298.543 117.559 300.712 120.907 301.278 120.907C302.127 120.907 311.179 104.26 311.179 102.772C311.179 102.493 310.331 102.307 309.293 102.307C308.162 102.307 307.407 102.958 307.407 103.888C307.407 106.12 303.447 115.327 302.504 115.327C301.655 115.327 295.997 104.539 296.28 103.516C296.469 103.051 295.149 102.679 293.546 102.493C291.848 102.307 290.434 102.586 290.434 103.051Z" fill="white"/>
<path d="M338.525 102.679C338.431 102.958 338.431 107.329 338.431 112.258L338.337 121.372L341.071 121.651L343.712 121.93L343.523 102.772L340.977 102.493C339.657 102.307 338.525 102.4 338.525 102.679Z" fill="white"/>
<path d="M348.898 102.958C348.898 103.888 353.801 106.213 354.367 105.562C354.556 105.376 354.556 104.539 354.273 103.702C353.707 102.307 348.898 101.656 348.898 102.958Z" fill="white"/>
<path d="M383.316 121.837H388.031V102.307H383.316V121.837Z" fill="white"/>
<path d="M392.274 103.144C392.274 103.609 392.934 104.446 393.689 105.097C395.858 106.864 395.386 109.654 392.746 110.863C390.2 111.979 389.823 113.002 391.331 113.932C391.897 114.304 393.123 116.164 394.16 118.21C395.669 120.907 396.612 121.837 398.404 121.837C399.724 121.837 400.761 121.558 400.761 121.279C400.761 121 399.441 118.861 397.743 116.536L394.82 112.165L396.801 110.863C399.441 109.096 399.441 105.562 396.801 103.795C394.443 102.121 392.274 101.842 392.274 103.144Z" fill="white"/>
<path d="M433.859 105.097C433.105 107.329 433.199 107.887 434.142 107.887C435.462 107.887 437.159 112.351 436.216 113.188C435.934 113.467 436.594 114.397 437.537 115.234C438.574 116.071 439.517 117.745 439.705 119.047C439.988 120.907 440.648 121.465 443.194 121.651C444.797 121.837 446.023 121.651 445.835 121.186C443.194 115.42 436.028 102.307 435.556 102.307C435.179 102.307 434.425 103.516 433.859 105.097Z" fill="white"/>
<path d="M523.347 102.679C523.252 102.958 523.252 107.329 523.252 112.258L523.158 121.372L525.893 121.651L528.533 121.93L528.344 102.772L525.798 102.493C524.478 102.307 523.347 102.4 523.347 102.679Z" fill="white"/>
<path d="M534.662 103.051C534.662 103.981 538.528 106.306 539.094 105.655C540.131 104.632 538.434 102.307 536.548 102.307C535.511 102.307 534.662 102.586 534.662 103.051Z" fill="white"/>
<path d="M260.731 109.747C260.448 110.212 259.128 110.677 257.807 110.677C256.582 110.677 255.544 111.049 255.544 111.607C255.544 112.072 256.582 112.537 257.807 112.537C259.128 112.537 260.448 112.909 260.731 113.467C261.768 115.141 263.088 114.397 263.088 112.165C263.088 109.654 261.674 108.259 260.731 109.747Z" fill="white"/>
<path d="M429.05 114.955C425.75 122.116 425.75 122.023 427.73 121.651C428.673 121.465 429.427 120.256 429.616 118.582C429.804 117.094 430.464 115.42 431.124 114.862C432.35 113.932 433.293 108.817 432.256 108.817C432.067 108.817 430.559 111.607 429.05 114.955Z" fill="white"/>
<path d="M349.275 110.77C348.992 111.328 349.369 112.444 350.218 113.281C351.632 114.676 351.727 114.583 351.727 112.258C351.727 109.747 350.501 108.91 349.275 110.77Z" fill="white"/>
<path d="M534.096 110.77C533.813 111.328 534.191 112.444 535.039 113.281C536.454 114.676 536.548 114.583 536.548 112.258C536.548 109.747 535.322 108.91 534.096 110.77Z" fill="white"/>
<path d="M262.428 119.047C259.693 121.279 259.693 121.837 262.616 121.837C263.937 121.837 265.257 121.186 265.634 120.349C266.577 117.931 264.691 117.187 262.428 119.047Z" fill="white"/>
<path d="M351.915 119.047C349.369 121.093 349.275 121.837 351.727 121.837C353.613 121.837 356.064 118.582 354.744 117.838C354.367 117.559 353.141 118.117 351.915 119.047Z" fill="white"/>
<path d="M536.737 119.047C534.191 121.093 534.096 121.837 536.548 121.837C538.434 121.837 540.886 118.582 539.566 117.838C539.188 117.559 537.962 118.117 536.737 119.047Z" fill="white"/>
</svg>
