<svg width="256" height="256" viewBox="0 0 256 256" fill="none" xmlns="http://www.w3.org/2000/svg">
<path fill-rule="evenodd" clip-rule="evenodd" d="M243.125 103.822H4.8299V111.414H99.2216C100.685 111.414 102.026 111.904 102.88 113.374L112.148 128.433C112.88 129.658 112.758 131.372 111.783 132.352C110.807 133.331 102.148 142.402 102.148 142.402V185.38L172.515 126.107L243.248 106.149C245.016 105.597 245.076 103.822 243.125 103.822Z" fill="white"/>
<path fill-rule="evenodd" clip-rule="evenodd" d="M148.863 81.0068L157.643 96.9844H163.436L172.156 81.0068V96.9844H178.619V73.3572H169.29L160.449 89.3941L151.729 73.3572H142.399V96.9844H148.863V81.0068Z" fill="white"/>
<path fill-rule="evenodd" clip-rule="evenodd" d="M107.106 81.0068L115.887 96.9844H121.68L130.4 81.0068V96.9844H136.68V73.3572H127.534L118.692 89.3941L109.973 73.3572H100.826V96.9844H107.106V81.0068Z" fill="white"/>
<path fill-rule="evenodd" clip-rule="evenodd" d="M223.314 81.0675L236.667 96.9844H242.887V73.3572H236.606V86.5781L225.508 73.3572H217.033V96.9844H223.314V81.0675Z" fill="white"/>
<path fill-rule="evenodd" clip-rule="evenodd" d="M74.6732 96.9844H92.7067C95.6412 96.9844 97.2263 94.5999 97.2263 92.2629V73.3572H90.9464V89.1289C90.9464 90.492 90.1536 91.5965 88.3052 91.5965H79.0752C77.3484 91.5965 76.4336 90.5738 76.4336 89.2107V73.3572H70.1542V92.2629C70.1542 94.5999 72.3459 96.9844 74.6732 96.9844Z" fill="white"/>
<path fill-rule="evenodd" clip-rule="evenodd" d="M8.90772 97.0464H31.9489V83.3939H17.7412V87.9241H24.266C25.0587 87.9241 25.6686 89.0273 25.6686 89.823C25.6686 90.4551 25.3026 91.6598 24.1861 91.6585H12.8216C11.4639 91.6585 10.3629 90.554 10.3629 89.1896V81.21C10.3629 79.8469 11.4639 78.7424 12.8216 78.7424H23.0887C24.2041 78.7424 25.3288 79.6714 25.6294 80.6941L31.9484 80.7007V78.1987C31.9484 75.8617 30.1196 73.3572 27.551 73.3572H9.09071C6.27783 73.3559 4.08247 75.6796 4.0835 78.3822V92.3856C4.08247 95.3943 6.15617 97.0464 8.90772 97.0464Z" fill="white"/>
<path fill-rule="evenodd" clip-rule="evenodd" d="M201.377 73.3572H193.145L180.219 96.9844H187.352L189.73 92.6997H204.619L206.987 96.9844H214.364L201.377 73.3572ZM192.839 86.9384L197.108 79.1026L201.438 86.9384H192.839Z" fill="white"/>
<path fill-rule="evenodd" clip-rule="evenodd" d="M65.2325 82.1694V79.3534C65.2325 73.9048 60.0499 73.3572 58.952 73.3572H37.7932V96.9844H44.0737V90.2505H55.8423C58.4639 90.2505 59.0134 93.0058 58.952 93.6788V96.9844H65.2325V91.7813C65.1717 89.823 64.135 88.1088 63.2206 87.3738C64.8056 86.4554 65.2325 84.1897 65.2325 82.1694ZM56.7572 84.8534H44.0737V78.7319H56.6958C57.3057 78.7319 58.952 79.649 58.952 81.6085C58.952 84.0577 57.6716 84.8534 56.7572 84.8534Z" fill="white"/>
<path fill-rule="evenodd" clip-rule="evenodd" d="M250.196 71.5256C249.687 71.0189 249.071 70.7655 248.349 70.7655C247.631 70.7655 247.019 71.0189 246.511 71.5256C246.001 72.0349 245.747 72.6485 245.747 73.3664C245.747 74.0922 245.999 74.7084 246.504 75.2178C247.011 75.7298 247.626 75.9858 248.349 75.9858C249.071 75.9858 249.687 75.7298 250.196 75.2178C250.706 74.7058 250.96 74.0895 250.96 73.3664C250.96 72.6459 250.706 72.0323 250.196 71.5256ZM249.936 74.9657C249.501 75.4065 248.972 75.6269 248.349 75.6269C247.726 75.6269 247.197 75.4065 246.76 74.9657C246.326 74.525 246.11 73.9919 246.11 73.3664C246.11 72.7462 246.327 72.217 246.764 71.7789C247.202 71.3382 247.73 71.1165 248.349 71.1165C248.969 71.1165 249.498 71.3382 249.936 71.7789C250.373 72.217 250.591 72.7462 250.591 73.3664C250.591 73.9919 250.373 74.525 249.936 74.9657Z" fill="white"/>
<path fill-rule="evenodd" clip-rule="evenodd" d="M249.51 74.7559C249.498 74.7322 249.49 74.682 249.485 74.6068C249.481 74.5303 249.479 74.4603 249.479 74.3944V74.1846C249.479 74.0394 249.427 73.8916 249.322 73.7399C249.219 73.5881 249.054 73.4944 248.828 73.4588C249.006 73.4298 249.145 73.3849 249.244 73.3202C249.431 73.2001 249.525 73.0114 249.525 72.7554C249.525 72.3952 249.377 72.1537 249.08 72.031C248.915 71.9624 248.654 71.9281 248.299 71.9281H247.297V74.7916H247.801V73.662H248.2C248.466 73.662 248.654 73.6924 248.761 73.7544C248.942 73.8613 249.031 74.0803 249.031 74.4115V74.6385L249.042 74.7309C249.044 74.7427 249.046 74.7546 249.048 74.7638C249.051 74.7731 249.054 74.7823 249.056 74.7916H249.529L249.51 74.7559ZM248.736 73.2463C248.629 73.2885 248.469 73.3097 248.257 73.3097H247.801V72.2725H248.232C248.511 72.2725 248.715 72.3081 248.841 72.3794C248.968 72.4506 249.031 72.5892 249.031 72.7977C249.031 73.018 248.932 73.1671 248.736 73.2463Z" fill="white"/>
</svg>
