<svg width="433" height="199" viewBox="0 0 433 199" fill="none" xmlns="http://www.w3.org/2000/svg">
<path d="M327.865 47.8294H397.489V67.3407H432.356V198.493H0V67.3407H34.8989V47.8294H104.548L216.204 0.00136681L327.865 47.8294Z" fill="white"/>
<path d="M393.801 103.627C394.676 103.627 395.48 103.551 395.48 102.475C395.48 101.633 394.701 101.476 393.976 101.476H392.541V103.627H393.801ZM392.541 107.518H391.488V100.576H394.129C395.759 100.576 396.575 101.19 396.575 102.552C396.575 103.803 395.809 104.341 394.785 104.465L396.749 107.518H395.576L393.749 104.509H392.541V107.518ZM393.808 109.062C396.541 109.062 398.675 106.935 398.675 104.037C398.675 101.19 396.541 99.0387 393.808 99.0387C391.052 99.0387 388.912 101.19 388.912 104.037C388.912 106.935 391.052 109.062 393.808 109.062ZM387.7 104.037C387.7 100.576 390.5 98.0355 393.808 98.0355C397.087 98.0355 399.887 100.576 399.887 104.037C399.887 107.518 397.087 110.061 393.808 110.061C390.5 110.061 387.7 107.518 387.7 104.037Z" fill="black"/>
<path d="M68.9755 154.962V82.7106H49.2115V172.17H99.5536V154.962H68.9755Z" fill="black"/>
<path d="M267.911 172.17H314.944V154.946H287.767V143.709H314.944V127.128H287.767V115.835H314.944V98.5371H267.911V98.6141V172.17Z" fill="black"/>
<path d="M144.713 115.835H127.335V154.869H144.713V115.835ZM164.515 162.76C164.515 167.952 160.303 172.17 155.117 172.17H116.943C111.75 172.17 107.546 167.952 107.546 162.76V107.938C107.546 102.742 111.75 98.5371 116.943 98.5371H155.117C160.303 98.5371 164.515 102.742 164.515 107.938V162.76Z" fill="black"/>
<path d="M236.809 98.5371V154.962H224.876V98.5371H207.497V154.962H195.564V98.5371H175.767V162.76C175.767 167.952 179.983 172.17 185.168 172.17H208.573C212.515 172.17 216.185 169.448 216.185 165.5C216.185 169.448 219.867 172.17 223.808 172.17H247.201C252.405 172.17 256.607 167.952 256.607 162.76V98.5371H236.809Z" fill="black"/>
<path d="M319.313 82.7106L319.303 103.913L333.025 103.935L335.883 82.7179L319.313 82.7106Z" fill="black"/>
<path d="M384.337 144.341L384.348 144.349L384.22 144.089C384.144 143.946 384.071 143.785 383.993 143.624L383.869 143.391C380.733 137.115 373.725 131.852 362.432 127.348L362.045 127.197C359.791 126.316 352.995 123.652 352.245 119.333C352.036 118.123 352.523 116.223 353.876 115.063C355.297 113.617 357.489 112.878 360.353 112.878C364.951 112.878 370.195 114.759 372.895 115.879C378.615 118.246 383.616 120.365 383.668 120.38L384.169 120.585V104.525L384.001 104.418C383.895 104.341 373.096 97.5417 362.187 95.9756C360.936 95.8699 359.692 95.8141 358.499 95.8141C348.465 95.8141 340.86 99.4673 335.895 106.657C331.733 112.575 331.28 121.92 334.819 128.903C339.364 136.804 346.656 140.089 353.716 143.288C356.615 144.591 359.633 145.952 362.44 147.635L362.472 147.662C365.668 149.568 367.281 152.491 366.608 155.097C365.92 157.787 362.835 159.601 358.933 159.601C358.407 159.601 357.859 159.557 357.339 159.492L357.145 159.465C349.665 158.424 334.471 152.769 334.32 152.711L333.835 152.532V170.148L334.076 170.239C334.229 170.28 348.925 175.155 361.968 175.155H361.987C369.104 175.155 374.489 173.72 377.971 170.895C378.055 170.828 386.021 164.424 386.372 153.516C386.475 150.5 385.783 147.416 384.337 144.341Z" fill="black"/>
</svg>
