<svg width="500" height="500" viewBox="0 0 500 500" fill="none" xmlns="http://www.w3.org/2000/svg">
<path d="M497.221 107.197C479.117 115.234 459.66 120.643 439.228 123.122C460.036 110.577 476.112 90.8203 483.624 67.2326C464.093 78.8011 442.458 87.2145 419.471 91.7217C401.067 72.1154 374.85 59.8708 345.778 59.8708C290.039 59.8708 244.817 105.093 244.817 160.832C244.817 168.72 245.718 176.457 247.446 183.819C163.537 179.612 89.1677 139.348 39.363 78.2753C30.649 93.2242 25.6911 110.577 25.6911 129.132C25.6911 164.138 43.4946 195.012 70.613 213.116C54.0114 212.59 38.4615 208.083 24.8648 200.496C24.8648 200.947 24.8648 201.322 24.8648 201.773C24.8648 250.676 59.6454 291.466 105.844 300.781C97.3558 303.11 88.4916 304.312 79.2518 304.312C72.7163 304.312 66.4062 303.711 60.2464 302.509C73.0919 342.548 110.352 371.845 154.522 372.596C120.042 399.715 76.4723 415.79 29.1466 415.79C20.9585 415.79 12.9958 415.34 5.10815 414.438C49.7296 443.059 102.84 459.736 159.856 459.736C345.553 459.736 447.115 305.889 447.115 172.551C447.115 168.119 447.04 163.762 446.815 159.405C466.572 145.282 483.699 127.479 497.221 107.197Z" fill="white"/>
</svg>
