<svg width="400" height="480" viewBox="0 0 400 480" fill="none" xmlns="http://www.w3.org/2000/svg">
<g clip-path="url(#clip0)">
<path fill-rule="evenodd" clip-rule="evenodd" d="M133.6 0.567C133.6 1.114 130.606 2 128.76 2C128.319 2 127.293 2.333 126.479 2.74C121.483 5.24 119.676 6.219 118.691 6.963C115.905 9.064 113.853 10.926 112.38 12.689C111.501 13.74 110.561 14.857 110.291 15.171C108.823 16.877 105.595 23.871 105.199 26.2C105.012 27.3 104.576 28.869 104.23 29.687C103.668 31.013 103.6 36.497 103.6 80.327C103.6 114.985 103.47 129.852 103.161 130.74L102.722 132L70.861 132.001C36.667 132.003 31.631 132.211 26.896 133.816C25.3 134.357 23.708 134.8 23.36 134.8C23.011 134.8 22.269 135.16 21.709 135.6C21.15 136.04 20.422 136.4 20.091 136.4C17.488 136.4 5.6 147.423 5.6 149.837C5.6 150.093 5.331 150.525 5.002 150.798C4.673 151.072 4.189 152.039 3.926 152.947C3.663 153.856 3.123 155.029 2.724 155.554C2.326 156.079 2 157.034 2 157.677C2 159.623 1.149 162.4 0.553 162.4C0.084 162.4 0 179.449 0 274.8C0 371.966 0.077 387.2 0.572 387.2C0.948 387.2 1.298 387.985 1.597 389.5C2.027 391.678 3.804 395.712 5.693 398.8C8.039 402.635 16.871 410.111 21.149 411.883C21.947 412.213 22.836 412.676 23.125 412.912C23.414 413.147 24.584 413.684 25.725 414.104C26.866 414.524 28.765 415.222 29.944 415.654C31.123 416.086 32.473 416.683 32.944 416.98C33.415 417.278 34.43 417.653 35.2 417.814C35.97 417.975 37.227 418.443 37.994 418.853C38.761 419.264 39.663 419.6 40 419.6C40.337 419.6 41.281 419.958 42.098 420.397C42.915 420.835 44.422 421.381 45.447 421.61C46.471 421.84 47.759 422.382 48.309 422.814C48.858 423.246 49.716 423.6 50.214 423.6C50.713 423.6 52.083 424.048 53.26 424.596C54.437 425.144 55.67 425.6 56 425.609C56.33 425.618 57.5 426.068 58.6 426.609C59.7 427.15 60.873 427.594 61.206 427.596C61.539 427.598 62.439 427.936 63.206 428.347C63.973 428.757 65.23 429.225 66 429.386C66.77 429.547 67.774 429.915 68.231 430.203C68.688 430.492 69.978 431 71.097 431.332C72.216 431.665 73.552 432.207 74.066 432.539C74.58 432.87 75.72 433.271 76.6 433.429C77.48 433.588 78.827 434.051 79.594 434.459C80.361 434.866 81.261 435.206 81.594 435.213C81.927 435.219 83.1 435.668 84.2 436.209C85.3 436.75 86.47 437.196 86.8 437.2C87.13 437.204 88.3 437.65 89.4 438.191C90.5 438.732 91.76 439.182 92.2 439.19C92.64 439.198 93.54 439.493 94.2 439.844C95.39 440.478 97.169 441.164 101.8 442.777C103.12 443.237 104.539 443.806 104.953 444.043C105.367 444.279 106.537 444.707 107.553 444.994C108.569 445.281 110.84 446.093 112.6 446.799C114.36 447.505 116.61 448.356 117.6 448.69C118.59 449.023 120.066 449.635 120.879 450.048C121.693 450.462 122.624 450.8 122.949 450.8C123.584 450.8 128.713 452.724 131.511 454.012C132.452 454.446 133.567 454.8 133.99 454.8C134.412 454.8 135.604 455.25 136.638 455.8C137.673 456.35 138.807 456.806 139.16 456.814C139.512 456.821 140.52 457.175 141.4 457.6C142.28 458.025 143.144 458.379 143.32 458.386C143.724 458.404 149.795 460.681 151.4 461.417C152.61 461.972 155.878 463.159 159.2 464.251C160.19 464.577 161.72 465.194 162.6 465.623C163.48 466.051 164.458 466.402 164.774 466.401C165.089 466.4 166.079 466.748 166.974 467.174C168.487 467.893 170.796 468.765 175.2 470.278C176.19 470.618 177.732 471.235 178.626 471.648C179.521 472.062 180.546 472.4 180.905 472.4C181.264 472.4 182.404 472.85 183.438 473.4C184.473 473.95 185.661 474.4 186.078 474.4C186.495 474.4 187.682 474.85 188.715 475.4C189.748 475.95 190.934 476.4 191.35 476.4C191.765 476.4 192.667 476.732 193.353 477.139C194.039 477.545 195.635 478.098 196.9 478.367C198.398 478.686 199.2 479.057 199.2 479.429C199.2 480.176 200.649 480.17 200.937 479.421C201.059 479.102 201.933 478.647 202.879 478.408C203.826 478.169 205.32 477.637 206.2 477.226C207.08 476.815 208.427 476.347 209.194 476.187C209.961 476.026 210.951 475.663 211.394 475.38C211.837 475.097 213.01 474.654 214 474.396C214.99 474.138 216.361 473.583 217.047 473.163C217.733 472.744 218.621 472.4 219.021 472.4C219.42 472.4 220.479 472.062 221.374 471.648C222.268 471.235 223.81 470.617 224.8 470.274C227.745 469.256 231.698 467.758 233.287 467.056C234.105 466.695 235.04 466.4 235.364 466.4C235.689 466.4 236.55 466.057 237.277 465.639C238.005 465.22 239.23 464.748 240 464.591C240.77 464.433 241.94 464.021 242.6 463.675C243.915 462.987 248.301 461.355 250.2 460.848C250.86 460.671 251.94 460.253 252.6 459.918C253.26 459.583 254.79 458.986 256 458.593C257.21 458.199 258.56 457.652 259 457.378C259.44 457.103 260.43 456.747 261.2 456.586C261.97 456.425 263.227 455.957 263.994 455.547C264.761 455.136 265.715 454.8 266.114 454.8C266.513 454.8 267.36 454.531 267.996 454.202C269.072 453.646 272.314 452.362 275.6 451.19C276.37 450.916 277.81 450.382 278.8 450.004C279.79 449.626 281.5 449.002 282.6 448.617C287.627 446.857 289.109 446.295 290.626 445.574C291.521 445.148 292.573 444.8 292.965 444.8C293.356 444.8 294.154 444.534 294.738 444.209C295.322 443.884 296.79 443.272 298 442.85C302.686 441.216 304.256 440.637 305.8 439.975C306.68 439.598 308.03 439.068 308.8 438.799C309.57 438.529 311.37 437.858 312.8 437.308C314.23 436.758 316.39 435.959 317.6 435.533C318.81 435.106 320.34 434.516 321 434.221C321.66 433.926 322.827 433.552 323.594 433.39C324.361 433.228 325.365 432.848 325.826 432.546C326.287 432.244 327.625 431.712 328.801 431.363C329.976 431.014 331.312 430.492 331.769 430.203C332.226 429.915 333.23 429.547 334 429.386C334.77 429.225 336.027 428.757 336.794 428.347C337.561 427.936 338.461 427.598 338.794 427.596C339.127 427.594 340.3 427.15 341.4 426.609C342.5 426.068 343.67 425.618 344 425.609C344.33 425.6 345.5 425.15 346.6 424.609C347.7 424.068 349.071 423.619 349.646 423.613C350.221 423.606 351.121 423.263 351.646 422.852C352.171 422.441 353.21 421.971 353.955 421.808C354.7 421.646 356.23 421.084 357.355 420.56C358.48 420.036 359.673 419.606 360.006 419.604C360.339 419.602 361.239 419.264 362.006 418.853C362.773 418.443 364.03 417.972 364.8 417.807C365.57 417.642 366.65 417.262 367.2 416.961C368.199 416.415 370.938 415.309 374.475 414.022C375.506 413.647 376.586 413.147 376.875 412.912C377.164 412.676 378.114 412.188 378.986 411.826C379.858 411.465 380.668 411.02 380.786 410.838C380.904 410.656 381.789 410.078 382.754 409.554C385.294 408.173 385.724 407.889 386.627 407C387.073 406.56 388.15 405.563 389.019 404.784C391.852 402.248 396.4 396.111 396.4 394.827C396.4 394.55 396.738 393.846 397.151 393.262C397.564 392.678 398.12 390.895 398.387 389.3C398.721 387.301 399.047 386.4 399.436 386.4C400.27 386.4 400.288 164.196 399.454 163.876C399.116 163.746 398.716 162.397 398.405 160.333C398.128 158.5 397.563 156.439 397.151 155.753C396.738 155.067 396.4 154.157 396.4 153.73C396.4 153.304 395.95 152.345 395.4 151.6C394.85 150.855 394.398 150.055 394.395 149.822C394.384 148.971 388.472 141.988 386.712 140.747C385.99 140.238 385.078 139.527 384.683 139.166C383.516 138.096 376.846 134.953 373.4 133.847C368.18 132.173 363.809 132.001 326.464 132H291.528L290.74 131.1C290.307 130.605 289.605 129.459 289.181 128.553C288.756 127.647 288.149 126.689 287.83 126.425C287.512 126.161 287.14 125.436 287.003 124.814C286.866 124.192 286.405 123.366 285.977 122.979C285.55 122.593 285.2 122.061 285.2 121.798C285.2 121.535 284.525 120.216 283.7 118.867C282.013 116.109 280.447 113.371 279.2 111C278.737 110.12 277.837 108.5 277.2 107.4C276.563 106.3 275.67 104.68 275.215 103.8C274.76 102.92 273.986 101.535 273.494 100.722C270.97 96.549 270 94.552 270 93.529V92.4L281.1 92.419C306.303 92.464 308.667 93.254 323.8 106.701C328.466 110.847 328.079 113.566 327.882 78.03C327.777 58.997 327.561 47.207 327.3 46.2C327.071 45.32 326.612 43.25 326.279 41.6C325.945 39.95 325.206 37.674 324.636 36.542C324.066 35.41 323.6 34.383 323.6 34.26C323.6 33.988 322.087 31.736 320.993 30.38C319.744 28.831 315.493 25.321 314.5 25.02C314.005 24.869 313.6 24.591 313.6 24.401C313.6 24.212 312.565 23.757 311.3 23.391C310.035 23.024 308.82 22.582 308.6 22.408C307.203 21.304 303.533 21.088 283.8 20.944C258.913 20.763 260.817 21.155 258.079 15.648C257.793 15.071 257.383 14.33 257.17 14C256.956 13.67 256.327 12.5 255.772 11.4C255.217 10.3 254.237 8.5 253.594 7.4C252.95 6.3 252.079 4.658 251.657 3.752C251.236 2.845 250.69 1.979 250.445 1.828C250.2 1.677 250 1.203 250 0.776C250 0.011 249.143 0 191.8 0C141.846 0 133.6 0.08 133.6 0.567ZM238.083 20.9C238.62 21.615 239.857 23.73 240.83 25.6C241.804 27.47 242.711 29.09 242.847 29.2C242.983 29.31 243.457 30.12 243.9 31C244.343 31.88 245.26 33.59 245.938 34.8C246.616 36.01 247.436 37.554 247.762 38.232C248.963 40.732 247.288 40.582 276.424 40.8L303.127 41L304.635 42.221C307.668 44.676 307.965 46.457 307.984 62.276C307.993 69.798 307.865 76.034 307.7 76.133C307.535 76.232 306.277 75.781 304.904 75.129C298.941 72.302 300.304 72.4 266.981 72.4C244.953 72.4 236.838 72.522 236.502 72.858C235.973 73.387 236.269 75.503 236.996 76.4C237.264 76.73 237.76 77.54 238.099 78.2C238.438 78.86 239.274 80.39 239.957 81.6C240.641 82.81 241.473 84.34 241.807 85C242.141 85.66 243.488 88 244.799 90.2C246.111 92.4 247.387 94.65 247.635 95.2C247.883 95.75 248.24 96.47 248.43 96.8C250.543 100.485 253.147 105.156 253.745 106.333C254.154 107.14 254.649 107.86 254.845 107.933C255.04 108.007 255.2 108.24 255.2 108.452C255.2 108.802 256.799 111.763 259.676 116.739C260.267 117.763 261.128 119.32 261.589 120.2C262.05 121.08 262.962 122.7 263.616 123.8C264.27 124.9 264.923 126.07 265.068 126.4C265.214 126.73 266.161 128.44 267.173 130.2C268.186 131.96 269.313 133.94 269.678 134.6C270.044 135.26 271.301 137.487 272.472 139.55C273.642 141.612 275.32 144.583 276.2 146.151C277.08 147.72 278.25 149.673 278.8 150.491L279.8 151.98L323.4 152.09L367 152.2L370 153.644C375.342 156.214 377.947 159.565 379.253 165.542C379.972 168.831 380 172.968 380 275.41V381.86L379.036 384.694C378.103 387.436 377.708 388.077 375.622 390.228C374.333 391.557 370.423 394.213 369.182 394.602C368.642 394.771 367.771 395.245 367.246 395.655C366.721 396.065 365.947 396.4 365.526 396.4C365.105 396.4 364.211 396.684 363.539 397.031C362.868 397.379 361.571 397.909 360.659 398.211C359.747 398.512 357.47 399.326 355.6 400.02C353.73 400.714 351.3 401.615 350.2 402.023C349.1 402.43 346.94 403.245 345.4 403.832C343.86 404.419 341.52 405.293 340.2 405.774C338.88 406.254 337.224 406.952 336.52 407.324C335.816 407.696 334.943 408 334.58 408C334.218 408 333.354 408.267 332.66 408.593C331.967 408.918 330.41 409.532 329.2 409.956C327.99 410.379 326.1 411.041 325 411.426C323.9 411.812 322.345 412.458 321.546 412.863C320.746 413.269 319.881 413.6 319.625 413.6C319.021 413.6 312.956 415.871 311.4 416.68C310.74 417.023 309.39 417.54 308.4 417.829C307.41 418.117 305.34 418.837 303.8 419.427C302.26 420.018 299.901 420.884 298.558 421.351C297.215 421.818 295.846 422.426 295.516 422.701C295.185 422.977 294.081 423.359 293.062 423.549C292.042 423.739 290.981 424.08 290.704 424.307C290.427 424.533 289.27 424.992 288.134 425.327C286.998 425.662 285.648 426.203 285.134 426.529C284.62 426.855 283.57 427.247 282.8 427.399C282.03 427.552 280.805 428.02 280.077 428.439C279.35 428.857 278.443 429.2 278.062 429.2C277.681 429.2 276.656 429.566 275.785 430.014C274.913 430.462 273.39 431.031 272.4 431.278C271.41 431.525 269.973 432.059 269.206 432.464C268.439 432.869 267.539 433.202 267.206 433.204C266.873 433.206 265.7 433.65 264.6 434.191C263.5 434.732 262.289 435.181 261.909 435.187C261.529 435.194 260.269 435.632 259.109 436.159C256.143 437.508 251.678 439.2 251.086 439.2C250.812 439.2 249.961 439.536 249.194 439.947C248.427 440.357 247.191 440.827 246.446 440.99C245.701 441.154 244.235 441.718 243.188 442.244C242.141 442.77 240.986 443.2 240.622 443.2C240.258 443.2 239.411 443.484 238.739 443.831C238.068 444.179 236.771 444.704 235.859 444.998C234.947 445.292 232.76 446.101 231 446.795C229.24 447.49 226.63 448.475 225.2 448.983C220.493 450.658 219.822 450.91 217.55 451.86C216.312 452.377 215.079 452.8 214.808 452.8C214.538 452.8 213.42 453.25 212.325 453.8C211.23 454.35 209.98 454.8 209.547 454.8C209.114 454.8 208.247 455.065 207.62 455.39C205.329 456.574 199.941 458.353 199.279 458.143C198.906 458.025 198.24 457.773 197.8 457.585C195.081 456.422 190.657 454.8 190.203 454.8C189.907 454.8 188.77 454.35 187.675 453.8C186.58 453.25 185.44 452.798 185.142 452.796C184.844 452.794 183.637 452.344 182.46 451.796C181.283 451.248 180.023 450.799 179.66 450.798C179.297 450.796 178.46 450.508 177.8 450.157C177.14 449.806 175.7 449.249 174.6 448.919C173.5 448.588 172.386 448.143 172.123 447.93C171.861 447.716 170.601 447.205 169.323 446.796C168.046 446.386 165.74 445.574 164.2 444.992C162.66 444.41 160.659 443.694 159.753 443.402C158.847 443.109 157.407 442.516 156.553 442.084C155.699 441.651 154.37 441.165 153.6 441.003C152.83 440.84 151.75 440.462 151.2 440.163C150.25 439.645 148.135 438.869 143.2 437.229C141.99 436.827 140.46 436.207 139.8 435.851C139.14 435.496 138.327 435.204 137.994 435.202C137.661 435.201 136.761 434.864 135.994 434.453C135.227 434.043 133.97 433.575 133.2 433.414C132.43 433.253 131.42 432.881 130.956 432.588C130.492 432.295 129.127 431.769 127.923 431.419C126.719 431.069 125.036 430.426 124.183 429.991C123.329 429.556 122.264 429.194 121.815 429.187C121.367 429.18 120.646 428.907 120.212 428.579C119.779 428.252 118.699 427.804 117.812 427.585C116.926 427.366 115.48 426.842 114.6 426.42C113.72 425.998 112.19 425.391 111.2 425.072C108.07 424.063 106.657 423.527 104.56 422.55C103.438 422.027 102.175 421.6 101.754 421.6C101.333 421.6 100.338 421.251 99.543 420.825C98.748 420.399 97.089 419.757 95.856 419.399C94.623 419.041 93.511 418.579 93.384 418.374C93.257 418.168 92.74 418 92.236 418C91.732 418 90.473 417.55 89.438 417C88.404 416.45 87.378 416 87.159 416C86.704 416 81.007 413.897 78.6 412.841C77.088 412.178 76.081 411.805 70.8 409.956C69.59 409.532 68.033 408.918 67.34 408.593C66.646 408.267 65.771 408 65.394 408C65.017 408 64.054 407.646 63.254 407.213C61.91 406.485 59.767 405.667 55.2 404.137C54.21 403.806 52.66 403.189 51.756 402.767C50.852 402.345 49.767 402 49.345 402C48.923 402 48.162 401.709 47.654 401.353C47.146 400.997 45.71 400.376 44.465 399.972C40.175 398.584 37.446 397.538 36.635 396.97C36.188 396.656 35.437 396.4 34.967 396.4C33.04 396.4 24.424 391.041 23.304 389.146C22.932 388.516 22.501 388 22.347 388C22.192 388 21.556 386.515 20.933 384.7L19.8 381.4V274.8V168.2L20.902 164.515C22.479 159.241 25.745 155.078 29.2 153.94C29.97 153.686 31.042 153.191 31.582 152.839C32.465 152.265 37.12 152.189 77.477 152.092L122.389 151.983L122.601 151.092C122.717 150.601 122.855 124.37 122.906 92.8L123 35.4L124.1 32.249C124.705 30.516 125.2 28.887 125.2 28.629C125.2 26.664 130.997 22.145 135 20.989C139.281 19.752 141.188 19.706 189.453 19.652L237.105 19.6L238.083 20.9Z" fill="#D21444"/>
<path fill-rule="evenodd" clip-rule="evenodd" d="M139.6 20C133.047 20.88 125.2 25.582 125.2 28.629C125.2 28.887 124.705 30.516 124.1 32.249L123 35.4L122.906 92.8C122.855 124.37 122.717 150.601 122.601 151.092L122.389 151.983L77.477 152.092C37.12 152.189 32.465 152.265 31.582 152.839C31.042 153.191 29.97 153.686 29.2 153.94C25.745 155.078 22.479 159.241 20.902 164.515L19.8 168.2V274.8V381.4L20.933 384.7C21.556 386.515 22.192 388 22.347 388C22.501 388 22.932 388.516 23.304 389.146C24.424 391.041 33.04 396.4 34.967 396.4C35.437 396.4 36.188 396.656 36.635 396.97C37.446 397.538 40.175 398.584 44.465 399.972C45.71 400.376 47.146 400.997 47.654 401.353C48.162 401.709 48.923 402 49.345 402C49.767 402 50.852 402.345 51.756 402.767C52.66 403.189 54.21 403.806 55.2 404.137C59.767 405.667 61.91 406.485 63.254 407.213C64.054 407.646 65.017 408 65.394 408C65.771 408 66.646 408.267 67.34 408.593C68.033 408.918 69.59 409.532 70.8 409.956C76.081 411.805 77.088 412.178 78.6 412.841C81.007 413.897 86.704 416 87.159 416C87.378 416 88.404 416.45 89.438 417C90.473 417.55 91.732 418 92.236 418C92.74 418 93.257 418.168 93.384 418.374C93.511 418.579 94.623 419.041 95.856 419.399C97.089 419.757 98.748 420.399 99.543 420.825C100.338 421.251 101.333 421.6 101.754 421.6C102.175 421.6 103.438 422.027 104.56 422.55C106.657 423.527 108.07 424.063 111.2 425.072C112.19 425.391 113.72 425.998 114.6 426.42C115.48 426.842 116.926 427.366 117.812 427.585C118.699 427.804 119.779 428.252 120.212 428.579C120.646 428.907 121.367 429.18 121.815 429.187C122.264 429.194 123.329 429.556 124.183 429.991C125.036 430.426 126.719 431.069 127.923 431.419C129.127 431.769 130.492 432.295 130.956 432.588C131.42 432.881 132.43 433.253 133.2 433.414C133.97 433.575 135.227 434.043 135.994 434.453C136.761 434.864 137.661 435.201 137.994 435.202C138.327 435.204 139.14 435.496 139.8 435.851C140.46 436.207 141.99 436.827 143.2 437.229C148.135 438.869 150.25 439.645 151.2 440.163C151.75 440.462 152.83 440.84 153.6 441.003C154.37 441.165 155.699 441.651 156.553 442.084C157.407 442.516 158.847 443.109 159.753 443.402C160.659 443.694 162.66 444.41 164.2 444.992C165.74 445.574 168.046 446.386 169.323 446.796C170.601 447.205 171.861 447.716 172.123 447.93C172.386 448.143 173.5 448.588 174.6 448.919C175.7 449.249 177.14 449.806 177.8 450.157C178.46 450.508 179.297 450.796 179.66 450.798C180.023 450.799 181.283 451.248 182.46 451.796C183.637 452.344 184.844 452.794 185.142 452.796C185.44 452.798 186.58 453.25 187.675 453.8C188.77 454.35 189.907 454.8 190.203 454.8C190.657 454.8 195.081 456.422 197.8 457.585C198.24 457.773 198.906 458.025 199.279 458.143C199.941 458.353 205.329 456.574 207.62 455.39C208.247 455.065 209.114 454.8 209.547 454.8C209.98 454.8 211.23 454.35 212.325 453.8C213.42 453.25 214.538 452.8 214.808 452.8C215.079 452.8 216.312 452.377 217.55 451.86C219.822 450.91 220.493 450.658 225.2 448.983C226.63 448.475 229.24 447.49 231 446.795C232.76 446.101 234.947 445.292 235.859 444.998C236.771 444.704 238.068 444.179 238.739 443.831C239.411 443.484 240.258 443.2 240.622 443.2C240.986 443.2 242.141 442.77 243.188 442.244C244.235 441.718 245.701 441.154 246.446 440.99C247.191 440.827 248.427 440.357 249.194 439.947C249.961 439.536 250.812 439.2 251.086 439.2C251.678 439.2 256.143 437.508 259.109 436.159C260.269 435.632 261.529 435.194 261.909 435.187C262.289 435.181 263.5 434.732 264.6 434.191C265.7 433.65 266.873 433.206 267.206 433.204C267.539 433.202 268.439 432.869 269.206 432.464C269.973 432.059 271.41 431.525 272.4 431.278C273.39 431.031 274.913 430.462 275.785 430.014C276.656 429.566 277.681 429.2 278.062 429.2C278.443 429.2 279.35 428.857 280.077 428.439C280.805 428.02 282.03 427.552 282.8 427.399C283.57 427.247 284.62 426.855 285.134 426.529C285.648 426.203 286.998 425.662 288.134 425.327C289.27 424.992 290.427 424.533 290.704 424.307C290.981 424.08 292.042 423.739 293.062 423.549C294.081 423.359 295.185 422.977 295.516 422.701C295.846 422.426 297.215 421.818 298.558 421.351C299.901 420.884 302.26 420.018 303.8 419.427C305.34 418.837 307.41 418.117 308.4 417.829C309.39 417.54 310.74 417.023 311.4 416.68C312.956 415.871 319.021 413.6 319.625 413.6C319.881 413.6 320.746 413.269 321.546 412.863C322.345 412.458 323.9 411.812 325 411.426C326.1 411.041 327.99 410.379 329.2 409.956C330.41 409.532 331.967 408.918 332.66 408.593C333.354 408.267 334.218 408 334.58 408C334.943 408 335.816 407.696 336.52 407.324C337.224 406.952 338.88 406.254 340.2 405.774C341.52 405.293 343.86 404.419 345.4 403.832C346.94 403.245 349.1 402.43 350.2 402.023C351.3 401.615 353.73 400.714 355.6 400.02C357.47 399.326 359.747 398.512 360.659 398.211C361.571 397.909 362.868 397.379 363.539 397.031C364.211 396.684 365.105 396.4 365.526 396.4C365.947 396.4 366.721 396.065 367.246 395.655C367.771 395.245 368.642 394.771 369.182 394.602C370.423 394.213 374.333 391.557 375.622 390.228C377.708 388.077 378.103 387.436 379.036 384.694L380 381.86V275.41C380 172.968 379.972 168.831 379.253 165.542C377.947 159.565 375.342 156.214 370 153.644L367 152.2L323.4 152.09L279.8 151.98L278.8 150.491C278.25 149.673 277.08 147.72 276.2 146.151C275.32 144.583 273.642 141.612 272.472 139.55C271.301 137.487 270.044 135.26 269.678 134.6C269.313 133.94 268.186 131.96 267.173 130.2C266.161 128.44 265.214 126.73 265.068 126.4C264.923 126.07 264.27 124.9 263.616 123.8C262.962 122.7 262.05 121.08 261.589 120.2C261.128 119.32 260.267 117.763 259.676 116.739C256.799 111.763 255.2 108.802 255.2 108.452C255.2 108.24 255.04 108.007 254.845 107.933C254.649 107.86 254.154 107.14 253.745 106.333C253.147 105.156 250.543 100.485 248.43 96.8C248.24 96.47 247.883 95.75 247.635 95.2C247.387 94.65 246.111 92.4 244.799 90.2C243.488 88 242.141 85.66 241.807 85C241.473 84.34 240.641 82.81 239.957 81.6C239.274 80.39 238.438 78.86 238.099 78.2C237.76 77.54 237.264 76.73 236.996 76.4C236.269 75.503 235.973 73.387 236.502 72.858C236.838 72.522 244.953 72.4 266.981 72.4C300.304 72.4 298.941 72.302 304.904 75.129C306.277 75.781 307.535 76.232 307.7 76.133C307.865 76.034 307.993 69.798 307.984 62.276C307.965 46.457 307.668 44.676 304.635 42.221L303.127 41L276.424 40.8C247.288 40.582 248.963 40.732 247.762 38.232C247.436 37.554 246.616 36.01 245.938 34.8C245.26 33.59 244.343 31.88 243.9 31C243.457 30.12 242.983 29.31 242.847 29.2C242.711 29.09 241.804 27.47 240.83 25.6C239.857 23.73 238.62 21.615 238.083 20.9L237.105 19.6L189.453 19.652C163.244 19.681 140.81 19.838 139.6 20ZM80.342 178.53C80.653 178.905 80.813 190.876 80.891 219.63C81.012 264.701 80.901 262.898 83.6 263.644C85.35 264.128 146.131 264.052 147.53 263.565C150.593 262.497 150.399 265.421 150.405 220.153C150.408 197.959 150.519 179.395 150.652 178.9L150.893 178H166.073C175.772 178 181.532 178.15 182.026 178.414C182.786 178.82 182.8 179.865 182.79 234.714L182.78 290.6L181.859 293.828C179.61 301.706 172.843 307.555 165 308.399C160.007 308.936 63.996 308.927 59.706 308.39C53.878 307.659 47.192 303.088 45.092 298.4C44.649 297.41 44.13 296.498 43.938 296.373C42.45 295.405 41.362 181.488 42.814 178.774C43.349 177.775 79.52 177.54 80.342 178.53ZM356.851 178.661C357.659 179.635 357.659 206.765 356.851 207.739C356.345 208.348 352.071 208.4 302.679 208.4C243.868 208.4 246.942 208.267 245.774 210.858C243.295 216.355 247.249 218.058 264.2 218.794C269.7 219.033 275.608 219.491 277.33 219.811C279.154 220.151 284.325 220.489 289.73 220.622C294.828 220.746 300.71 221.106 302.8 221.42C304.89 221.734 312.09 222.26 318.8 222.589C325.51 222.919 332.08 223.363 333.4 223.578C334.72 223.792 339.125 224.161 343.189 224.397C349.627 224.772 350.685 224.928 351.414 225.614C351.875 226.046 352.451 226.4 352.695 226.4C353.245 226.4 355.847 229.384 356.705 231C357.553 232.596 358.025 294.732 357.222 298.904C356.281 303.789 352.599 307.545 347.967 308.345C342.993 309.204 217.898 308.971 216.829 308.1L215.969 307.4L216.084 286.361C216.178 269.245 216.302 265.199 216.749 264.661C217.255 264.052 221.538 264 270.889 264C329.421 264 326.472 264.116 327.545 261.762C330.125 256.098 325.709 254.212 308.4 253.588C302.57 253.377 297.08 253.025 296.2 252.805C295.32 252.585 289.11 252.138 282.4 251.811C275.69 251.485 267.86 250.953 265 250.629C262.14 250.305 255.48 249.857 250.2 249.634C244.92 249.41 239.61 249.042 238.4 248.816C237.19 248.59 233.306 248.263 229.768 248.088C222.417 247.726 220.646 247.025 218.089 243.464C216.122 240.726 216.006 238.996 216.009 212.6C216.013 187.932 216.162 185.248 217.635 183.394C219.104 181.547 221.318 179.815 223.263 178.993L225.4 178.089L290.851 178.045C351.279 178.003 356.344 178.051 356.851 178.661ZM128.05 346.878C133.724 349.565 137.051 356 132.767 356C131.619 356 130.808 355.349 128.92 352.91C125.11 347.991 116.404 348.702 112.588 354.243C110.142 357.795 110.044 366.917 112.413 370.494C115.698 375.454 124.317 376.488 128.234 372.391C128.655 371.951 129.347 371.234 129.771 370.799C130.693 369.854 131.267 366.237 130.631 365.39C130.312 364.967 129.051 364.789 125.8 364.709L121.4 364.6V363.018C121.4 361.496 121.461 361.423 123 361.092C125.492 360.556 134.547 360.891 135.339 361.549C136.279 362.33 136.321 375.018 135.39 376.82C134.541 378.462 133.365 378.368 132.626 376.6C131.924 374.92 131.69 374.896 129.277 376.265C125.267 378.539 125.207 378.555 120.605 378.531C116.344 378.509 115.704 378.373 113.018 376.918C105.46 372.823 102.993 358.265 108.722 351.563C113.724 345.711 121.57 343.81 128.05 346.878ZM347.662 346.757C353.625 349.302 357.539 356 353.062 356C351.676 356 349.461 354.253 348.998 352.793C347.773 348.933 335.025 348.942 333.799 352.804C333.678 353.184 333.232 353.809 332.808 354.193C332.324 354.63 331.708 356.315 331.155 358.708L330.273 362.525L331.18 366.362C332.593 372.335 335.601 374.8 341.479 374.8C346.796 374.8 350.98 371.472 350.993 367.232L351 365L346.4 364.8L341.8 364.6L341.673 363.274C341.449 360.946 341.845 360.8 348.36 360.8C356.498 360.8 356 360.279 356 368.797C356 377.788 355.32 379.596 352.92 376.99C351.396 375.334 351.056 375.301 348.763 376.593C345.983 378.16 345.471 378.325 342.551 378.604C335.697 379.259 331.086 376.824 327.388 370.6C325.742 367.83 325.548 357.216 327.099 354.8C327.593 354.03 327.998 353.191 327.999 352.935C328.001 352.017 332.355 348.035 334.653 346.849C338.043 345.1 343.684 345.06 347.662 346.757ZM68.001 347.402C68.256 348.074 68.232 348.731 67.926 349.402L67.472 350.4H58.55C48.154 350.4 48.8 350.095 48.8 355C48.8 359.863 48.3 359.6 57.534 359.6C65.994 359.6 66.4 359.692 66.4 361.6C66.4 363.509 65.996 363.6 57.51 363.6H49.58L49.19 364.626C48.732 365.831 48.716 371.842 49.168 373C49.468 373.767 49.851 373.8 58.371 373.8C66.77 373.8 67.294 373.844 67.842 374.592C68.316 375.238 68.311 377.319 67.835 377.885C67.524 378.255 45.033 377.993 44.654 377.614C43.861 376.823 43.806 348.556 44.595 347.352L45.218 346.4H56.419H67.62L68.001 347.402ZM80.573 348.141C81.358 349.099 82 350.018 82 350.183C82 350.349 82.405 350.988 82.9 351.603C83.395 352.219 84.34 353.657 85 354.8C85.66 355.943 86.605 357.381 87.1 357.997C87.595 358.612 88 359.232 88 359.374C88 359.629 88.248 360.019 90.73 363.665C91.429 364.691 92 365.698 92 365.903C92 366.108 92.36 366.602 92.8 367C93.24 367.398 93.6 367.944 93.6 368.213C93.6 368.482 93.884 368.938 94.23 369.225C95.407 370.202 95.588 368.785 95.594 358.519C95.601 347.299 95.758 346.4 97.72 346.4C99.961 346.4 99.973 346.489 99.987 362.211C100.001 378.036 99.949 378.403 97.677 378.397C96.371 378.394 94.417 377.18 93.6 375.864C93.27 375.333 92.356 373.931 91.57 372.749C90.783 371.567 89.793 370.08 89.37 369.444C88.946 368.808 88.42 367.998 88.201 367.644C87.982 367.29 87.397 366.427 86.901 365.727C86.405 365.026 86 364.332 86 364.184C86 364.037 85.595 363.417 85.1 362.808C84.605 362.199 83.84 361.102 83.4 360.37C78.719 352.581 78.416 352.922 78.401 366C78.387 378.186 78.419 378 76.343 378C74.039 378 74 377.734 74 361.948C74 345.894 73.903 346.4 76.987 346.4C79.05 346.4 79.21 346.478 80.573 348.141ZM147.219 347.219C148.189 348.189 148.303 376.659 147.34 377.62C146.602 378.358 143.926 378.186 143.324 377.364C142.471 376.197 142.569 347.888 143.429 347.029C144.309 346.148 146.245 346.245 147.219 347.219ZM160.838 347.227C161.477 347.682 162 348.249 162 348.487C162 348.725 163.35 350.93 165 353.387C166.65 355.844 168 358.058 168 358.307C168 358.556 168.231 358.904 168.513 359.08C168.795 359.256 169.808 360.708 170.763 362.308C171.719 363.907 172.661 365.314 172.857 365.435C173.052 365.556 173.476 366.285 173.798 367.056C174.258 368.158 174.577 368.43 175.292 368.329L176.2 368.2L176.307 358.024C176.428 346.562 176.468 346.4 179.219 346.4C181.272 346.4 181.201 345.841 181.195 361.933C181.188 378.957 181.341 378 178.632 378C176.416 378 174.871 376.887 173.55 374.34C173.247 373.757 172.356 372.317 171.57 371.14C170.783 369.963 169.793 368.478 169.37 367.84C168.946 367.203 168.33 366.296 168 365.826C167.67 365.356 167.04 364.371 166.6 363.636C166.16 362.901 165.395 361.801 164.9 361.192C164.405 360.583 164 359.908 164 359.691C164 359.475 163.715 359.062 163.367 358.773C163.019 358.484 162.434 357.62 162.067 356.853C160.179 352.905 159.601 355.305 159.594 367.126C159.591 372.557 159.442 377.229 159.264 377.51C158.843 378.173 156.112 378.271 155.485 377.646C154.618 376.78 154.583 348.103 155.448 347.147C156.398 346.097 159.312 346.14 160.838 347.227ZM212.228 347.371C212.942 350.215 212.365 350.388 202.114 350.395C192.631 350.401 193.2 350.088 193.2 355.294C193.2 359.822 192.746 359.6 202 359.6C210.39 359.6 210.8 359.693 210.8 361.6C210.8 363.513 210.405 363.6 201.767 363.6C192.356 363.6 193.21 363.061 193.212 369C193.213 374.098 192.638 373.776 201.494 373.645C212.045 373.49 213.562 373.943 212.434 376.911L212.02 378H200.633C189.319 378 189.241 377.994 188.623 377.111C187.654 375.728 187.69 348.206 188.662 347.131C189.274 346.456 190.186 346.4 200.654 346.4H211.985L212.228 347.371ZM242.163 347.4C242.77 348.326 242.77 348.474 242.163 349.4L241.508 350.4H233.443C223.263 350.4 223.6 350.234 223.6 355.233C223.6 359.741 223.302 359.598 232.726 359.606C240.138 359.613 240.395 359.658 241.149 361.091C242.259 363.198 240.879 363.6 232.531 363.6C223.26 363.6 223.6 363.41 223.6 368.586C223.6 374.049 223.092 373.767 232.736 373.643C242.582 373.517 244.869 374.279 242.744 376.981L241.932 378.012L230.466 377.906L219 377.8L218.889 363C218.827 354.86 218.876 347.795 218.996 347.3L219.215 346.4H230.362H241.508L242.163 347.4ZM269.679 347.192C272.17 347.961 274.001 349.5 274.872 351.558C276.054 354.351 274.274 361.2 272.365 361.2C271.626 361.2 272.036 362.449 273.4 364.347C274.608 366.028 274.803 366.618 274.825 368.648C274.855 371.565 275.38 376.381 275.761 377.249C276.099 378.019 274.486 378.469 272.673 378.111C270.912 377.764 270.355 376.466 269.985 371.838C269.423 364.818 269.418 364.813 260.524 364.805C253.28 364.799 253.778 364.362 253.922 370.6C254.079 377.402 252.822 379.766 250.106 377.781C249.083 377.033 248.795 348.878 249.795 347.352L250.418 346.4H258.767C265.957 346.4 267.472 346.51 269.679 347.192ZM286.602 347.7C286.949 349.592 286.657 377.477 286.287 377.847C285.79 378.343 283.251 378.211 282.7 377.66C281.865 376.826 281.767 348.615 282.595 347.352C283.644 345.75 286.287 345.98 286.602 347.7ZM300.453 347.8C300.907 348.57 301.412 349.2 301.575 349.2C301.738 349.2 302.081 349.66 302.337 350.222C302.765 351.162 305.24 355.049 309.957 362.192C310.97 363.727 311.98 365.372 312.2 365.848C312.798 367.142 315.209 369.724 315.525 369.41C315.676 369.259 315.902 364.065 316.028 357.868C316.153 351.67 316.288 346.555 316.328 346.5C316.801 345.847 319.537 346.543 319.936 347.419C320.523 348.708 320.59 375.448 320.01 376.974C319.348 378.716 315.544 378.498 314.306 376.646C311.084 371.83 310.403 370.795 309.276 369C308.586 367.9 307.791 366.743 307.511 366.429C307.23 366.115 306.73 365.365 306.4 364.761C306.07 364.158 304.379 361.556 302.643 358.978C298.389 352.663 298.394 352.655 298.45 366.734C298.492 377.618 298.468 377.788 296.8 378.176C294.579 378.692 294.61 378.897 294.486 362.815C294.355 345.766 294.241 346.4 297.428 346.4C299.517 346.4 299.668 346.47 300.453 347.8ZM254.058 351.3C253.397 353.148 253.826 359.683 254.649 360.297C255.809 361.163 265.683 360.778 267.673 359.79C271.18 358.047 271.129 352.13 267.597 350.923C264.779 349.959 254.435 350.248 254.058 351.3Z" fill="white"/>
</g>
<defs>
<clipPath id="clip0">
<rect width="400" height="480" fill="white"/>
</clipPath>
</defs>
</svg>
